<?xml version="1.0" encoding="UTF-8"?>
<svg width="270px" height="270px" viewBox="0 0 270 270" version="1.1" xmlns="http://www.w3.org/2000/svg" xmlns:xlink="http://www.w3.org/1999/xlink">
    <!-- Generator: Sketch 54 (76480) - https://sketchapp.com -->
    <title>编组 24</title>
    <desc>Created with Sketch.</desc>
    <defs>
        <linearGradient x1="14.1940078%" y1="0%" x2="76.5030617%" y2="36.5456761%" id="linearGradient-1">
            <stop stop-color="#98F4EE" offset="0%"></stop>
            <stop stop-color="#00C1E0" offset="100%"></stop>
        </linearGradient>
        <rect id="path-2" x="0.227873017" y="0" width="269.330025" height="270" rx="20"></rect>
        <linearGradient x1="14.0591373%" y1="32.4561951%" x2="42.7221774%" y2="60.9656706%" id="linearGradient-4">
            <stop stop-color="#98F4EE" offset="0%"></stop>
            <stop stop-color="#00C1E0" offset="100%"></stop>
        </linearGradient>
        <filter x="-51.1%" y="-51.1%" width="202.3%" height="202.3%" filterUnits="objectBoundingBox" id="filter-5">
            <feGaussianBlur stdDeviation="15" in="SourceGraphic"></feGaussianBlur>
        </filter>
        <linearGradient x1="111.098815%" y1="31.6823755%" x2="111.098815%" y2="147.285131%" id="linearGradient-6">
            <stop stop-color="#1CEDE5" offset="0%"></stop>
            <stop stop-color="#00B7D4" offset="100%"></stop>
        </linearGradient>
        <linearGradient x1="111.098815%" y1="31.6823755%" x2="111.098815%" y2="147.285131%" id="linearGradient-7">
            <stop stop-color="#1CEDE5" offset="0%"></stop>
            <stop stop-color="#00B7D4" offset="100%"></stop>
        </linearGradient>
    </defs>
    <g id="页面-1" stroke="none" stroke-width="1" fill="none" fill-rule="evenodd">
        <g id="导航页" transform="translate(-95.000000, -241.000000)">
            <g id="编组-24" transform="translate(95.000000, 241.000000)">
                <g id="路径-14">
                    <mask id="mask-3" fill="white">
                        <use xlink:href="#path-2"></use>
                    </mask>
                    <use id="蒙版" fill="url(#linearGradient-1)" xlink:href="#path-2"></use>
                    <path d="M-0.160726046,152.805056 C30.233098,146.970092 69.5925662,155.21595 117.917679,177.542628 C166.242791,199.869307 216.562923,197.865197 268.878075,171.530298 L268.727377,284.917127 L0.880542571,279.030331 L-0.160726046,152.805056 Z" fill="url(#linearGradient-4)" mask="url(#mask-3)"></path>
                </g>
                <g id="编组" transform="translate(48.000000, 133.000000)">
                    <g id="编组-9"></g>
                </g>
                <g id="编组-5" transform="translate(91.000000, 40.000000)">
                    <g id="编组-7">
                        <circle id="椭圆形" fill="#00B0CC" filter="url(#filter-5)" cx="44" cy="44" r="44"></circle>
                        <circle id="椭圆形" fill="#FFFFFF" cx="44.5" cy="44.5" r="41.5"></circle>
                        <g id="编组-3" transform="translate(15.000000, 22.000000)" fill-rule="nonzero">
                            <path d="M19.5153846,9.07638159 C18.7636781,9.07638159 18.1538462,8.48128892 18.1538462,7.74811739 L18.1538462,1.32826416 C18.1538462,0.594551192 18.7636781,0 19.5153846,0 C20.2670912,0 20.8769231,0.594551192 20.8769231,1.32772268 L20.8769231,7.74865887 C20.8769231,8.48183036 20.2670911,9.07692303 19.5153846,9.07692308 L19.5153846,9.07638159 Z M10.6267916,12.7076907 C10.3271441,12.7076907 10.0270038,12.5765432 9.79783271,12.3153411 L5.78955533,7.73337584 C5.33168668,7.20368176 5.33168668,6.36798871 5.78955533,5.83829464 C6.00613353,5.58779072 6.30554422,5.44615385 6.61851421,5.44615385 C6.93148421,5.44615385 7.2308949,5.58779072 7.4474731,5.83829464 L11.4562433,10.4197135 C11.9145856,10.9432106 11.9145856,11.7912976 11.4562433,12.3153411 C11.236929,12.5667072 10.93876,12.7082371 10.6272844,12.7076907 L10.6267916,12.7076907 Z M28.4038528,12.7076907 C28.1032331,12.7076907 27.8031061,12.5765484 27.574438,12.3153565 C27.116213,11.785428 27.116213,10.9491855 27.574438,10.4192569 L31.5825371,5.83856434 C31.7991211,5.58789677 32.0986258,5.44615385 32.4117055,5.44615385 C32.7247853,5.44615385 33.0242899,5.58789677 33.2408739,5.83856434 C33.6991959,6.36204083 33.6991959,7.2100946 33.2408739,7.73357114 L29.232282,12.3153565 C29.0129774,12.5667127 28.7148217,12.7082371 28.40336,12.7076907 L28.4038528,12.7076907 Z M6.97313322,21.7846154 L1.1955952,21.7846154 C0.535003717,21.7846154 0,21.1750459 0,20.4227994 C0,19.6705529 0.535003717,19.0615385 1.1955952,19.0615385 L6.97363557,19.0615385 C7.6337247,19.0615385 8.16923077,19.6705528 8.16923077,20.4227994 C8.16923077,21.1750459 7.63372466,21.7840602 6.97363557,21.7840602 L6.97313322,21.7846154 Z M21.5590804,24.6145636 C17.5128793,24.2254215 15.7364238,28.1384615 15.2966415,28.1384615 C15.1101289,28.1384615 14.9210684,28.0936793 14.7437286,27.9984527 C11.9006863,26.4784308 10.3423383,23.9783472 10.0299553,20.6706394 C9.52545414,15.3292008 13.2893384,10.556548 18.4194526,10.031515 C20.2275032,9.8472387 22.0324962,10.2080702 23.6387463,11.0774631 C25.2016806,11.9236927 26.1745015,12.8213962 27.0673157,14.3980394 C27.4072169,14.9987389 27.1972629,15.2669175 26.620399,15.6210574 C26.620399,15.6210574 21.1233749,18.5859496 21.5590804,24.6145636 Z M6.61855203,34.4923014 C6.31841394,34.4923014 6.01827584,34.3611493 5.7895992,34.099938 C5.33167206,33.5700412 5.33167206,32.7341402 5.7895992,32.2042433 L9.79784732,27.623209 C10.0144394,27.3725227 10.3139552,27.2307692 10.6270466,27.2307692 C10.9401379,27.2307692 11.2396537,27.3725227 11.4562458,27.623209 C11.9145847,28.1461781 11.9145847,28.9948416 11.4562458,29.5183571 L7.44750487,34.099938 C7.22819215,34.3513129 6.9300254,34.4933944 6.61855203,34.4923014 L6.61855203,34.4923014 Z" id="形状" fill="url(#linearGradient-6)"></path>
                            <path d="M48.5843909,43.5692308 L23.8534704,43.5692308 C19.209503,43.5692308 15.4307692,39.7273583 15.4307692,35.0047648 C15.4307692,30.3646418 19.0782827,26.575156 23.6110205,26.4439297 C23.7263508,19.8509714 29.0366711,14.5230769 35.5484771,14.5230769 C38.26976,14.5230769 40.8331685,15.4302505 42.9603721,17.1460484 C44.7025352,18.5551438 46.0252938,20.4246715 46.7821625,22.5475956 C47.3771879,22.4416559 47.9802256,22.3885483 48.5843909,22.3888791 C54.3273281,22.3888791 59,27.1394813 59,32.9787956 C59,38.8181099 54.3273282,43.5692308 48.5843909,43.5692308 Z" id="路径" fill="url(#linearGradient-7)"></path>
                        </g>
                    </g>
                </g>
                <circle id="椭圆形" fill="#65E3E9" cx="63.5" cy="137.5" r="6.5"></circle>
                <circle id="椭圆形" fill-opacity="0.3" fill="#65E3E9" cx="180.5" cy="153.5" r="4.5"></circle>
                <circle id="椭圆形" fill-opacity="0.3" fill="#65E3E9" cx="180.5" cy="153.5" r="4.5"></circle>
                <text id="每日全国确诊人数较前日变化态势" font-family="PingFangSC-Semibold, PingFang SC" font-size="16" font-weight="500" fill="#FFFFFF">
                    <tspan x="43" y="198">每日全国确诊人数较前日</tspan>
                    <tspan x="43" y="220">变化态势</tspan>
                </text>
                <text id="疫情晴雨表" font-family="PingFangSC-Medium, PingFang SC" font-size="36" font-weight="400" fill="#FFFFFF">
                    <tspan x="44" y="167">疫情晴雨表</tspan>
                </text>
                <circle id="椭圆形" fill-opacity="0.3" fill="#65E3E9" cx="232" cy="142" r="6"></circle>
                <circle id="椭圆形" fill-opacity="0.3" fill="#65E3E9" cx="232" cy="142" r="6"></circle>
            </g>
        </g>
    </g>
</svg>