<?xml version="1.0" encoding="UTF-8"?>
<svg width="270px" height="270px" viewBox="0 0 270 270" version="1.1" xmlns="http://www.w3.org/2000/svg" xmlns:xlink="http://www.w3.org/1999/xlink">
    <!-- Generator: Sketch 54 (76480) - https://sketchapp.com -->
    <title>编组 29</title>
    <desc>Created with Sketch.</desc>
    <defs>
        <linearGradient x1="50%" y1="0%" x2="50%" y2="100%" id="linearGradient-1">
            <stop stop-color="#FFFFFF" offset="0%"></stop>
            <stop stop-color="#FFFFFF" offset="100%"></stop>
        </linearGradient>
        <linearGradient x1="50%" y1="0%" x2="50%" y2="100%" id="linearGradient-2">
            <stop stop-color="#FFFFFF" offset="0%"></stop>
            <stop stop-color="#FFFFFF" offset="100%"></stop>
        </linearGradient>
    </defs>
    <g id="页面-1" stroke="none" stroke-width="1" fill="none" fill-rule="evenodd">
        <g id="导航页" transform="translate(-96.000000, -1111.000000)">
            <rect fill="#FFFFFF" x="0" y="0" width="750" height="1592"></rect>
            <g id="编组-29" transform="translate(96.000000, 1111.000000)">
                <rect id="矩形" stroke="#979797" stroke-width="3" x="1.5" y="1.5" width="267" height="267" rx="20"></rect>
                <g id="编组-18" transform="translate(94.000000, 40.000000)">
                    <circle id="椭圆形" fill="#9B9B9B" cx="41.5" cy="41.5" r="41.5"></circle>
                    <g id="编组-2" transform="translate(23.000000, 22.000000)" fill-rule="nonzero">
                        <path d="M35,0 L5,0 C2.25,0 0,2.28358209 0,5.07462687 L0,10.1492537 L40,10.1492537 L40,5.07462687 C40,2.28358209 37.75,0 35,0 Z M5.97014925,7.76119403 C5.31343284,7.76119403 4.7761194,7.2238806 4.7761194,6.56716418 C4.7761194,5.91044776 5.31343284,5.37313433 5.97014925,5.37313433 C6.62686567,5.37313433 7.1641791,5.91044776 7.1641791,6.56716418 C7.1641791,7.2238806 6.62686567,7.76119403 5.97014925,7.76119403 Z M11.3432836,7.76119403 C10.6865672,7.76119403 10.1492537,7.2238806 10.1492537,6.56716418 C10.1492537,5.91044776 10.6865672,5.37313433 11.3432836,5.37313433 C12,5.37313433 12.5373134,5.91044776 12.5373134,6.56716418 C12.5373134,7.2238806 12,7.76119403 11.3432836,7.76119403 Z M16.119403,7.76119403 C15.4626866,7.76119403 14.9253731,7.2238806 14.9253731,6.56716418 C14.9253731,5.91044776 15.4626866,5.37313433 16.119403,5.37313433 C16.7761194,5.37313433 17.3134328,5.91044776 17.3134328,6.56716418 C17.3134328,7.2238806 16.7761194,7.76119403 16.119403,7.76119403 Z" id="形状" fill="url(#linearGradient-1)"></path>
                        <path d="M0,35.0067843 C0,37.7530529 2.25,40 5,40 L35,40 C37.75,40 40,37.7530529 40,35.0067843 L40,12.5373134 L0,12.5373134 L0,35.0067843 Z" id="路径" fill="url(#linearGradient-2)"></path>
                    </g>
                </g>
                <text id="登陆PKU.VIS首页查看更多深度分析" font-family="PingFangSC-Regular, PingFang SC" font-size="24" font-weight="normal" fill="#9B9B9B">
                    <tspan x="37" y="163">登陆PKU.VIS首页</tspan>
                    <tspan x="37" y="196">查看更多深度分析</tspan>
                </text>
            </g>
        </g>
    </g>
</svg>