<?xml version="1.0" encoding="UTF-8"?>
<svg width="270px" height="270px" viewBox="0 0 270 270" version="1.1" xmlns="http://www.w3.org/2000/svg" xmlns:xlink="http://www.w3.org/1999/xlink">
    <!-- Generator: Sketch 54 (76480) - https://sketchapp.com -->
    <title>编组 28</title>
    <desc>Created with Sketch.</desc>
    <g id="页面-1" stroke="none" stroke-width="1" fill="none" fill-rule="evenodd">
        <g id="导航页" transform="translate(-385.000000, -1111.000000)">
            <rect fill="#FFFFFF" x="0" y="0" width="750" height="1592"></rect>
            <g id="编组-28" transform="translate(385.000000, 1111.000000)">
                <rect id="矩形" stroke="#979797" stroke-width="3" x="1.5" y="1.5" width="267" height="267" rx="20"></rect>
                <text id="查看微信医疗健康小程序版" font-family="PingFangSC-Regular, PingFang SC" font-size="24" font-weight="normal" fill="#9B9B9B">
                    <tspan x="37" y="163">查看微信医疗健康</tspan>
                    <tspan x="37" y="196">小程序版</tspan>
                </text>
                <g id="编组-19" transform="translate(94.000000, 40.000000)">
                    <g id="编组-18" fill="#9B9B9B">
                        <circle id="椭圆形" cx="41.5" cy="41.5" r="41.5"></circle>
                    </g>
                    <path d="M52.8144859,33.3104879 C53.3875615,33.3104879 53.9545769,33.3525635 54.5170188,33.4151624 C52.9872547,26.2922653 45.3717647,21 36.6790712,21 C26.9607416,21 19,27.6239354 19,36.0352264 C19,40.8904427 21.6485305,44.8774495 26.0743727,47.9698351 L24.3061511,53.2879402 L30.4864368,50.188866 C32.6979,50.6265437 34.4721816,51.076627 36.6791284,51.076627 C37.2339094,51.076627 37.7840025,51.0492435 38.3295218,51.0063676 C37.9841558,49.8244203 37.7840024,48.5864485 37.7840024,47.3019992 C37.7839453,39.5784384 44.416677,33.3104879 52.8144859,33.3104879 Z M43.3086585,28.5172416 C44.6398128,28.5172416 45.5216654,29.3929402 45.5216654,30.7232383 C45.5216654,32.0482197 44.6398128,32.9361522 43.3086585,32.9361522 C41.9836215,32.9361522 40.654068,32.0482197 40.654068,30.7232383 C40.654068,29.3929402 41.9836215,28.5172416 43.3086585,28.5172416 Z M30.9357385,32.9361522 C29.6108158,32.9361522 28.2736015,32.0482197 28.2736015,30.7232382 C28.2736015,29.3929402 29.610873,28.5172416 30.9357385,28.5172416 C32.2607755,28.5172416 33.1426281,29.3929401 33.1426281,30.7232382 C33.1426281,32.0482197 32.2607755,32.9361522 30.9357385,32.9361522 Z" id="形状" fill="#FFFFFF" fill-rule="nonzero"></path>
                    <path d="M68.9500722,47.0895631 C68.9500722,40.0216044 61.8771288,34.2603333 53.9333096,34.2603333 C45.5217226,34.2603333 38.8966516,40.0216044 38.8966516,47.0895631 C38.8966516,54.1696987 45.5216654,59.918793 53.9333096,59.918793 C55.6938703,59.918793 57.4696383,59.4748267 59.2378599,59.0316608 L64.0869913,61.6869403 L62.7574378,57.2689444 C66.3060582,54.6068047 68.9500722,51.0765698 68.9500722,47.0895631 Z M49.0579942,44.8774495 C48.1776853,44.8774495 47.2897726,44.0017509 47.2897726,43.1085018 C47.2897726,42.2276009 48.1777424,41.340526 49.0579942,41.340526 C50.3952657,41.340526 51.271001,42.2276582 51.271001,43.1085018 C51.271001,44.0017509 50.3952085,44.8774495 49.0579942,44.8774495 Z M58.7824409,44.8774495 C57.9082492,44.8774495 57.0263967,44.0017509 57.0263967,43.1085018 C57.0263967,42.2276009 57.9082493,41.340526 58.7824409,41.340526 C60.107478,41.340526 60.9952763,42.2276582 60.9952763,43.1085018 C60.9952763,44.0017509 60.107478,44.8774495 58.7824409,44.8774495 Z" id="形状" fill="#FFFFFF" fill-rule="nonzero"></path>
                </g>
            </g>
        </g>
    </g>
</svg>