<?xml version="1.0" encoding="utf-8"?>
<!-- Generator: Adobe Illustrator 22.1.0, SVG Export Plug-In . SVG Version: 6.00 Build 0)  -->
<svg version="1.1" id="图层_1" xmlns="http://www.w3.org/2000/svg" xmlns:xlink="http://www.w3.org/1999/xlink" x="0px" y="0px"
	 viewBox="0 0 463.8 51.5" style="enable-background:new 0 0 463.8 51.5;" xml:space="preserve">
<style type="text/css">
	.st0{fill:#94070A;}
	.st1{fill:#9B9B9B;}
	.st2{font-family:'AdobeSongStd-Light-GBpc-EUC-H';}
	.st3{font-size:20px;}
	.st4{font-family:'ArialMT';}
</style>
<title>编组 12</title>
<desc>Created with Sketch.</desc>
<g id="页面-1">
	<g id="导航页" transform="translate(-155.000000, -1458.000000)">
		<g id="编组-12" transform="translate(155.000000, 1455.000000)">
			<g id="Frame-_x28_1_x29_" transform="translate(0.000000, 3.000000)">
				<path id="路径" class="st0" d="M16,46.2L16,46.2c-0.2-0.1-0.5-0.2-0.8-0.4c-0.3-0.1-0.6-0.3-0.9-0.4l0,0l0.1-0.1l0,0
					c0.1,0,0.1,0.1,0.2,0.1c0.1,0.1,0.2,0.1,0.2,0.1c0,0,0.1,0,0.1-0.1c0.1-0.1,0.2-0.4,0.4-0.9l0.2-0.6c0.1-0.2,0.2-0.4,0.3-0.7
					L16,43c0-0.1,0-0.1,0-0.1c0,0-0.1,0-0.1,0c-0.2,0-0.4,0-0.6,0l0,0c0-0.1,0.1-0.2,0.1-0.3l0,0c0.4,0.1,0.9,0.1,1.5,0.2l0,0.1
					c0,0.1-0.1,0.2-0.2,0.4c0,0.1-0.1,0.3-0.2,0.6l-0.4,0.9c-0.3,0.7-0.4,1-0.4,1.1c0,0,0,0.1,0,0.1c0,0,0.2,0.1,0.4,0.3l0,0
					L16,46.2z"/>
				<path id="形状" class="st0" d="M23.1,46.4c0,0.2-0.1,0.4-0.2,0.5c-0.2,0.3-0.4,0.5-0.8,0.5c-0.1,0-0.3,0-0.5,0
					c-0.4-0.1-0.7-0.3-0.9-0.6c-0.1-0.1-0.1-0.3-0.1-0.5c0-0.3,0.1-0.5,0.3-0.6c0.1,0,0.2-0.1,0.4-0.2c-0.3-0.2-0.5-0.6-0.4-0.9
					c0-0.4,0.3-0.7,0.7-0.8c0.2-0.1,0.4-0.1,0.6,0c0.3,0,0.5,0.2,0.7,0.3c0.2,0.2,0.2,0.4,0.2,0.6c0,0.3-0.2,0.5-0.6,0.7
					c0.2,0.1,0.4,0.3,0.5,0.5C23.1,46,23.1,46.2,23.1,46.4z M22.4,46.7c0-0.3-0.1-0.5-0.3-0.6c-0.1-0.1-0.3-0.2-0.5-0.3l-0.1,0
					c-0.3,0.2-0.4,0.4-0.5,0.7c0,0.2,0,0.3,0,0.4c0.1,0.2,0.3,0.4,0.6,0.4c0.2,0,0.3,0,0.5-0.1C22.3,47,22.4,46.8,22.4,46.7z
					 M22.6,44.7c0-0.2,0-0.3-0.1-0.4c-0.1-0.1-0.2-0.2-0.4-0.2c-0.2,0-0.3,0-0.4,0.1c-0.1,0.1-0.2,0.2-0.2,0.3c0,0.1,0,0.3,0.1,0.4
					c0.1,0.1,0.1,0.1,0.3,0.2c0,0,0.1,0.1,0.2,0.1l0.1,0.1C22.5,45.2,22.6,45,22.6,44.7z"/>
				<path id="形状_1_" class="st0" d="M29.3,45.1c0.1,0.5,0,0.8-0.1,1.2c-0.1,0.3-0.3,0.6-0.6,0.9c-0.3,0.2-0.6,0.4-1,0.4
					l-0.2-0.1l0.1-0.1c0.1,0,0.1,0,0.2,0c0.3,0,0.5-0.2,0.7-0.4c0.1-0.1,0.1-0.2,0.2-0.4c0.1-0.2,0.1-0.5,0.1-1
					c-0.2,0.3-0.4,0.4-0.4,0.4c-0.1,0.1-0.2,0.1-0.4,0.1c-0.2,0-0.5,0-0.6-0.2c-0.2-0.2-0.3-0.4-0.3-0.7c-0.1-0.5,0.1-0.9,0.4-1.2
					c0.2-0.1,0.4-0.2,0.6-0.3c0.5-0.1,0.9,0.1,1.1,0.5C29.2,44.4,29.3,44.7,29.3,45.1z M28.6,44.9c0-0.3-0.1-0.5-0.2-0.7
					c-0.1-0.1-0.3-0.2-0.4-0.2c-0.2,0-0.3,0.2-0.4,0.4c0,0.1,0,0.3,0,0.4c0,0.3,0.1,0.5,0.2,0.6c0.1,0.1,0.3,0.2,0.4,0.1
					c0.2,0,0.4-0.1,0.4-0.3C28.6,45.1,28.6,45,28.6,44.9z"/>
				<path id="形状_2_" class="st0" d="M34.9,44.4C35,44.6,35,44.8,35,45c0,0.3-0.1,0.6-0.4,0.9c-0.1,0.1-0.2,0.2-0.4,0.3
					c-0.3,0.2-0.6,0.2-0.9,0c-0.1-0.1-0.2-0.2-0.3-0.4c-0.1-0.2-0.1-0.5,0-0.7c0-0.1,0.1-0.2,0.2-0.4c-0.4,0-0.6-0.2-0.7-0.5
					c-0.1-0.4-0.1-0.7,0.2-1.1c0.1-0.1,0.2-0.3,0.4-0.4c0.2-0.1,0.5-0.2,0.7-0.1c0.2,0.1,0.3,0.2,0.4,0.4c0.1,0.3,0,0.6-0.2,0.9
					c0.2,0,0.4,0,0.6,0.1C34.7,44.1,34.8,44.2,34.9,44.4z M33.9,43.2c-0.1-0.2-0.1-0.3-0.3-0.3c-0.1-0.1-0.2,0-0.4,0
					c-0.1,0.1-0.2,0.2-0.3,0.3c0,0.1,0,0.2,0,0.4c0,0.1,0.1,0.2,0.3,0.3c0.1,0,0.2,0,0.3,0c0,0,0.1,0,0.2,0l0.1,0
					C33.9,43.7,34,43.4,33.9,43.2z M34.5,45c-0.1-0.2-0.2-0.4-0.5-0.4c-0.2,0-0.3,0-0.5,0l-0.1,0c-0.1,0.3-0.2,0.6-0.1,0.8
					c0.1,0.2,0.1,0.3,0.2,0.3c0.2,0.2,0.4,0.2,0.6,0.1c0.1-0.1,0.2-0.2,0.3-0.4C34.6,45.3,34.6,45.1,34.5,45z"/>
				<path id="形状_3_" class="st0" d="M15.3,2c-3,1.3-5.7,3.1-7.9,5.4s-4.1,5-5.4,7.9c-1.3,3.1-2,6.4-2,9.7c0,3.4,0.7,6.6,2,9.7
					c1.3,3,3.1,5.6,5.4,7.9c2.3,2.3,5,4.1,7.9,5.4c3.1,1.3,6.4,2,9.7,2c3.4,0,6.6-0.7,9.7-2c3-1.3,5.7-3.1,7.9-5.4
					c2.3-2.3,4.1-5,5.4-7.9c1.3-3.1,2-6.4,2-9.7c0-3.4-0.7-6.6-2-9.7c-1.3-3-3.1-5.7-5.4-7.9c-2.3-2.3-5-4.1-7.9-5.4
					c-3.1-1.3-6.4-2-9.7-2C21.6,0,18.3,0.7,15.3,2z M15.6,47.3c-2.9-1.2-5.5-3-7.7-5.2c-2.2-2.2-4-4.8-5.2-7.7
					c-1.3-3-1.9-6.1-1.9-9.4c0-3.3,0.6-6.4,1.9-9.4c1.2-2.9,3-5.5,5.2-7.7c2.2-2.2,4.8-4,7.7-5.2c3-1.3,6.1-1.9,9.4-1.9
					s6.4,0.6,9.4,1.9c2.9,1.2,5.5,3,7.7,5.2c2.2,2.2,4,4.8,5.2,7.7c1.3,3,1.9,6.1,1.9,9.4s-0.6,6.4-1.9,9.4c-1.2,2.9-3,5.5-5.2,7.7
					c-2.2,2.2-4.8,4-7.7,5.2c-3,1.3-6.1,1.9-9.4,1.9C21.7,49.2,18.6,48.5,15.6,47.3z"/>
				<path id="形状_4_" class="st0" d="M17.7,7.7c-2.2,0.9-4.2,2.3-6,4c-1.7,1.7-3.1,3.7-4,6c-1,2.3-1.5,4.8-1.5,7.3
					c0,2.5,0.5,5,1.5,7.3c0.9,2.2,2.3,4.2,4,6c1.7,1.7,3.7,3.1,6,4c2.3,1,4.8,1.5,7.3,1.5c2.5,0,5-0.5,7.3-1.5c2.2-0.9,4.2-2.3,6-4
					c1.7-1.7,3.1-3.7,4-6c1-2.3,1.5-4.8,1.5-7.3c0-2.5-0.5-5-1.5-7.3c-0.9-2.2-2.3-4.2-4-6c-1.7-1.7-3.7-3.1-6-4
					c-2.3-1-4.8-1.5-7.3-1.5C22.5,6.3,20,6.7,17.7,7.7z M17.9,41.8c-2.2-0.9-4.1-2.2-5.8-3.9c-1.7-1.7-3-3.6-3.9-5.8
					c-0.9-2.2-1.4-4.6-1.4-7.1c0-2.5,0.5-4.8,1.4-7.1c0.9-2.2,2.2-4.1,3.9-5.8c1.7-1.7,3.6-3,5.8-3.9c2.2-1,4.6-1.4,7.1-1.4
					c2.5,0,4.8,0.5,7.1,1.4c2.2,0.9,4.1,2.2,5.8,3.9c1.7,1.7,3,3.6,3.9,5.8c0.9,2.2,1.4,4.6,1.4,7.1c0,2.5-0.5,4.8-1.4,7.1
					c-0.9,2.2-2.2,4.1-3.9,5.8c-1.7,1.7-3.6,3-5.8,3.9c-2.2,1-4.6,1.4-7.1,1.4C22.5,43.2,20.2,42.7,17.9,41.8z"/>
				<path id="形状_5_" class="st0" d="M4.3,31.3c0.2-0.1,0.4-0.1,0.5-0.1c0.2,0,0.3,0.1,0.5,0.2c0.1,0.1,0.3,0.3,0.4,0.4
					c0.1,0.2,0.2,0.4,0.3,0.6l0.1,0.3l1-0.4c0.1,0,0.1-0.1,0.1-0.1c0,0,0.1-0.1,0.1-0.2c0,0,0-0.1,0-0.2c0-0.1,0-0.2,0-0.2l0.2-0.1
					l0.7,1.9l-0.2,0.1c0,0,0-0.1-0.1-0.2c0-0.1-0.1-0.1-0.1-0.2c0-0.1-0.1-0.1-0.1-0.1c0,0-0.1,0-0.2,0l-2.4,1
					c-0.1,0-0.1,0.1-0.1,0.1c0,0-0.1,0.1-0.1,0.2c0,0.1,0,0.1,0,0.2c0,0.1,0,0.1,0,0.2L4.7,35l-0.7-2c-0.2-0.5-0.2-0.8-0.2-1.1
					C3.8,31.6,4,31.5,4.3,31.3z M4.8,32.3c-0.3,0.1-0.4,0.2-0.5,0.4c-0.1,0.2-0.1,0.4,0,0.6l0.1,0.2l1.5-0.6l0-0.1
					c-0.1-0.3-0.2-0.4-0.4-0.5C5.2,32.2,5,32.2,4.8,32.3z"/>
				<path id="路径_1_" class="st0" d="M3.4,26.1l0,0.2c-0.1,0.1-0.2,0.2-0.4,0.3c-0.1,0.1-0.2,0.3-0.2,0.4c0,0,0,0.1,0,0.2
					c0,0.1,0,0.2,0,0.2l0.1,0.5l1.3-0.2l0-0.4c0-0.1,0-0.2-0.1-0.2C4.1,27.1,4,27,4,27c0,0-0.1-0.1-0.2-0.1c-0.1,0-0.2,0-0.2,0
					l0-0.2l1.4-0.2l0,0.2c-0.1,0-0.1,0-0.2,0.1c-0.1,0.1-0.2,0.1-0.2,0.1C4.4,27,4.4,27,4.4,27.1c0,0.1,0,0.2,0,0.3l0,0.4l1-0.1
					c0.1,0,0.2,0,0.2,0c0.1,0,0.1-0.1,0.1-0.1c0,0,0-0.1,0-0.2c0-0.1,0-0.2,0-0.3c0-0.1,0-0.1,0-0.2c0-0.1,0-0.1,0-0.2
					c0-0.1,0-0.1-0.1-0.2c0-0.1-0.1-0.1-0.1-0.1c-0.1-0.1-0.2-0.1-0.4-0.2c-0.2-0.1-0.3-0.1-0.4-0.1l0-0.2l1.1-0.1L6.3,29l-0.2,0
					c0,0,0-0.1,0-0.2c0-0.1,0-0.1-0.1-0.2c0-0.1-0.1-0.1-0.1-0.1c0,0-0.1,0-0.2,0l-2.4,0.3c-0.1,0-0.1,0-0.1,0c0,0-0.1,0.1-0.1,0.1
					c0,0,0,0.1,0,0.2c0,0.1,0,0.1,0,0.2l-0.2,0l-0.4-3.2L3.4,26.1z"/>
				<path id="路径_2_" class="st0" d="M6.3,20.3L6,21.7c-0.4,0.2-0.7,0.3-0.9,0.4c-0.3,0.1-0.6,0.3-1,0.5l0,0.1l1.2,0.2
					c0.1,0,0.1,0,0.2,0c0.1,0,0.1-0.1,0.1-0.1c0,0,0-0.1,0.1-0.1c0-0.1,0-0.1,0.1-0.2l0.2,0l-0.3,1.8l-0.2,0c0,0,0-0.1,0-0.2
					c0-0.1,0-0.1,0-0.2c0-0.1,0-0.1-0.1-0.1c0,0-0.1,0-0.2-0.1l-2.6-0.3c-0.1,0-0.1,0-0.2,0c0,0-0.1,0.1-0.1,0.1
					c0,0-0.1,0.1-0.1,0.2c0,0.1-0.1,0.1-0.1,0.2l-0.2,0L2.2,22l0.2,0c0,0.1,0,0.1,0,0.2c0,0.1,0,0.1,0,0.2c0,0.1,0,0.1,0.1,0.1
					c0.1,0,0.1,0,0.2,0.1l1.3,0.2l0-0.1c-0.1-0.1-0.2-0.3-0.4-0.5c-0.2-0.2-0.3-0.3-0.4-0.5c-0.1-0.1-0.2-0.3-0.3-0.3
					c-0.1-0.1-0.2-0.1-0.2-0.1c0,0-0.1,0-0.1,0.1c0,0.1-0.1,0.1-0.1,0.3l-0.2,0L2.5,20l0.2,0c0,0.2,0,0.3,0,0.5
					c0,0.1,0.1,0.3,0.2,0.4c0.1,0.2,0.3,0.4,0.4,0.5c0.1,0.1,0.2,0.3,0.4,0.5c0.2-0.1,0.5-0.3,0.8-0.5c0.3-0.2,0.7-0.4,1-0.5
					c0.1,0,0.2-0.1,0.2-0.2c0.1-0.1,0.1-0.1,0.2-0.2c0,0,0.1-0.1,0.1-0.1c0-0.1,0-0.1,0-0.1L6.3,20.3z"/>
				<path id="路径_3_" class="st0" d="M7.5,17.3l-0.7,1.5l-0.2-0.1c0,0,0-0.1,0.1-0.1c0-0.1,0-0.1,0-0.1c0-0.1,0-0.1,0-0.1
					c0,0-0.1-0.1-0.1-0.1l-2.2-0.7c-0.1,0-0.1,0-0.1,0c0,0-0.1,0-0.1,0.1c0,0-0.1,0.1-0.1,0.1c0,0.1-0.1,0.1-0.1,0.1l-0.2-0.1
					l0.7-1.5l0.2,0.1c0,0,0,0.1,0,0.1c0,0.1,0,0.1,0,0.1c0,0.1,0,0.1,0,0.1c0,0,0.1,0.1,0.1,0.1l2.2,0.7c0.1,0,0.1,0,0.1,0
					c0,0,0.1,0,0.1-0.1c0,0,0.1-0.1,0.1-0.1c0-0.1,0.1-0.1,0.1-0.1L7.5,17.3z"/>
				<path id="路径_4_" class="st0" d="M7.9,10.1c0,0,0,0.1-0.1,0.2c0,0.1-0.1,0.2,0,0.3c0,0.1,0,0.2,0.1,0.3
					C7.9,10.9,8,11,8.2,11.1l1.8,1.5L9.8,13l-3.1,0.2l1.2,1c0.1,0.1,0.3,0.2,0.4,0.3c0.1,0,0.2,0,0.2,0c0,0,0.1-0.1,0.2-0.1
					c0.1-0.1,0.1-0.1,0.2-0.2l0.1,0.1l-0.8,1.3L8,15.5c0-0.1,0.1-0.1,0.1-0.2c0-0.1,0-0.2,0-0.2c0-0.1,0-0.2-0.1-0.2
					c-0.1-0.1-0.2-0.2-0.3-0.3l-1.2-1c-0.1,0-0.1-0.1-0.2-0.1c-0.1,0-0.1,0-0.2,0c-0.1,0-0.1,0-0.2,0.1c-0.1,0-0.1,0.1-0.2,0.2
					l-0.1-0.1l0.7-1.1L9,12.2l-1-0.8c-0.2-0.1-0.3-0.2-0.4-0.3c-0.1,0-0.2,0-0.2,0c-0.1,0-0.1,0.1-0.2,0.1c-0.1,0.1-0.1,0.1-0.2,0.2
					L7,11.3L7.8,10L7.9,10.1z"/>
				<path id="路径_5_" class="st0" d="M14,7.5c0,0-0.1,0.1-0.1,0.1c0,0-0.1,0.1-0.1,0.1c0,0.1-0.1,0.1,0,0.2c0,0.1,0,0.1,0.1,0.1
					l0.3,0.3c0.1,0.1,0.1,0.1,0.1,0.2c0,0,0.1,0.1,0.1,0.2c-0.1,0.2-0.2,0.4-0.4,0.7c-0.2,0.3-0.4,0.5-0.7,0.7
					c-0.2,0.2-0.4,0.3-0.7,0.4c-0.2,0.1-0.5,0.1-0.7,0.1c-0.2,0-0.5-0.1-0.7-0.2c-0.2-0.1-0.5-0.3-0.7-0.5c-0.2-0.2-0.3-0.5-0.4-0.7
					C10,8.9,10,8.7,10,8.4c0-0.2,0.1-0.5,0.3-0.7c0.1-0.2,0.3-0.4,0.6-0.6c0.2-0.1,0.3-0.2,0.5-0.3c0.2-0.1,0.3-0.1,0.5-0.1l0-0.2
					L12,6.3l0.9,1l-0.2,0.1c-0.4-0.2-0.7-0.4-1-0.4c-0.3,0-0.5,0-0.8,0.2c-0.3,0.2-0.4,0.5-0.3,0.8c0,0.3,0.2,0.7,0.6,1.1
					c0.3,0.4,0.7,0.7,1,0.8c0.3,0.1,0.6,0.1,0.9-0.1c0.1-0.1,0.2-0.2,0.3-0.3c0.1-0.1,0.1-0.2,0.1-0.3l-0.5-0.6c0,0-0.1-0.1-0.1-0.1
					c0,0-0.1,0-0.2,0c-0.1,0-0.1,0-0.2,0.1c-0.1,0-0.1,0.1-0.2,0.1l-0.1-0.2l1.5-1.2L14,7.5z"/>
				<path id="路径_6_" class="st0" d="M20.6,2.1c0,0-0.1,0-0.2,0.1c-0.1,0-0.1,0.1-0.2,0.2c0,0.1-0.1,0.1-0.1,0.3
					c0,0.1,0,0.3,0.1,0.5l0.3,1.3c0.1,0.4,0,0.7-0.1,1.1C20.3,5.8,20,6,19.6,6.2c-0.5,0.1-0.8,0.1-1.1,0C18.2,6,18,5.7,17.9,5.3
					l-0.4-1.8c0-0.1,0-0.1-0.1-0.1c0,0-0.1-0.1-0.1-0.1c0,0-0.1,0-0.2,0c-0.1,0-0.1,0-0.1,0l0-0.2l1.7-0.5l0,0.2c0,0-0.1,0-0.1,0.1
					c0,0-0.1,0-0.1,0.1c-0.1,0-0.1,0.1-0.1,0.1c0,0.1,0,0.1,0,0.2L18.6,5c0.1,0.4,0.2,0.6,0.4,0.7c0.2,0.1,0.4,0.1,0.7,0.1
					c0.3-0.1,0.4-0.2,0.5-0.5c0.1-0.2,0.1-0.5,0-0.9L20,3.2c0-0.2-0.1-0.4-0.2-0.5c0-0.1-0.1-0.2-0.2-0.2c0,0-0.1,0-0.2,0
					c-0.1,0-0.2,0-0.2,0l0-0.2l1.4-0.4L20.6,2.1z"/>
				<path id="路径_7_" class="st0" d="M27.5,2.1c0,0-0.1,0-0.2,0c-0.1,0-0.2,0-0.2,0.1c-0.1,0-0.1,0.1-0.1,0.2c0,0.1,0,0.3,0,0.5
					l0,2.6l-0.5,0l-2.3-2.9l0,1.7c0,0.2,0,0.4,0,0.5c0,0.1,0.1,0.2,0.1,0.2c0,0,0.1,0.1,0.2,0.1c0.1,0,0.2,0.1,0.2,0.1v0.2l-1.6,0
					V5.4c0.1,0,0.1,0,0.2,0c0.1,0,0.2,0,0.2-0.1c0.1,0,0.1-0.1,0.1-0.2c0-0.1,0-0.3,0-0.5l0-1.7c0-0.1,0-0.2,0-0.2
					c0-0.1-0.1-0.1-0.1-0.2c-0.1-0.1-0.1-0.1-0.2-0.1c-0.1,0-0.2-0.1-0.3-0.1V1.9l1.4,0l2,2.5l0-1.4c0-0.2,0-0.4,0-0.5
					c0-0.1-0.1-0.2-0.1-0.2c0,0-0.1-0.1-0.2-0.1c-0.1,0-0.2,0-0.2-0.1l0-0.2l1.6,0L27.5,2.1z"/>
				<path id="路径_8_" class="st0" d="M30.5,6.3l-1.7-0.5l0-0.2c0,0,0.1,0,0.2,0c0.1,0,0.1,0,0.2,0c0.1,0,0.1,0,0.1-0.1
					c0,0,0-0.1,0.1-0.1l0.6-2.3c0-0.1,0-0.1,0-0.1c0,0,0-0.1-0.1-0.1c0,0-0.1-0.1-0.1-0.1c-0.1,0-0.1-0.1-0.2-0.1l0-0.2L31.3,3
					l0,0.2c0,0-0.1,0-0.2,0c-0.1,0-0.1,0-0.2,0c-0.1,0-0.1,0-0.1,0.1c0,0,0,0.1-0.1,0.1l-0.6,2.3c0,0.1,0,0.1,0,0.1
					c0,0,0,0.1,0.1,0.1c0,0,0.1,0.1,0.1,0.1c0.1,0,0.1,0.1,0.2,0.1L30.5,6.3z"/>
				<path id="路径_9_" class="st0" d="M37.4,6c-0.1,0-0.1,0-0.2,0c-0.1,0-0.1,0-0.2,0c-0.1,0-0.2,0-0.2,0C36.8,6,36.7,6,36.7,6
					c-0.1,0.1-0.2,0.2-0.4,0.4c-0.2,0.2-0.4,0.3-0.6,0.5c-0.2,0.2-0.4,0.4-0.7,0.6c-0.2,0.2-0.5,0.4-0.7,0.6l-0.4-0.2
					C33.8,7.3,33.9,6.6,34,6c0.1-0.7,0.1-1.1,0.1-1.4c0-0.1,0-0.2,0-0.2c0-0.1,0-0.1-0.1-0.2c0-0.1-0.1-0.1-0.1-0.1
					c0,0-0.1-0.1-0.1-0.1l0.1-0.2l1.7,0.9l-0.1,0.2c-0.2-0.1-0.3-0.1-0.4-0.1c-0.1,0-0.1,0-0.1,0c0,0,0,0,0,0.1c0,0,0,0,0,0.1
					c0,0.2,0,0.4-0.1,0.8c0,0.4-0.1,0.9-0.2,1.7c0.3-0.3,0.6-0.6,0.9-0.8s0.4-0.4,0.6-0.6c0.1-0.1,0.2-0.2,0.2-0.2s0.1-0.1,0.1-0.2
					c0,0,0-0.1,0-0.2c-0.1-0.1-0.2-0.2-0.3-0.3l0.1-0.2l1.3,0.7L37.4,6z"/>
				<path id="路径_10_" class="st0" d="M40.7,10l-0.1-0.1c0.1-0.1,0.1-0.3,0.1-0.4c0-0.2,0-0.3-0.1-0.4c0,0-0.1-0.1-0.1-0.1
					c-0.1-0.1-0.1-0.1-0.2-0.1l-0.4-0.3l-0.9,0.9l0.2,0.2c0.1,0.1,0.1,0.1,0.2,0.1s0.1,0,0.2,0c0.1,0,0.1,0,0.2-0.1
					c0.1,0,0.2-0.1,0.2-0.1l0.1,0.1l-0.9,1l-0.1-0.1c0,0,0.1-0.1,0.1-0.2c0-0.1,0.1-0.2,0.1-0.2c0-0.1,0-0.1-0.1-0.2
					c0-0.1-0.1-0.1-0.2-0.2l-0.3-0.2l-0.6,0.7c-0.1,0.1-0.1,0.1-0.1,0.2c0,0,0,0.1,0,0.2c0,0,0,0.1,0.1,0.1c0,0,0.1,0.1,0.2,0.2
					c0,0,0.1,0.1,0.1,0.1c0.1,0,0.1,0.1,0.2,0.1c0.1,0,0.1,0.1,0.2,0.1c0.1,0,0.1,0,0.1,0c0.1,0,0.2,0,0.4-0.1
					c0.2-0.1,0.3-0.1,0.4-0.1l0.1,0.1l-0.7,0.7l-2.3-2L37,9.7c0,0,0.1,0.1,0.1,0.1c0.1,0,0.1,0.1,0.1,0.1c0.1,0,0.1,0,0.2,0
					c0,0,0.1,0,0.1-0.1l1.6-1.7c0,0,0.1-0.1,0.1-0.1c0,0,0-0.1,0-0.2c0,0-0.1-0.1-0.1-0.1C39,7.7,39,7.7,39,7.6l0.1-0.1l2.2,1.9
					L40.7,10z"/>
				<path id="形状_6_" class="st0" d="M42.2,16.3L41.5,15c0.2-0.4,0.3-0.7,0.4-1c0.1-0.3,0.2-0.6,0.3-0.9L42.1,13l-0.9,0.6
					c-0.1,0-0.1,0.1-0.1,0.1c0,0,0,0.1,0,0.2c0,0,0,0.1,0,0.2c0,0.1,0,0.1,0.1,0.2L41,14.3l-1-1.7l0.2-0.1c0,0,0.1,0.1,0.1,0.2
					c0.1,0.1,0.1,0.1,0.1,0.1c0.1,0,0.1,0.1,0.2,0.1c0,0,0.1,0,0.1-0.1l2.1-1.4c0,0,0.1-0.1,0.1-0.1c0,0,0-0.1,0-0.2
					c0-0.1,0-0.1-0.1-0.2c0-0.1,0-0.1-0.1-0.2l0.2-0.1l1.1,1.8c0.2,0.4,0.4,0.7,0.4,1c0,0.3-0.1,0.5-0.3,0.7
					c-0.2,0.1-0.4,0.2-0.6,0.2c-0.2,0-0.4-0.2-0.6-0.4c-0.1,0.2-0.1,0.4-0.2,0.6c-0.1,0.2-0.2,0.5-0.2,0.8c0,0.1-0.1,0.2-0.1,0.3
					c0,0.1,0,0.2,0,0.3c0,0,0,0.1,0.1,0.1c0,0.1,0,0.1,0.1,0.1L42.2,16.3z M43.5,13.2c0.2-0.1,0.3-0.3,0.3-0.5c0-0.2,0-0.4-0.2-0.6
					L43.5,12l-1.2,0.8l0.1,0.2c0.1,0.2,0.3,0.3,0.5,0.4C43,13.5,43.2,13.4,43.5,13.2z"/>
				<path id="路径_11_" class="st0" d="M43.5,18.5c-0.1-0.2-0.1-0.3-0.1-0.5c0-0.1,0-0.3,0-0.4l-0.2-0.1l-0.1-0.2l1.2-0.3l0.1,0.2
					c-0.1,0.1-0.2,0.1-0.3,0.2c-0.1,0.1-0.2,0.2-0.3,0.3c-0.1,0.1-0.1,0.2-0.2,0.3s0,0.2,0,0.3c0.1,0.2,0.2,0.3,0.3,0.3
					c0.1,0.1,0.3,0.1,0.5,0c0.1,0,0.2-0.1,0.3-0.2c0.1-0.1,0.1-0.2,0.1-0.4c0-0.1,0-0.2,0-0.3c0-0.1,0-0.2,0-0.3
					c0-0.2,0.1-0.4,0.2-0.5c0.1-0.1,0.3-0.2,0.5-0.3c0.1,0,0.3,0,0.4,0c0.1,0,0.3,0,0.4,0.1c0.1,0.1,0.3,0.1,0.4,0.2
					c0.1,0.1,0.2,0.2,0.3,0.4c0.1,0.1,0.1,0.3,0.1,0.4c0,0.1,0,0.2,0,0.3l0.2,0.1l0.1,0.2l-1.2,0.3l-0.1-0.2
					c0.1-0.1,0.2-0.1,0.3-0.2c0.1-0.1,0.2-0.2,0.3-0.2c0.1-0.1,0.1-0.2,0.1-0.3c0-0.1,0-0.2,0-0.3c-0.1-0.1-0.2-0.2-0.3-0.3
					c-0.1-0.1-0.3-0.1-0.4,0c-0.1,0-0.2,0.1-0.3,0.2c-0.1,0.1-0.1,0.2-0.1,0.4c0,0.1,0,0.2,0,0.3c0,0.1,0,0.2,0,0.3
					c0,0.2-0.1,0.4-0.2,0.5c-0.1,0.1-0.3,0.2-0.5,0.3c-0.1,0-0.3,0-0.5,0c-0.2,0-0.3-0.1-0.4-0.1c-0.1-0.1-0.3-0.2-0.4-0.3
					C43.7,18.9,43.6,18.7,43.5,18.5z"/>
				<path id="路径_12_" class="st0" d="M44,23.6l-0.2-1.9l0.2,0c0,0,0,0.1,0,0.2c0,0.1,0,0.1,0,0.2c0,0.1,0.1,0.1,0.1,0.1
					c0,0,0.1,0,0.2,0l2.5-0.3c0.1,0,0.1,0,0.1,0c0,0,0.1-0.1,0.1-0.1c0,0,0-0.1,0-0.2c0-0.1,0-0.1,0-0.2l0.2,0l0.2,1.9l-0.2,0
					c0,0,0-0.1,0-0.2c0-0.1,0-0.1-0.1-0.2c0-0.1-0.1-0.1-0.1-0.1c0,0-0.1,0-0.2,0l-2.5,0.3c-0.1,0-0.1,0-0.2,0c0,0-0.1,0.1-0.1,0.1
					c0,0,0,0.1,0,0.2c0,0.1,0,0.1,0,0.2L44,23.6z"/>
				<path id="路径_13_" class="st0" d="M46.1,29.3l0-0.2c0.2,0,0.3-0.1,0.5-0.2c0.2-0.1,0.3-0.2,0.3-0.3c0-0.1,0-0.1,0-0.2
					c0-0.1,0-0.2,0-0.2l0-0.1l-2.7-0.4c-0.1,0-0.1,0-0.2,0c0,0-0.1,0.1-0.1,0.1c0,0,0,0.1-0.1,0.2c0,0.1,0,0.2-0.1,0.2l-0.2,0
					l0.2-2.1l0.2,0c0,0.1,0,0.1,0,0.2c0,0.1,0,0.2,0,0.2c0,0.1,0,0.1,0.1,0.2c0,0,0.1,0,0.2,0.1l2.7,0.4l0-0.1c0-0.1,0-0.1,0-0.2
					c0-0.1,0-0.2,0-0.2c0-0.1-0.1-0.2-0.2-0.4c-0.2-0.1-0.3-0.3-0.4-0.3l0-0.2l1,0.1l-0.4,3.6L46.1,29.3z"/>
				<path id="路径_14_" class="st0" d="M45.9,34.9c0-0.1,0-0.1,0-0.2c0-0.1,0-0.1,0-0.2c0-0.1,0-0.2-0.1-0.2
					c0-0.1-0.1-0.2-0.1-0.2c-0.1-0.2-0.2-0.3-0.4-0.5c-0.1-0.2-0.3-0.4-0.4-0.6c-0.1-0.1-0.2-0.2-0.2-0.3c-0.1-0.1-0.2-0.1-0.4-0.2
					l-0.5-0.2c-0.1,0-0.1,0-0.2,0c0,0-0.1,0-0.1,0.1c0,0-0.1,0.1-0.1,0.2c0,0.1-0.1,0.2-0.1,0.2l-0.2-0.1l0.7-2l0.2,0.1
					c0,0.1,0,0.1-0.1,0.2c0,0.1,0,0.2,0,0.2c0,0.1,0,0.1,0.1,0.2c0,0,0.1,0.1,0.1,0.1l0.6,0.2c0.1,0,0.1,0,0.1,0.1s0.1,0,0.1,0
					c0,0,0.1,0,0.1,0c0.1,0,0.1,0,0.2,0c0.3,0,0.5-0.1,0.7-0.1s0.4-0.1,0.7-0.1c0.1,0,0.2-0.1,0.3-0.1c0.1,0,0.1-0.1,0.2-0.1
					c0,0,0.1-0.1,0.1-0.1c0-0.1,0.1-0.1,0.1-0.2l0.2,0.1l-0.7,2l-0.2-0.1c0.1-0.2,0.1-0.3,0.1-0.4c0-0.1,0-0.1,0-0.1
					c0,0-0.1,0-0.1,0c-0.1,0-0.2,0-0.3,0c-0.1,0-0.3,0-0.5,0.1c-0.2,0-0.5,0.1-0.8,0.1c0.4,0.5,0.6,0.9,0.7,1.1
					C45.9,33.9,46,34,46,34c0.1,0,0.1,0,0.2-0.1c0.1-0.1,0.1-0.2,0.2-0.3l0.2,0.1L46.1,35L45.9,34.9z"/>
				<path id="形状_7_" class="st0" d="M41.9,25c0,9.3-7.6,16.9-16.9,16.9c-9.3,0-16.9-7.6-16.9-16.9c0-9.3,7.6-16.9,16.9-16.9
					C34.3,8.1,41.9,15.7,41.9,25z M22.5,10.9c-0.7,0-1.3,0.6-1.3,1.3v1.7c-1.4,0.3-2.8,0.8-4.2,1.6c-1.6,0.8-3.2,1.9-4.6,3
					c-0.5,0.5-0.6,1.3-0.1,1.8c0.5,0.5,1.3,0.6,1.8,0.1c2.2-1.9,4.7-3.2,7.1-3.9v3c-1.7,0.5-3.3,1.5-4.9,2.8
					c-1.8,1.5-3.4,3.4-4.9,5.6c-0.1,0.2-0.2,0.5-0.2,0.7c0,0.4,0.2,0.8,0.6,1.1c0.6,0.4,1.4,0.2,1.8-0.4c1.3-2.1,2.8-3.8,4.4-5
					c1.6-1.3,3.4-2.2,4.9-2.5c0.7-0.1,1-0.8,1-1.2c0-0.1,0-0.3,0-0.7c0-2,0-7.6,0-7.6v0C23.9,11.5,23.3,10.9,22.5,10.9z M26.1,12.2
					L26.1,12.2c0,0,0,5.7,0,7.7c0,0.4,0,0.6,0,0.7c0,0.4,0.3,1.1,1,1.2c1.5,0.3,3.3,1.2,4.9,2.5c1.6,1.3,3,3,4.4,5
					c0.4,0.6,1.2,0.8,1.8,0.4c0.4-0.2,0.6-0.7,0.6-1.1c0-0.2-0.1-0.5-0.2-0.7c-1.5-2.3-3.1-4.2-4.9-5.6c-1.6-1.3-3.2-2.2-4.9-2.8v-3
					c2.4,0.7,4.9,2,7.1,3.9c0.5,0.5,1.4,0.4,1.8-0.1c0.5-0.5,0.4-1.4-0.1-1.8c-1.4-1.2-3-2.2-4.6-3c-1.4-0.7-2.8-1.2-4.2-1.6v-1.7
					c0-0.7-0.6-1.3-1.3-1.3C26.7,10.9,26.1,11.5,26.1,12.2z M35.5,33.6c-0.6-1.3-1.2-2.5-1.9-3.6c-0.7-1.1-1.5-2.1-2.4-2.9
					c-0.9-0.9-1.9-1.5-2.9-2c-0.7-0.3-1.3-0.5-2-0.6v-0.8c0-0.7-0.6-1.3-1.3-1.3c-0.7,0-1.3,0.6-1.3,1.3v0.8c-0.7,0.1-1.4,0.3-2,0.6
					c-1,0.5-2,1.1-2.9,2c-0.8,0.8-1.6,1.8-2.4,2.9c-0.7,1.1-1.3,2.3-1.9,3.6c-0.3,0.7,0,1.4,0.7,1.7c0.7,0.3,1.4,0,1.7-0.7
					c1-2.4,2.3-4.3,3.7-5.6c1-1,2-1.6,3.1-1.9v2.1c0,0.7-0.5,1-0.8,1.2c-0.1,0-0.2,0.1-0.3,0.2c-0.5,0.3-1.1,0.8-1.6,1.5
					c-1,1.2-1.7,2.9-2.1,4.7c-0.2,0.7,0.3,1.4,1,1.5c0.7,0.1,1.4-0.3,1.5-1c0.3-1.4,0.9-2.8,1.6-3.7c0.4-0.5,1.1-1.3,2-1.3
					c0.9,0,1.6,0.8,2,1.3c0.7,0.9,1.3,2.2,1.6,3.7c0.1,0.7,0.8,1.1,1.5,1c0.7-0.1,1.1-0.8,1-1.5C30.8,35,30,33.3,29,32
					c-0.5-0.7-1.1-1.2-1.6-1.5c-0.1,0-0.2-0.1-0.3-0.2c-0.2-0.1-0.8-0.4-0.8-1.2v-2.1c1.1,0.3,2.1,0.9,3.1,1.9
					c1.4,1.3,2.7,3.3,3.7,5.6c0.3,0.7,1,1,1.7,0.7C35.5,35,35.8,34.2,35.5,33.6z"/>
			</g>
			<text transform="matrix(1 0 0 1 60 21)" class="st1 st2 st3">北京大学可视化与可视分析实验室</text>
			<text transform="matrix(1 0 0 1 61 48)" class="st1 st4 st3">PKU Visualization and Visual Analytics Group</text>
		</g>
	</g>
</g>
</svg>
