<?xml version="1.0" encoding="UTF-8"?>
<svg width="270px" height="270px" viewBox="0 0 270 270" version="1.1" xmlns="http://www.w3.org/2000/svg" xmlns:xlink="http://www.w3.org/1999/xlink">
    <!-- Generator: Sketch 54 (76480) - https://sketchapp.com -->
    <title>编组 13</title>
    <desc>Created with Sketch.</desc>
    <defs>
        <linearGradient x1="100%" y1="100%" x2="6.08845117%" y2="17.1203136%" id="linearGradient-1">
            <stop stop-color="#F37867" offset="0%"></stop>
            <stop stop-color="#FDC79F" offset="100%"></stop>
        </linearGradient>
        <linearGradient x1="68.773743%" y1="63.2021022%" x2="0.247831093%" y2="-7.35531063%" id="linearGradient-2">
            <stop stop-color="#F37867" offset="0%"></stop>
            <stop stop-color="#FDC79F" offset="100%"></stop>
        </linearGradient>
        <rect id="path-3" x="0.227873017" y="0" width="269.330025" height="270" rx="20"></rect>
        <linearGradient x1="80.9713454%" y1="57.490972%" x2="-4.33120614%" y2="25.6586767%" id="linearGradient-5">
            <stop stop-color="#F37867" offset="0%"></stop>
            <stop stop-color="#FDC79F" offset="100%"></stop>
        </linearGradient>
        <filter x="-32.5%" y="-32.5%" width="165.1%" height="165.1%" filterUnits="objectBoundingBox" id="filter-6">
            <feGaussianBlur stdDeviation="9" in="SourceGraphic"></feGaussianBlur>
        </filter>
        <linearGradient x1="50%" y1="50%" x2="22.7330521%" y2="-19.3556318%" id="linearGradient-7">
            <stop stop-color="#F37867" offset="0%"></stop>
            <stop stop-color="#FDC79F" offset="100%"></stop>
        </linearGradient>
    </defs>
    <g id="页面-1" stroke="none" stroke-width="1" fill="none" fill-rule="evenodd">
        <g id="导航页" transform="translate(-384.000000, -241.000000)">
            <g id="编组-13" transform="translate(384.000000, 241.000000)">
                <g id="编组-4">
                    <g id="编组-22">
                        <g id="编组-21">
                            <g id="路径-14">
                                <mask id="mask-4" fill="white">
                                    <use xlink:href="#path-3"></use>
                                </mask>
                                <use id="蒙版" fill="url(#linearGradient-2)" xlink:href="#path-3"></use>
                                <path d="M-11,149.813467 C19.3938241,143.978503 58.7532923,152.22436 107.078405,174.551039 C155.403517,196.877718 205.723649,194.873608 258.038801,168.538709 L257.888103,281.925538 L-9.95873138,276.038741 L-11,149.813467 Z" fill="url(#linearGradient-5)" mask="url(#mask-4)"></path>
                            </g>
                        </g>
                    </g>
                    <circle id="椭圆形" fill="#FAA889" cx="57.5" cy="134.5" r="6.5"></circle>
                </g>
                <text id="全国各地较前日新增态势" font-family="PingFangSC-Semibold, PingFang SC" font-size="16" font-weight="500" fill="#FFFFFF">
                    <tspan x="43" y="198">全国各地较前日新增态势</tspan>
                </text>
                <text id="疫情方寸间" font-family="PingFangSC-Medium, PingFang SC" font-size="36" font-weight="400" fill="#FFFFFF">
                    <tspan x="44" y="167">疫情方寸间</tspan>
                </text>
                <g id="编组-15" transform="translate(94.000000, 43.000000)">
                    <circle id="椭圆形" fill="#FB6A4C" filter="url(#filter-6)" cx="41.5" cy="41.5" r="41.5"></circle>
                    <circle id="椭圆形" fill="#FFFFFF" cx="41.5" cy="41.5" r="41.5"></circle>
                    <g id="编组-8" transform="translate(18.000000, 19.000000)" fill="url(#linearGradient-7)">
                        <path d="M5.60889989,3.74508876 C4.48711991,3.74508876 3.73926659,4.49382503 3.73926659,5.61692944 L3.73926659,14.9775402 C3.73926659,16.1006446 4.48711991,16.8493809 5.60889989,16.8493809 L14.9584721,16.8493809 C16.0802521,16.8493809 16.8281054,16.1006446 16.8281054,14.9775402 L16.8281054,5.61692944 C16.8281054,4.49382503 16.0802521,3.74508876 14.9584721,3.74508876 L5.60889989,3.74508876 Z M5.60889989,0 L14.9584721,0 C18.1382544,0 20.5687777,2.43339288 20.5687777,5.61692944 L20.5687777,14.9775402 C20.5687777,18.1596694 18.1382544,20.5944697 14.9584721,20.5944697 L5.60889989,20.5944697 C2.43052328,20.5944697 0,18.1596694 0,14.9775402 L0,5.61692944 C0,2.43480028 2.43192902,0 5.60889989,0 Z M5.60889989,28.0846472 C4.48711991,28.0846472 3.73926659,28.8319761 3.73926659,29.9564879 L3.73926659,39.3128765 C3.73926659,40.4373883 4.48711991,41.187532 5.60889989,41.187532 L14.9584721,41.187532 C16.0802521,41.187532 16.8281054,40.4373883 16.8281054,39.3128765 L16.8281054,29.9564879 C16.8281054,28.8319761 16.0802521,28.0846472 14.9584721,28.0846472 L5.60889989,28.0846472 L5.60889989,28.0846472 Z M5.60889989,24.338151 L14.9584721,24.338151 C18.1382544,24.338151 20.5687777,26.7729513 20.5687777,29.9564879 L20.5687777,39.3128765 C20.5687777,42.4992278 18.1382544,44.9312133 14.9584721,44.9312133 L5.60889989,44.9312133 C2.43052328,44.9312133 0,42.4978204 0,39.3128765 L0,29.9564879 C0,26.7743587 2.43192902,24.338151 5.60889989,24.338151 L5.60889989,24.338151 Z M29.9197557,3.74508876 C28.79657,3.74508876 28.0501224,4.49382503 28.0501224,5.61692944 L28.0501224,14.9775402 C28.0501224,16.1006446 28.79657,16.8493809 29.9197557,16.8493809 L39.2679222,16.8493809 C40.3911079,16.8493809 41.1375555,16.1006446 41.1375555,14.9775402 L41.1375555,5.61692944 C41.1375555,4.49382503 40.3911079,3.74508876 39.2679222,3.74508876 L29.9197557,3.74508876 Z M29.9197557,0 L39.2679222,0 C42.4477045,0 44.876822,2.43339288 44.876822,5.61692944 L44.876822,14.9775402 C44.876822,18.1596694 42.4462988,20.5944697 39.2679222,20.5944697 L29.9197557,20.5944697 C26.7399733,20.5944697 24.3108558,18.1596694 24.3108558,14.9775402 L24.3108558,5.61692944 C24.3108558,2.43480028 26.7399733,0 29.9197557,0 L29.9197557,0 Z M25.6181934,31.2118878 L31.2270932,25.5949584 C33.1346815,23.6851179 36.0515906,23.6879327 37.9591789,25.5963658 L43.5680787,31.2118878 C45.4770727,33.1231356 45.4770727,36.0420812 43.5694845,37.9519216 L37.9591789,43.5688511 C36.0529963,45.4772841 33.1360872,45.4772841 31.2270932,43.5674437 L25.6181934,37.9519216 C23.7120108,36.0420812 23.7106051,33.1231356 25.6181934,31.2118878 L25.6181934,31.2118878 Z" id="形状"></path>
                    </g>
                </g>
            </g>
        </g>
    </g>
</svg>