<?xml version="1.0" encoding="UTF-8"?>
<svg width="36px" height="50px" viewBox="0 0 36 50" version="1.1" xmlns="http://www.w3.org/2000/svg" xmlns:xlink="http://www.w3.org/1999/xlink">
    <!-- Generator: Sketch 54 (76480) - https://sketchapp.com -->
    <title>编组 7</title>
    <desc>Created with Sketch.</desc>
    <defs>
        <filter x="-46.2%" y="-150.0%" width="192.3%" height="400.0%" filterUnits="objectBoundingBox" id="filter-1">
            <feGaussianBlur stdDeviation="2" in="SourceGraphic"></feGaussianBlur>
        </filter>
    </defs>
    <g id="页面-1" stroke="none" stroke-width="1" fill="none" fill-rule="evenodd">
        <g id="画板" transform="translate(-601.000000, -429.000000)">
            <g id="编组-6" transform="translate(601.000000, 429.000000)">
                <g id="编组-7">
                    <rect id="矩形" fill="#FFFFFF" x="15" y="10" width="6" height="13" rx="0.8"></rect>
                    <path d="M35.5350592,13.4005263 C32.7554458,23.6396842 18,36 18,36 C18,36 3.24455416,23.6396842 0.4649408,13.4005263 C0.157043946,12.389043 0.00217080261,11.337196 0.00546141619,10.2798947 C-0.174540812,4.7936842 4.11709127,0.195157898 9.60242234,0 C13.5076344,0.0543326042 16.9139516,2.66595136 17.980105,6.4231579 C19.086645,2.6668421 22.4924767,0.0549473555 26.3975777,0 C31.8829087,0.195157898 36.1745408,4.7936842 35.9945386,10.2798947 C35.9978292,11.337196 35.8429561,12.389043 35.5350592,13.4005263 L35.5350592,13.4005263 Z M23.9552316,14.1432632 L20.5711897,14.1432632 L20.5711897,10.7592632 C20.5711897,10.4976546 20.3591115,10.2855789 20.0974997,10.2855789 L15.9025003,10.2855789 C15.6408885,10.2855789 15.4288103,10.4976546 15.4288103,10.7592632 L15.4288103,14.1432632 L12.0447684,14.1432632 C11.7831566,14.1432632 11.5710783,14.3553388 11.5710783,14.6169474 L11.5710783,18.8118947 C11.5710783,19.0735033 11.7831566,19.2855789 12.0447684,19.2855789 L15.4288103,19.2855789 L15.4288103,22.1958947 C15.4288103,22.4471525 15.5286233,22.6881193 15.7062915,22.8657854 C15.8839597,23.0434514 16.1249296,23.1432632 16.3761904,23.1432632 L19.6238096,23.1432632 C19.8750704,23.1432632 20.1160403,23.0434514 20.2937085,22.8657854 C20.4713767,22.6881193 20.5711897,22.4471525 20.5711897,22.1958947 L20.5711897,19.2855789 L23.9552316,19.2855789 C24.2168434,19.2855789 24.4289217,19.0735033 24.4289217,18.8118947 L24.4289217,14.6178947 C24.4289217,14.3562862 24.2168434,14.1442105 23.9552316,14.1442105 L23.9552316,14.1432632 Z" id="形状" fill="#DE5E5B" fill-rule="nonzero"></path>
                    <rect id="矩形" fill="#FFFFFF" transform="translate(18.000000, 16.500000) rotate(-270.000000) translate(-18.000000, -16.500000) " x="15" y="10" width="6" height="13" rx="0.8"></rect>
                    <ellipse id="椭圆形" fill="#076E7B" opacity="0.796758743" filter="url(#filter-1)" cx="18.5" cy="43" rx="6.5" ry="2"></ellipse>
                </g>
            </g>
        </g>
    </g>
</svg>