<?xml version="1.0" encoding="UTF-8"?>
<svg width="663px" height="54px" viewBox="0 0 663 54" version="1.1" xmlns="http://www.w3.org/2000/svg" xmlns:xlink="http://www.w3.org/1999/xlink">
    <!-- Generator: Sketch 54 (76480) - https://sketchapp.com -->
    <title>新视角看数据，多维度懂疫情</title>
    <desc>Created with Sketch.</desc>
    <g id="页面-1" stroke="none" stroke-width="1" fill="none" fill-rule="evenodd">
        <g id="小程序入口2.25" transform="translate(-39.000000, -300.000000)" fill="#FFFFFF" fill-rule="nonzero">
            <g id="编组-11" transform="translate(-1.000000, 185.000000)">
                <path d="M69.75,119.45 L69.1,123.65 L46.55,123.65 L47.15,119.45 L55.15,119.45 L54.15,115.6 L59.85,115.6 L61,119.45 L69.75,119.45 Z M77,123.15 C76.733332,125.616679 76.3500025,128.483317 75.85,131.75 L89.6,131.75 L88.95,136.05 L84.7,136.05 L81.35,160.6 L76.05,160.6 L79.5,136.05 L75.15,136.05 C74.4499965,139.916686 73.5583388,143.999978 72.475,148.3 C71.3916612,152.600021 70.1333405,156.699981 68.7,160.6 L62.95,160.6 C65.3833455,154.466636 67.3499925,148.058367 68.85,141.375 C70.3500075,134.691633 71.43333,127.383373 72.1,119.45 C77.6000275,118.683329 83.7332995,117.550007 90.5,116.05 L89.4,121.2 C85.6999815,121.86667 81.5666895,122.516664 77,123.15 Z M66.55,144.2 L57.9,144.2 L55.75,160.6 L48.3,160.6 L47.1,156.15 L51.05,156.15 L52.7,144.2 L43.8,144.2 L44.35,140 L53.25,140 L53.8,136.15 L44.05,136.15 L44.65,131.95 L56.95,131.95 C58.616675,129.583322 60.0666605,127.233345 61.3,124.9 L67,124.9 C65.4999925,127.500013 64.016674,129.849989 62.55,131.95 L68.95,131.95 L68.35,136.15 L59,136.15 L58.45,140 L67.15,140 L66.55,144.2 Z M50.4,130.7 C49.4333285,128.333322 48.716669,126.400008 48.25,124.9 L53.8,124.9 C54.5000035,126.700009 55.349995,128.633323 56.35,130.7 L50.4,130.7 Z M45.8,146.55 L50.7,146.55 C49.1999925,150.016684 47.4333435,153.383317 45.4,156.65 L40.05,156.65 C42.4166785,153.049982 44.333326,149.683349 45.8,146.55 Z M63.55,146.55 C63.683334,149.583348 63.983331,152.799983 64.45,156.2 L59.5,156.2 C59.2666655,152.933317 59.1666665,149.716682 59.2,146.55 L63.55,146.55 Z M106.341667,136.8 L105.841667,137.3 L102.541667,160.65 L97.141667,160.65 L99.791667,142.25 C97.5583225,143.783341 95.175013,145.083328 92.641667,146.15 L94.191667,140.55 C97.3583495,138.649991 100.183321,136.500012 102.666667,134.1 C105.150013,131.699988 106.991661,129.316678 108.191667,126.95 C108.225,126.849999 108.258333,126.716667 108.291667,126.55 C108.325001,126.383332 108.125002,126.3 107.691667,126.3 L96.441667,126.3 L97.091667,122.1 L102.641667,122.1 C102.274998,120.499992 101.908335,118.36668 101.541667,115.7 L106.991667,115.7 C107.358335,118.166679 107.791664,120.299991 108.291667,122.1 L111.991667,122.1 C112.825005,122.1 113.391666,122.199999 113.691667,122.4 C113.991669,122.600001 114.125,123.049996 114.091667,123.75 C113.991667,124.783338 113.658337,125.983327 113.091667,127.35 C112.524998,128.750007 111.65834,130.274992 110.491667,131.925 C109.324994,133.575008 107.991674,135.166659 106.491667,136.7 L110.641667,136.7 C111.275003,140.300018 112.124995,143.833316 113.191667,147.3 L107.991667,147.3 C107.25833,143.599982 106.708336,140.100016 106.341667,136.8 Z M137.091667,116.9 C138.191673,116.9 138.933332,117.133331 139.316667,117.6 C139.700002,118.066669 139.808335,118.916661 139.641667,120.15 L135.991667,145.85 L130.841667,145.85 L134.191667,121.75 C134.291668,121.249998 134.075003,121 133.541667,121 L121.991667,121 L118.491667,145.75 L113.441667,145.75 L117.491667,116.9 L137.091667,116.9 Z M129.591667,146.1 L128.191667,156.4 L137.491667,156.4 L135.591667,160.65 L122.241667,160.65 L123.941667,149.95 C122.774994,151.916676 121.275009,153.866657 119.441667,155.8 C117.608324,157.733343 115.758343,159.349993 113.891667,160.65 L106.591667,160.65 C110.025018,158.516656 113.099987,155.991681 115.816667,153.075 C118.533347,150.158319 120.474995,147.183348 121.641667,144.15 C122.34167,142.283324 122.983331,139.933347 123.566667,137.1 C124.150003,134.266652 124.724998,129.80003 125.291667,123.7 L130.391667,123.7 C129.891664,128.500024 129.300004,132.733315 128.616667,136.4 C127.93333,140.066685 127.00834,143.299986 125.841667,146.1 L129.591667,146.1 Z M185.183334,127.1 C186.38334,127.1 187.216665,127.374997 187.683334,127.925 C188.150003,128.475003 188.283335,129.433326 188.083334,130.8 L184.133334,160.6 L173.433334,160.6 L172.133334,156.3 L179.233334,156.3 L180.083334,150.05 L169.433334,150.05 L168.083334,159.95 L162.633334,159.95 L164.033334,150.05 L153.783334,150.05 C152.549995,154.650023 151.366673,158.166654 150.233334,160.6 L144.033334,160.6 C144.766671,159.299993 145.549997,157.60001 146.383334,155.5 C147.216672,153.39999 147.999997,151.000013 148.733334,148.3 C149.466671,145.599986 150.016665,143.233343 150.383334,141.2 C150.783336,139.099989 151.233332,135.433359 151.733334,130.2 C150.099992,131.100005 148.40001,131.949996 146.633334,132.75 L148.033334,126.4 C150.533346,125.233328 152.87499,123.683343 155.058334,121.75 C157.241678,119.816657 158.899995,117.766678 160.033334,115.6 L166.183334,115.6 C165.583331,116.733339 164.933337,117.833328 164.233334,118.9 L178.233334,118.9 C179.466674,118.9 180.083334,119.266663 180.083334,120 C180.083334,120.800004 179.716671,121.749994 178.983334,122.85 C178.283331,123.983339 177.050009,125.399991 175.283334,127.1 L185.183334,127.1 Z M171.583334,122.8 L161.133334,122.8 C159.66666,124.366674 158.083342,125.799993 156.383334,127.1 L168.533334,127.1 C169.200004,126.466663 169.891664,125.758337 170.608334,124.975 C171.325004,124.191663 171.8,123.600002 172.033334,123.2 C172.066667,123.133333 172.091667,123.05 172.108334,122.95 C172.125001,122.849999 171.950002,122.8 171.583334,122.8 Z M156.933334,131.3 L156.433334,136.3 L165.933334,136.3 L166.633334,131.3 L156.933334,131.3 Z M182.483334,132 C182.583335,131.533331 182.36667,131.3 181.833334,131.3 L171.933334,131.3 L171.283334,136.3 L181.883334,136.3 L182.483334,132 Z M154.833334,145.85 L164.583334,145.85 L165.333334,140.5 L155.883334,140.5 L155.683334,141.65 C155.516667,142.650005 155.233336,144.049991 154.833334,145.85 Z M169.983334,145.85 L180.633334,145.85 L181.333334,140.5 L170.683334,140.5 L169.983334,145.85 Z M214.625001,134.95 C213.624996,136.050005 212.675005,137.033329 211.775001,137.9 L234.525001,137.9 C235.858341,137.9 236.724999,138.099998 237.125001,138.5 C237.525003,138.900002 237.625002,139.699994 237.425001,140.9 L234.775001,160.65 L202.125001,160.65 L204.775001,143.85 L202.825001,145.35 L194.625001,145.35 C199.125023,142.58332 203.458314,139.116688 207.625001,134.95 L197.675001,134.95 L198.225001,131 L211.275001,131 C212.175005,130.033328 212.991664,129.000005 213.725001,127.9 L201.475001,127.9 L202.075001,123.9 L216.075001,123.9 C216.575003,122.833328 216.941666,121.950003 217.175001,121.25 L201.875001,121.75 L202.525001,117.35 C218.291746,117.016665 231.174951,116.450004 241.175001,115.65 L240.525001,120.1 C236.591648,120.366668 230.775039,120.683331 223.075001,121.05 L221.925001,123.9 L239.775001,123.9 L239.175001,127.9 L219.925001,127.9 C219.358332,128.833338 218.658339,129.866661 217.825001,131 L242.125001,131 L241.575001,134.95 L214.625001,134.95 Z M231.475001,142.25 C231.508334,141.849998 231.325003,141.65 230.925001,141.65 L210.575001,141.65 L210.225001,144.1 L231.225001,144.1 L231.475001,142.25 Z M209.725001,147.55 L209.325001,150.4 L230.375001,150.4 L230.775001,147.55 L209.725001,147.55 Z M208.375001,156.8 L229.525001,156.8 L229.925001,153.85 L208.825001,153.85 L208.375001,156.8 Z M293.816668,129.35 L290.366668,129.35 C289.166662,135.216696 286.883352,141.233303 283.516668,147.4 C285.383344,152.000023 287.583322,156.416646 290.116668,160.65 L283.966668,160.65 C282.999997,158.916658 281.783342,156.200018 280.316668,152.5 C278.283324,155.366681 275.983347,158.083321 273.416668,160.65 L266.166668,160.65 L267.166668,159.7 L261.266668,159.7 L257.566668,157.1 C255.099989,158.700008 253.216675,159.88333 251.916668,160.65 L243.716668,160.65 C248.183357,157.98332 251.54999,155.900008 253.816668,154.4 L248.966668,150.75 L252.066668,146.45 L246.716668,146.45 L247.266668,142.45 L254.816668,142.45 C255.616672,141.283327 256.116667,140.516668 256.316668,140.15 L261.966668,140.15 L260.466668,142.45 L268.766668,142.45 C269.966674,142.45 270.566668,142.833329 270.566668,143.6 C270.566668,144.566671 270.408336,145.458329 270.091668,146.275 C269.775,147.091671 269.250005,147.899996 268.516668,148.7 C266.083323,150.80001 263.816679,152.633326 261.716668,154.2 L268.216668,158.65 C269.916676,156.949992 271.683326,155.000011 273.516668,152.8 C275.35001,150.599989 276.899995,148.550009 278.166668,146.65 C277.033329,143.31665 276.066672,140.100015 275.266668,137 L272.016668,137 L273.416668,139.85 L267.916668,139.85 C266.716662,136.783318 265.600007,133.733349 264.566668,130.7 L269.066668,130.7 C269.700004,132.133341 270.533329,133.916656 271.566668,136.05 C275.200019,128.883297 278.09999,122.083365 280.266668,115.65 L285.416668,115.65 C284.283329,118.916683 283.13334,121.983319 281.966668,124.85 L294.316668,124.85 L293.816668,129.35 Z M257.866668,139 L259.316668,129.2 L249.466668,129.2 L250.066668,125.05 L259.916668,125.05 L261.316668,115.65 L266.216668,115.65 L264.866668,125.05 L274.866668,125.05 L274.216668,129.2 L264.316668,129.2 L262.916668,139 L257.866668,139 Z M259.516668,124.05 L254.466668,124.05 C253.099994,121.083319 251.983339,118.750009 251.116668,117.05 L255.966668,117.05 L259.516668,124.05 Z M270.866668,124.05 L265.716668,124.05 C267.150009,122.016657 268.566661,119.683346 269.966668,117.05 L274.966668,117.05 C273.566661,119.583346 272.200008,121.916656 270.866668,124.05 Z M281.316668,141.2 C283.450012,136.333309 284.816665,132.383349 285.416668,129.35 L280.066668,129.35 L277.066668,135.85 L279.816668,135.85 C280.283337,137.716676 280.783332,139.499991 281.316668,141.2 Z M258.566668,130.7 C257.233328,133.433347 255.450013,136.549982 253.216668,140.05 L247.616668,140.05 C250.183348,136.71665 252.26666,133.600014 253.866668,130.7 L258.566668,130.7 Z M255.366668,149.75 L258.016668,151.6 C260.150012,150.099992 262.199992,148.566675 264.166668,147 C264.300002,146.866666 264.375001,146.741667 264.391668,146.625 C264.408335,146.508333 264.333335,146.45 264.166668,146.45 L257.716668,146.45 L255.366668,149.75 Z M313.858335,140.85 L308.858335,142.65 L306.308335,160.65 L297.408335,160.65 L296.058335,156.4 L301.658335,156.4 L303.308335,144.65 L299.608335,145.9 L297.558335,141.65 L304.058335,139.7 L305.458335,129.55 L300.108335,129.55 L300.758335,125.1 L306.108335,125.1 L307.458335,115.65 L312.708335,115.65 L311.358335,125.1 L316.308335,125.1 L315.658335,129.55 L310.708335,129.55 L309.558335,137.9 L314.558335,136.25 L313.858335,140.85 Z M343.508335,130.05 L334.808335,130.05 L334.108335,135.2 L343.958335,135.2 L343.358335,139.4 L333.558335,139.4 L332.908335,144.55 L338.258335,144.55 C339.425007,144.55 340.191666,144.766664 340.558335,145.2 C340.925004,145.633335 341.025003,146.433328 340.858335,147.6 L339.058335,160.65 L317.858335,160.65 L320.208335,144.55 L327.758335,144.55 L328.458335,139.4 L320.558335,139.4 C318.924993,147.000038 316.541684,154.083301 313.408335,160.65 L307.558335,160.65 C309.458344,157.183316 311.074995,153.616685 312.408335,149.95 C313.741675,146.283315 314.899997,142.233356 315.883335,137.8 C316.866673,133.366645 317.924996,126.283382 319.058335,116.55 L342.308335,116.55 C343.175006,116.55 343.883332,116.724998 344.433335,117.075 C344.983338,117.425002 345.175003,118.216661 345.008335,119.45 L343.508335,130.05 Z M338.958335,120.65 L323.608335,120.65 L322.958335,125.95 L339.058335,125.95 L339.708335,121.35 C339.808335,120.883331 339.558338,120.65 338.958335,120.65 Z M329.008335,135.2 L329.708335,130.05 L322.358335,130.05 L321.458335,135.2 L329.008335,135.2 Z M335.508335,149.05 C335.541668,148.749999 335.39167,148.6 335.058335,148.6 L324.758335,148.6 L323.658335,156.55 L334.408335,156.55 L335.508335,149.05 Z M351.450002,152.55 L358.450002,152.55 L357.100002,159.6 L352.500002,168.75 L348.250002,166.95 L352.650002,159.6 L350.150002,159.6 L351.450002,152.55 Z M442.791669,123.7 C442.358334,124.733339 441.508342,125.799994 440.241669,126.9 C436.408317,130.266683 431.08337,133.058322 424.266669,135.275 C417.449968,137.491678 409.99171,139.066662 401.891669,140 L403.591669,134.55 C408.45836,134.149998 413.324978,133.333339 418.191669,132.1 C417.458332,130.833327 416.475009,128.900013 415.241669,126.3 L421.591669,126.3 C422.225006,127.766674 422.908332,129.183326 423.641669,130.55 C428.808362,128.816658 432.741656,126.766679 435.441669,124.4 C435.675004,124.199999 435.725003,124.058334 435.591669,123.975 C435.458335,123.891666 435.241671,123.85 434.941669,123.85 L419.591669,123.85 C415.724983,126.150012 411.341694,127.899994 406.441669,129.1 L407.991669,123.65 C409.658344,123.216665 411.324994,122.658337 412.991669,121.975 C414.658344,121.291663 416.091663,120.566671 417.291669,119.8 C417.625004,119.566665 418.258331,119.083337 419.191669,118.35 C420.125007,117.616663 421.058331,116.700006 421.991669,115.6 L428.391669,115.6 C427.791666,116.600005 426.741676,117.933325 425.241669,119.6 L440.941669,119.6 C441.575006,119.6 442.116667,119.691666 442.566669,119.875 C443.016671,120.058334 443.241669,120.48333 443.241669,121.15 C443.241669,122.150005 443.09167,122.999997 442.791669,123.7 Z M441.791669,138.35 C442.65834,138.35 443.275001,138.466666 443.641669,138.7 C444.008338,138.933335 444.191669,139.316664 444.191669,139.85 C444.191669,140.916672 444.025004,141.78333 443.691669,142.45 C443.091666,143.616672 442.225008,144.733328 441.091669,145.8 C437.691652,148.933349 434.150021,151.433324 430.466669,153.3 C426.783317,155.166676 422.391694,156.724994 417.291669,157.975 C412.191644,159.225006 405.87504,160.149997 398.341669,160.75 L400.141669,155.3 C406.875036,154.866665 413.124974,153.850008 418.891669,152.25 C418.124999,150.883327 417.075009,148.800014 415.741669,146 L422.191669,146 C422.625004,147.066672 423.324997,148.566657 424.291669,150.5 C426.558347,149.599996 428.708326,148.50834 430.741669,147.225 C432.775013,145.94166 434.541662,144.58334 436.041669,143.15 C436.475005,142.783332 436.291673,142.6 435.491669,142.6 L421.691669,142.6 C417.391647,145.533348 411.658371,147.683326 404.491669,149.05 L406.191669,143.5 C408.025012,143.133331 409.849993,142.675003 411.666669,142.125 C413.483345,141.574997 415.091662,140.933337 416.491669,140.2 C419.35835,138.699993 421.35833,137.28334 422.491669,135.95 L428.841669,135.95 C428.275,136.816671 427.641673,137.616663 426.941669,138.35 L441.791669,138.35 Z M497.283336,127.9 L489.483336,127.9 L488.683336,134.15 L495.233336,134.15 L494.633336,138.3 L488.133336,138.3 L487.233336,144.95 L493.733336,144.95 L493.133336,149.1 L486.733336,149.1 L485.783336,156.35 L494.383336,156.35 L493.833336,160.6 L468.233336,160.6 L472.333336,131.15 C471.299998,132.050005 470.166676,132.899996 468.933336,133.7 L469.233336,129.95 C466.066654,134.71669 463.03335,138.833316 460.133336,142.3 C463.066684,142.066665 465.783324,141.766668 468.283336,141.4 L467.633336,145.5 C463.299981,146.000002 457.633371,146.499998 450.633336,147 C454.66669,142.299977 457.94999,138.133352 460.483336,134.5 L452.183336,134.5 C454.016679,131.699986 455.849994,128.60835 457.683336,125.225 C459.516679,121.84165 461.099996,118.633348 462.433336,115.6 L468.233336,115.6 C465.69999,120.800026 462.933351,125.766643 459.933336,130.5 L463.183336,130.5 L465.383336,126.85 L469.733336,126.85 C471.266677,125.61666 472.758329,123.916678 474.208336,121.75 C475.658343,119.583322 476.65,117.533343 477.183336,115.6 L482.733336,115.6 C481.999999,118.166679 480.683346,120.883319 478.783336,123.75 L485.233336,123.75 L484.383336,115.6 L489.533336,115.6 C489.733337,118.300014 490.066667,121.016653 490.533336,123.75 L497.933336,123.75 L497.283336,127.9 Z M483.433336,134.15 L484.233336,127.9 L478.083336,127.9 L477.233336,134.15 L483.433336,134.15 Z M481.983336,144.95 L482.883336,138.3 L476.683336,138.3 L475.783336,144.95 L481.983336,144.95 Z M449.083336,159.25 L449.833336,154.25 C452.63335,153.449996 455.63332,152.533339 458.833336,151.5 C462.033352,150.466661 464.916657,149.450005 467.483336,148.45 L466.683336,153.4 C461.683311,155.366676 455.816703,157.316657 449.083336,159.25 Z M480.533336,156.35 L481.483336,149.1 L475.233336,149.1 L474.283336,156.35 L480.533336,156.35 Z M548.775003,123.25 L541.575003,123.25 L541.025003,127.05 L548.175003,127.05 L547.675003,131.25 L540.475003,131.25 L539.325003,139.5 L519.575003,139.5 L520.675003,131.25 L513.925003,131.25 L514.325003,127.05 L521.275003,127.05 L521.775003,123.25 L513.425003,123.25 C512.825,129.583365 512.125007,135.266641 511.325003,140.3 C510.224998,147.266702 508.30835,154.0333 505.575003,160.6 L499.325003,160.6 C500.658343,157.766652 501.924997,154.466685 503.125003,150.7 C504.325009,146.933314 505.208334,143.300017 505.775003,139.8 C506.975009,132.266629 507.775001,125.350032 508.175003,119.05 L525.925003,119.05 C525.591668,117.883327 525.291671,116.733339 525.025003,115.6 L531.375003,115.6 L532.425003,119.05 L549.375003,119.05 L548.775003,123.25 Z M535.525003,127.05 L536.075003,123.25 L527.275003,123.25 L526.775003,127.05 L535.525003,127.05 Z M534.325003,135.3 L534.925003,131.25 L526.225003,131.25 L525.675003,135.3 L534.325003,135.3 Z M541.925003,147.7 C539.458324,149.766677 536.475021,151.849989 532.975003,153.95 C537.175024,156.350012 541.391649,158.566656 545.625003,160.6 L535.225003,160.6 C533.424994,159.599995 531.125017,158.250009 528.325003,156.55 C525.791657,157.850007 522.941686,159.199993 519.775003,160.6 L507.525003,160.6 C514.058369,158.199988 519.524981,155.933344 523.925003,153.8 C520.458319,151.533322 517.458349,149.466676 514.925003,147.6 L523.125003,147.6 C524.758345,148.833339 526.591659,150.066661 528.625003,151.3 C531.425017,149.699992 533.774994,148.133341 535.675003,146.6 C535.808337,146.5 535.833337,146.416667 535.750003,146.35 C535.666669,146.283333 535.525004,146.25 535.325003,146.25 L513.825003,146.25 L514.475003,142.05 L541.275003,142.05 C541.941673,142.05 542.500001,142.158332 542.950003,142.375 C543.400005,142.591668 543.625003,143.149995 543.625003,144.05 C543.625003,144.850004 543.525004,145.508331 543.325003,146.025 C543.125002,146.541669 542.65834,147.099997 541.925003,147.7 Z M562.31667,115.6 L567.41667,115.6 L561.11667,160.6 L555.81667,160.6 L562.31667,115.6 Z M593.96667,118.15 L601.51667,118.15 L600.96667,121.95 L593.41667,121.95 L593.11667,123.95 L588.21667,123.95 L588.51667,121.95 L582.31667,121.95 L582.01667,124.05 L577.11667,124.05 L577.41667,121.95 L570.46667,121.95 L571.01667,118.15 L577.96667,118.15 L578.36667,115.6 L583.21667,115.6 L582.86667,118.15 L589.06667,118.15 L589.46667,115.6 L594.31667,115.6 L593.96667,118.15 Z M587.31667,128.2 L587.06667,129.95 L599.91667,129.95 L599.36667,133.6 L586.56667,133.6 L586.26667,135.45 L593.71667,135.45 C594.716675,135.45 595.475001,135.599998 595.99167,135.9 C596.508339,136.200001 596.650005,137.066659 596.41667,138.5 L594.86667,149.35 L584.31667,149.35 L584.06667,151.2 L595.41667,151.2 L594.86667,154.85 L583.51667,154.85 L583.26667,156.7 L596.81667,156.7 L596.21667,160.6 L563.81667,160.6 L564.41667,156.7 L578.01667,156.7 L578.31667,154.85 L566.96667,154.85 L567.51667,151.2 L578.81667,151.2 L579.11667,149.35 L568.66667,149.35 L570.76667,135.45 L581.16667,135.45 L581.41667,133.6 L569.71667,133.6 L570.26667,129.95 L581.96667,129.95 L582.16667,128.35 L571.46667,128.55 L572.16667,124.85 C582.866724,124.716666 591.616636,124.400002 598.41667,123.9 L597.61667,127.7 L587.31667,128.2 Z M560.51667,125.5 C559.683333,130.500025 558.633343,135.449975 557.36667,140.35 L552.61667,140.35 C553.95001,135.916645 555.149998,130.966694 556.21667,125.5 L560.51667,125.5 Z M566.26667,125.5 L569.66667,125.5 C569.400002,130.600026 569.333336,134.583319 569.46667,137.45 L565.61667,137.45 C565.716671,133.783315 565.933335,129.800022 566.26667,125.5 Z M580.66667,138.8 L575.31667,138.8 L575.01667,140.8 L580.36667,140.8 L580.66667,138.8 Z M590.66667,138.8 L585.81667,138.8 L585.51667,140.8 L591.01667,140.8 L591.21667,139.4 C591.283337,138.999998 591.100006,138.8 590.66667,138.8 Z M574.21667,146 L579.61667,146 L579.91667,143.9 L574.51667,143.9 L574.21667,146 Z M584.81667,146 L590.26667,146 L590.56667,143.9 L585.06667,143.9 L584.81667,146 Z M636.208337,119 L652.108337,119 L651.508337,123.35 L620.358337,123.35 C620.091669,126.483349 619.550008,130.291644 618.733337,134.775 C617.916666,139.258356 616.758345,143.841643 615.258337,148.525 C613.758329,153.208357 612.108346,157.249983 610.308337,160.65 L603.708337,160.65 C606.40835,155.816643 608.541663,151.183356 610.108337,146.75 C607.974993,148.216674 605.775015,149.599993 603.508337,150.9 L604.258337,145.1 C606.791683,143.733327 609.408324,142.116676 612.108337,140.25 L613.108337,135.5 L608.258337,135.5 L606.758337,124.95 L611.458337,124.95 C611.791672,127.316678 612.375,130.683312 613.208337,135.05 C614.041674,130.38331 614.591669,125.033364 614.858337,119 L630.158337,119 C629.825002,117.799994 629.575005,116.683339 629.408337,115.65 L635.358337,115.65 C635.525005,116.650005 635.808335,117.766661 636.208337,119 Z M643.558337,128.6 C643.225002,131.333347 642.925005,133.483326 642.658337,135.05 L649.958337,135.05 L648.358337,138.95 L636.808337,138.95 C637.508341,134.316643 637.908337,131.500005 638.008337,130.5 C638.075004,130.033331 637.891673,129.8 637.458337,129.8 L632.008337,129.8 C631.508335,131.266674 630.683343,132.891658 629.533337,134.675 C628.383331,136.458342 627.258343,137.883328 626.158337,138.95 L618.958337,138.95 C620.691679,137.683327 622.23333,136.241675 623.583337,134.625 C624.933344,133.008325 625.925001,131.425008 626.558337,129.875 C627.191673,128.324992 627.575003,126.950006 627.708337,125.75 L640.858337,125.75 C642.225011,125.75 643.041669,126.008331 643.308337,126.525 C643.575005,127.041669 643.658338,127.733329 643.558337,128.6 Z M643.458337,146.6 C641.658328,148.566676 639.191686,150.766655 636.058337,153.2 C638.991685,155.566678 642.408318,158.033321 646.308337,160.6 L637.308337,160.6 C635.741663,159.333327 633.975013,157.833342 632.008337,156.1 C629.474991,157.833342 627.008349,159.333327 624.608337,160.6 L614.908337,160.6 C617.175015,159.599995 619.533325,158.425007 621.983337,157.075 C624.433349,155.724993 626.658327,154.366673 628.658337,153 C626.158325,150.599988 623.975013,148.383343 622.108337,146.35 L628.308337,146.35 C629.741678,147.716674 631.124997,148.983328 632.458337,150.15 C634.325013,148.683326 636.024996,147.183341 637.558337,145.65 C637.691671,145.516666 637.733337,145.400001 637.683337,145.3 C637.633337,145.199999 637.475005,145.15 637.208337,145.15 L620.558337,145.15 L621.008337,141.05 L643.908337,141.05 C644.808341,141.05 645.208337,141.499996 645.108337,142.4 C644.941669,144.166675 644.391675,145.566662 643.458337,146.6 Z M665.150004,115.6 L670.300004,115.6 L664.150004,160.6 L658.850004,160.6 L665.150004,115.6 Z M689.750004,128.95 L689.400004,131.45 L702.150004,131.45 L701.600004,135.25 L671.700004,135.25 L672.050004,133 L669.250004,133 C669.250004,130.533321 669.400003,127.833348 669.700004,124.9 L673.500004,124.9 C673.400004,127.500013 673.36667,129.683324 673.400004,131.45 L684.050004,131.45 L684.400004,128.95 L675.450004,128.95 L675.950004,125.35 L684.950004,125.35 L685.250004,123.1 L674.700004,123.1 L675.200004,119.45 L685.800004,119.45 L686.350004,115.6 L691.700004,115.6 L691.150004,119.45 L702.350004,119.45 L701.800004,123.1 L690.600004,123.1 L690.300004,125.35 L699.400004,125.35 L698.800004,128.95 L689.750004,128.95 Z M663.200004,124.9 C662.366667,129.900025 661.316677,134.849975 660.050004,139.75 L655.100004,139.75 C656.566678,134.883309 657.766666,129.933358 658.700004,124.9 L663.200004,124.9 Z M695.050004,137.2 C696.15001,137.2 696.866669,137.399998 697.200004,137.8 C697.533339,138.200002 697.633338,138.983328 697.500004,140.15 L694.750004,160.6 L685.100004,160.6 L683.850004,156.6 L690.050004,156.6 L690.500004,153.4 L677.650004,153.4 L676.700004,160.6 L671.350004,160.6 L674.650004,137.2 L695.050004,137.2 Z M691.700004,141.1 L679.300004,141.1 L679.000004,143.5 L691.800004,143.5 L692.050004,141.65 C692.116671,141.283332 692.000004,141.1 691.700004,141.1 Z M678.150004,149.75 L690.950004,149.75 L691.300004,147.15 L678.500004,147.15 L678.150004,149.75 Z" id="新视角看数据，多维度懂疫情"></path>
            </g>
        </g>
    </g>
</svg>