<?xml version="1.0" encoding="UTF-8"?>
<svg width="69px" height="69px" viewBox="0 0 69 69" version="1.1" xmlns="http://www.w3.org/2000/svg" xmlns:xlink="http://www.w3.org/1999/xlink">
    <!-- Generator: Sketch 54 (76480) - https://sketchapp.com -->
    <title>编组 25</title>
    <desc>Created with Sketch.</desc>
    <defs>
        <linearGradient x1="0%" y1="50%" x2="100%" y2="50%" id="linearGradient-1">
            <stop stop-color="#1E7BDE" offset="0.129328547%"></stop>
            <stop stop-color="#81D3FF" offset="100%"></stop>
        </linearGradient>
        <path d="M12.877101,32.9009541 C11.783083,30.743392 11.1736022,28.2668683 11.1736022,25.5993741 C11.1736022,17.0879746 17.8494486,10.1581779 26.0459496,10.1581779 C33.1707802,10.1581779 39.0563332,15.3926022 40.4754076,22.3498256 C40.3585905,22.347794 40.2417733,22.347794 40.1239404,22.347794 C33.1027215,22.347794 26.6198774,25.7507285 22.413444,31.3406832 C21.4140698,31.100556 20.3897947,30.9795115 19.3619768,30.9800738 C17.0337601,30.9800738 14.8020446,31.6748819 12.877101,32.9009541 Z M2.97100637,36.9387644 C1.97893043,37.4366389 0.770904446,37.0461023 0.258026668,36.0616989 C-0.254851109,35.0772955 0.117301517,33.86348 1.09380548,33.3357171 L6.14640136,30.7047916 C6.79139949,30.3561956 7.57418585,30.3821697 8.1946568,30.7727558 C8.81512775,31.1633419 9.17701578,31.8579398 9.14158071,32.5902553 C9.10614564,33.3225709 8.67888532,33.9789837 8.02360225,34.307839 L2.97100637,36.9387644 L2.97100637,36.9387644 Z M1.31118695,18.1525345 C0.262095301,17.7542162 -0.265460783,16.5808586 0.132857446,15.531767 C0.531175676,14.4826753 1.70453321,13.9551192 2.75362489,14.3534374 L8.01750744,16.3545661 C8.70046251,16.6091969 9.19467564,17.2101758 9.31260875,17.9294506 C9.43054186,18.6487255 9.15412027,19.3760586 8.58823713,19.8354503 C8.02235399,20.294842 7.25373775,20.415885 6.57405371,20.1526473 L1.31118695,18.1515187 L1.31118695,18.1525345 Z M15.383083,2.78650758 C15.1134402,2.1125821 15.2238149,1.34599655 15.6726301,0.775516306 C16.1214453,0.205036059 16.8405152,-0.0826693678 17.5589732,0.0207758794 C18.2774312,0.124221127 18.8861263,0.603101253 19.1557691,1.27702674 L21.1873718,6.35603347 C21.4570146,7.02995895 21.3466399,7.79654449 20.8978247,8.36702472 C20.4490095,8.93750496 19.7299395,9.22521038 19.0114815,9.12176512 C18.2930236,9.01831986 17.6843284,8.53943973 17.4146857,7.86551424 L15.383083,2.78650758 L15.383083,2.78650758 Z M34.6833084,2.29282813 C35.10014,1.25102961 36.2825934,0.744393828 37.3243919,1.16122543 C38.3661904,1.57805704 38.8728262,2.76051038 38.4559946,3.8023089 L36.4243919,8.88131562 C36.1547491,9.5552411 35.546054,10.0341212 34.827596,10.1375665 C34.109138,10.2410117 33.3900681,9.95330629 32.9412529,9.38282605 C32.4924377,8.81234581 32.3820629,8.04576027 32.6517057,7.37183479 L34.6833084,2.29282813 L34.6833084,2.29282813 Z M49.0203285,13.3508415 C50.0621271,12.9340099 51.2445804,13.4406457 51.661412,14.4824442 C52.0782436,15.5242427 51.5716078,16.706696 50.5298093,17.1235276 L45.4508027,19.1551304 C44.4090041,19.5719619 43.2265508,19.0653262 42.8097192,18.0235277 C42.3928876,16.9817292 42.8995233,15.7992758 43.9413218,15.3824442 L49.0203285,13.3508415 L49.0203285,13.3508415 Z M64.9480936,54.4298477 C64.5681839,60.4088544 59.4201027,65.0683351 53.3801479,65.0683352 L15.4257466,65.0683352 C9.80734941,64.9687866 4.93353453,60.9187867 4.18996795,55.4385385 C3.31208594,49.6141277 7.02652426,44.0832422 12.7501259,42.6922632 C12.7196518,41.5850397 12.9461755,40.4849269 13.4632184,39.3726244 C14.6405322,36.7142724 17.2684102,34.9000511 20.1441438,34.9000511 C21.7308255,34.9000511 23.2240535,35.3571617 24.4673943,36.173866 C27.2059947,30.9099835 32.6598321,27.4268007 38.806446,27.4268007 C47.3513669,27.4268007 54.3736016,34.0549044 55.0440305,42.4555815 C60.8442561,43.1646108 65.303624,48.3756717 64.9480936,54.4288319 L64.9480936,54.4298477 Z" id="path-2"></path>
        <linearGradient x1="-309.952112%" y1="-124.443685%" x2="328.033488%" y2="563.807792%" id="linearGradient-4">
            <stop stop-color="#3C96E8" offset="0%"></stop>
            <stop stop-color="#78C5FF" offset="99.6727196%"></stop>
            <stop stop-color="#5CB2F2" offset="100%"></stop>
        </linearGradient>
        <linearGradient x1="346.654204%" y1="448.019126%" x2="0%" y2="50%" id="linearGradient-5">
            <stop stop-color="#F9FDFF" offset="0%"></stop>
            <stop stop-color="#67B7F3" offset="100%"></stop>
            <stop stop-color="#5CB2F2" offset="100%"></stop>
        </linearGradient>
        <linearGradient x1="254.049108%" y1="433.659466%" x2="-50.2947703%" y2="50%" id="linearGradient-6">
            <stop stop-color="#F9FDFF" offset="0%"></stop>
            <stop stop-color="#67B7F3" offset="100%"></stop>
            <stop stop-color="#5CB2F2" offset="100%"></stop>
        </linearGradient>
        <linearGradient x1="250.679771%" y1="200.815476%" x2="-234.760487%" y2="-25.2592371%" id="linearGradient-7">
            <stop stop-color="#F9FDFF" offset="0%"></stop>
            <stop stop-color="#67B7F3" offset="100%"></stop>
            <stop stop-color="#5CB2F2" offset="100%"></stop>
        </linearGradient>
    </defs>
    <g id="页面-1" stroke="none" stroke-width="1" fill="none" fill-rule="evenodd">
        <g id="小程序入口2.25" transform="translate(-74.000000, -1059.000000)">
            <g id="编组-25" transform="translate(74.000000, 1059.000000)">
                <g id="编组-6" transform="translate(4.000000, 0.000000)">
                    <g id="编组-2">
                        <mask id="mask-3" fill="white">
                            <use xlink:href="#path-2"></use>
                        </mask>
                        <use id="形状" fill="url(#linearGradient-1)" xlink:href="#path-2"></use>
                    </g>
                </g>
                <g id="编组-14" transform="translate(0.000000, 40.000000)">
                    <rect id="矩形" fill="url(#linearGradient-4)" transform="translate(20.500000, 2.500000) scale(-1, 1) translate(-20.500000, -2.500000) " x="18" y="0" width="5" height="5"></rect>
                    <rect id="矩形" fill="url(#linearGradient-4)" transform="translate(20.500000, 10.500000) scale(-1, 1) translate(-20.500000, -10.500000) " x="18" y="8" width="5" height="5"></rect>
                    <rect id="矩形" fill="url(#linearGradient-4)" transform="translate(20.500000, 18.500000) scale(-1, 1) translate(-20.500000, -18.500000) " x="18" y="16" width="5" height="5"></rect>
                    <rect id="矩形" fill="url(#linearGradient-4)" transform="translate(29.500000, 2.500000) scale(-1, 1) translate(-29.500000, -2.500000) " x="27" y="0" width="5" height="5"></rect>
                    <rect id="矩形" fill="url(#linearGradient-4)" transform="translate(29.500000, 10.500000) scale(-1, 1) translate(-29.500000, -10.500000) " x="27" y="8" width="5" height="5"></rect>
                    <rect id="矩形" fill="url(#linearGradient-4)" transform="translate(29.500000, 18.500000) scale(-1, 1) translate(-29.500000, -18.500000) " x="27" y="16" width="5" height="5"></rect>
                    <rect id="矩形" fill="url(#linearGradient-5)" transform="translate(11.500000, 2.500000) scale(-1, 1) translate(-11.500000, -2.500000) " x="9" y="0" width="5" height="5"></rect>
                    <rect id="矩形" fill="url(#linearGradient-5)" transform="translate(11.500000, 10.500000) scale(-1, 1) translate(-11.500000, -10.500000) " x="9" y="8" width="5" height="5"></rect>
                    <rect id="矩形" fill="url(#linearGradient-6)" transform="translate(11.500000, 18.500000) scale(-1, 1) translate(-11.500000, -18.500000) " x="9" y="16" width="5" height="5"></rect>
                    <rect id="矩形" fill="url(#linearGradient-7)" transform="translate(2.500000, 2.500000) scale(-1, 1) translate(-2.500000, -2.500000) " x="0" y="0" width="5" height="5"></rect>
                    <rect id="矩形" fill="url(#linearGradient-7)" transform="translate(2.500000, 10.500000) scale(-1, 1) translate(-2.500000, -10.500000) " x="0" y="8" width="5" height="5"></rect>
                    <rect id="矩形" fill="url(#linearGradient-7)" transform="translate(2.500000, 18.500000) scale(-1, 1) translate(-2.500000, -18.500000) " x="0" y="16" width="5" height="5"></rect>
                    <rect id="矩形" fill="url(#linearGradient-7)" transform="translate(20.500000, 26.500000) scale(-1, 1) translate(-20.500000, -26.500000) " x="18" y="24" width="5" height="5"></rect>
                    <rect id="矩形" fill="url(#linearGradient-7)" transform="translate(29.500000, 26.500000) scale(-1, 1) translate(-29.500000, -26.500000) " x="27" y="24" width="5" height="5"></rect>
                    <rect id="矩形" fill="url(#linearGradient-7)" transform="translate(11.500000, 26.500000) scale(-1, 1) translate(-11.500000, -26.500000) " x="9" y="24" width="5" height="5"></rect>
                    <rect id="矩形" fill="url(#linearGradient-7)" transform="translate(2.500000, 26.500000) scale(-1, 1) translate(-2.500000, -26.500000) " x="0" y="24" width="5" height="5"></rect>
                </g>
            </g>
        </g>
    </g>
</svg>