<?xml version="1.0" encoding="UTF-8"?>
<svg width="71px" height="67px" viewBox="0 0 71 67" version="1.1" xmlns="http://www.w3.org/2000/svg" xmlns:xlink="http://www.w3.org/1999/xlink">
    <!-- Generator: Sketch 54 (76480) - https://sketchapp.com -->
    <title>编组 19</title>
    <desc>Created with Sketch.</desc>
    <defs>
        <linearGradient x1="77.1458392%" y1="7.51455832%" x2="45.7673958%" y2="81.1723108%" id="linearGradient-1">
            <stop stop-color="#FFB15D" offset="0%"></stop>
            <stop stop-color="#FD7130" offset="100%"></stop>
        </linearGradient>
        <path d="M25.5,62 C42.1666667,45.4836971 50.5,32.8107411 50.5,23.9811321 C50.5,10.7367185 39.3071187,0 25.5,0 C11.6928813,0 0.5,10.7367185 0.5,23.9811321 C0.5,32.8107411 8.83333333,45.4836971 25.5,62 Z" id="path-2"></path>
        <linearGradient x1="50%" y1="45.0473218%" x2="39.5701796%" y2="80.2659465%" id="linearGradient-4">
            <stop stop-color="#FF9F54" offset="0%"></stop>
            <stop stop-color="#FF6948" offset="100%"></stop>
        </linearGradient>
        <linearGradient x1="50%" y1="45.0473218%" x2="39.6582302%" y2="80.2659465%" id="linearGradient-5">
            <stop stop-color="#FF9F54" offset="0%"></stop>
            <stop stop-color="#FF6948" offset="100%"></stop>
        </linearGradient>
        <linearGradient x1="47.9292091%" y1="0%" x2="47.9292091%" y2="114.148945%" id="linearGradient-6">
            <stop stop-color="#FF6948" offset="0%"></stop>
            <stop stop-color="#FFA053" offset="100%"></stop>
        </linearGradient>
    </defs>
    <g id="页面-1" stroke="none" stroke-width="1" fill="none" fill-rule="evenodd">
        <g id="小程序入口2.25" transform="translate(-70.000000, -558.000000)">
            <g id="编组-19" transform="translate(72.000000, 558.000000)">
                <g id="编组-18" transform="translate(7.000000, 0.000000)">
                    <g id="编组-3">
                        <mask id="mask-3" fill="white">
                            <use xlink:href="#path-2"></use>
                        </mask>
                        <use id="蒙版" fill="url(#linearGradient-1)" xlink:href="#path-2"></use>
                        <path d="M1.9648314,41.2137777 L18.2885933,41.2361697 C21.4730403,41.2405379 24.0534558,43.8209534 24.057824,47.0054004 L24.057824,47.0054004 C24.0621768,50.1785763 21.4933381,52.7544723 18.3201622,52.7588251 C18.3149079,52.7588323 18.3096536,52.7588323 18.3043994,52.7588251 L1.98063751,52.7364331 C-1.20380952,52.7320648 -3.78422502,50.1516494 -3.78859326,46.9672023 L-3.78859326,46.9672023 C-3.79294604,43.7940264 -1.22410732,41.2181304 1.94906859,41.2137777 C1.95432286,41.2137705 1.95957713,41.2137705 1.9648314,41.2137777 Z" id="矩形" fill="#FFFFFF" opacity="0.2" mask="url(#mask-3)" transform="translate(10.134615, 46.986301) rotate(-45.000000) translate(-10.134615, -46.986301) "></path>
                        <circle id="椭圆形" stroke="#FFFFFF" stroke-width="4" opacity="0.2" mask="url(#mask-3)" cx="50" cy="12.5" r="10.5"></circle>
                    </g>
                    <g id="编组-16" transform="translate(6.000000, 5.000000)">
                        <g id="编组-15">
                            <circle id="椭圆形" fill="#FFFFFF" cx="19.3773585" cy="19.3773585" r="19.3773585"></circle>
                            <path d="M19.7915502,4 C22.6924284,4 25.0662239,6.36706763 25.0662239,9.26232039 L25.0662239,18.593025 C27.1762644,20.1720608 28.5831005,22.7149071 28.5831005,25.6101598 C28.5831005,30.4355811 24.6272021,34.3816845 19.7915502,34.3816845 C14.9558984,34.3816845 11,30.4355811 11,25.6101598 C11,22.7161808 12.4068361,20.1720608 14.5168766,18.593025 L14.5168766,9.26232039 C14.5168766,6.36834138 16.8906721,4 19.7915502,4 Z M19.7915502,5.75438985 L19.7915502,5.75311609 C17.857204,5.75311609 16.2746737,7.33215188 16.2746737,9.26232039 L16.2746737,19.5581092 C14.1646332,20.7860123 12.7590795,22.9789996 12.7590795,25.6101598 C12.7590795,29.4704968 15.9237127,32.6285684 19.7915502,32.6285684 C23.6593878,32.6285684 26.824021,29.4704968 26.824021,25.6101598 C26.824021,23.0673135 25.4184673,20.7860123 23.3084268,19.5581092 L23.3084268,9.26232039 C23.3084268,7.33215188 21.7258965,5.75438985 19.7915502,5.75438985 Z" id="形状结合" fill="url(#linearGradient-4)"></path>
                            <path d="M19.7915502,12.5689971 C18.8250183,12.5689971 18.0337532,13.3570289 18.0337532,14.3221132 L18.0337532,20.6098091 C15.9254226,21.3350022 14.5096094,23.3488141 14.5168766,25.611009 C14.5168766,28.5062617 16.8906721,30.8746031 19.7915502,30.8746031 C22.6924284,30.8746031 25.0662239,28.5062617 25.0662239,25.611009 C25.0662239,23.3309815 23.5721819,21.4020868 21.5493473,20.6115074 L21.5493473,14.3250853 C21.5493473,13.360001 20.7580821,12.5689971 19.7915502,12.5689971 Z" id="路径" fill="url(#linearGradient-5)"></path>
                        </g>
                    </g>
                </g>
                <polyline id="直线-3" stroke="url(#linearGradient-6)" stroke-width="2.2" stroke-linecap="round" stroke-linejoin="round" points="15.0777152 57 6.84303194 57 0 65.858356 67 65.858356 58.5889019 57 50.3093554 57"></polyline>
            </g>
        </g>
    </g>
</svg>