<?xml version="1.0" encoding="UTF-8"?>
<svg width="62px" height="59px" viewBox="0 0 62 59" version="1.1" xmlns="http://www.w3.org/2000/svg" xmlns:xlink="http://www.w3.org/1999/xlink">
    <!-- Generator: Sketch 54 (76480) - https://sketchapp.com -->
    <title>编组 23</title>
    <desc>Created with Sketch.</desc>
    <defs>
        <linearGradient x1="-4.54796735%" y1="72.3125967%" x2="139.482889%" y2="12.2265985%" id="linearGradient-1">
            <stop stop-color="#73F06F" offset="0%"></stop>
            <stop stop-color="#009401" offset="100%"></stop>
        </linearGradient>
        <linearGradient x1="6.42102396%" y1="100%" x2="84.5926127%" y2="29.3566894%" id="linearGradient-2">
            <stop stop-color="#5BDD58" offset="0%"></stop>
            <stop stop-color="#1DAC1D" offset="100%"></stop>
        </linearGradient>
        <linearGradient x1="-50.4966759%" y1="83.3666067%" x2="63.0913026%" y2="43.5976928%" id="linearGradient-3">
            <stop stop-color="#FFFFFF" offset="0%"></stop>
            <stop stop-color="#FFFFFF" offset="100%"></stop>
        </linearGradient>
        <linearGradient x1="24.3561203%" y1="97.99237%" x2="185.839699%" y2="-43.3026164%" id="linearGradient-4">
            <stop stop-color="#73F06E" offset="0%"></stop>
            <stop stop-color="#019501" offset="100%"></stop>
        </linearGradient>
        <linearGradient x1="24.3561203%" y1="98.0194936%" x2="185.839699%" y2="-43.3553478%" id="linearGradient-5">
            <stop stop-color="#73F06E" offset="0%"></stop>
            <stop stop-color="#019501" offset="100%"></stop>
        </linearGradient>
    </defs>
    <g id="页面-1" stroke="none" stroke-width="1" fill="none" fill-rule="evenodd">
        <g id="小程序入口2.25" transform="translate(-76.000000, -730.000000)">
            <g id="编组-23" transform="translate(76.000000, 730.000000)">
                <g id="编组-22">
                    <path d="M45,3.07515263 L45,13.3645807 C45,15.3709343 46.6289679,17 48.6374929,17 L61.3645807,17 C61.5017056,17 61.6370515,16.9924073 61.7702221,16.9776203 C62.0391746,18.5080589 62.0796208,20.1169462 61.8512229,21.7786643 C61.607607,23.5904055 61.0505355,25.3455183 60.2051222,26.9648784 C58.9434218,29.382208 57.1516211,31.2924273 55.1831204,33.0657578 L56.5068209,34.3630891 C57.4796798,35.3130949 58.0284873,36.6174878 58.0284873,37.9797501 C58.0284873,39.3420124 57.4796798,40.6464053 56.5068209,41.5964111 C55.5268009,42.5517491 54.2150551,43.0872521 52.8488195,43.0897422 C52.8488196,44.3839623 52.3404194,45.6812936 51.329819,46.6706254 C50.3192186,47.6724017 48.9738181,48.1701787 47.6408176,48.1701787 C47.5571175,48.1701787 47.4858175,48.1608454 47.3990175,48.1608454 C47.4114175,49.6012875 46.8813173,51.0292853 45.8180169,52.0715059 C44.8632261,53.0136793 43.6186826,53.603638 42.2871156,53.745281 C42.1383156,53.7546144 42.0050156,53.7639477 41.8593155,53.7639477 C41.8439455,56.6699663 39.4849673,59.0137207 36.5893135,58.9999395 C35.256313,58.9999395 33.9233125,58.4990514 32.9003122,57.5003863 L30.5257113,55.1732788 L27.9310103,57.7150526 C26.5019098,59.1150504 24.1583089,59.1150504 22.7323084,57.7150526 C21.3063078,56.3150548 21.3063078,54.0221695 22.7323084,52.6221717 L29.0129107,46.4684035 C30.3682157,45.1607123 32.4780143,45.0596959 33.9512125,46.2319595 C34.2140991,45.8568204 34.6274606,45.6159929 35.082425,45.5729067 C35.5373893,45.5298205 35.9883433,45.6887952 36.3165134,46.0079598 L40.672015,50.2732865 C40.7328153,50.3234005 40.7860675,50.3820829 40.8301151,50.4475084 C40.8394151,50.4568418 40.8487151,50.4786195 40.8611151,50.4879528 C41.6826154,51.0386186 42.9009159,50.6715081 43.6511161,49.937287 C44.5160165,49.0972883 44.4943165,47.712846 43.9425163,46.8884028 L37.751814,40.8217457 C37.5038138,40.5790794 37.3581138,40.2710798 37.3178138,39.9568581 C37.1193483,39.4062183 37.261336,38.7899518 37.6805139,38.3826384 C38.2863814,37.7886286 39.2539473,37.7886286 39.8598147,38.3826384 L46.1404171,44.5395177 C46.9809588,45.3627266 48.3223765,45.3627266 49.1629182,44.5395177 C49.5690183,44.1412961 49.7860184,43.6186302 49.7860184,43.0586311 C49.7898373,42.5826683 49.6275172,42.1203799 49.3272182,41.7519664 C49.2652182,41.7021888 49.2032182,41.6399666 49.1505181,41.5901889 L42.8699158,35.4333097 C42.580985,35.1546731 42.4176819,34.7698982 42.4176819,34.3677558 C42.4176819,33.9656134 42.580985,33.5808384 42.8699158,33.3022019 L42.8792158,33.2897574 C42.8916159,33.2897574 42.8916159,33.2804241 42.8916159,33.2804241 C43.4970994,32.6884377 44.4623331,32.6884377 45.0678167,33.2804241 L51.348419,39.4341923 C51.4092727,39.4837373 51.4653222,39.5389458 51.515819,39.5990809 C52.368537,40.2708748 53.5850048,40.2057109 54.3616201,39.4466367 C54.7592955,39.0572793 54.9835416,38.5233163 54.9835416,37.9657501 C54.9835416,37.408184 54.7592955,36.874221 54.3616201,36.4848636 L52.1823193,34.3537558 C47.7555176,30.1786512 39.0259144,21.8408864 39.0259144,21.8408864 L32.6802121,27.6586551 C22.8780085,37.2719735 14.6382054,25.9537689 14.6382054,25.9537689 C14.6382054,25.9537689 25.9191096,14.7164531 28.8889107,11.6737912 L29.4407109,11.1013476 C26.6073098,7.89690817 22.4812083,6.03024443 18.0947067,6.03024443 C9.81460365,6.03024443 3.07210113,12.6226786 3.07210113,20.7333326 C3.07139745,23.5709967 3.9049633,26.3457951 5.46840202,28.710209 L9.6782036,32.8417581 L12.4186046,30.1568734 C13.8711737,28.7579119 16.1647374,28.7579119 17.6173065,30.1568734 C19.0433071,31.5568712 19.0433071,33.8497565 17.6173065,35.2497544 L11.3336042,41.4035225 C9.90760369,42.8035203 7.56400283,42.8035203 6.13800228,41.4035225 C4.70890176,40.0066358 4.70890176,37.7106394 6.13800228,36.3137527 L7.50200279,34.975977 L3.1868012,30.729317 C3.11235169,30.6590669 3.04581908,30.5808197 2.98840111,30.495984 C1.03230038,27.596433 3.19744231e-14,24.2271049 3.19744231e-14,20.7364437 C3.19744231e-14,10.9613479 8.12200298,3.00002696 18.1040067,3.00002696 C23.2294952,2.99122397 28.1240537,5.1386422 31.5983117,8.92046216 C33.1917123,7.35868683 34.8905129,5.89957801 36.8807136,4.88535735 C39.508465,3.54884445 42.2867134,2.99105429 45,3.07515263 Z M35.107513,55.3475008 C35.6696327,55.891954 36.6771331,55.891954 38.1300141,55.3475008 C38.9298143,54.5603909 38.9608144,53.3066151 38.5268142,52.4666164 L38.4834142,52.426172 C38.3780142,52.3359499 38.2943142,52.2239501 38.2323141,52.1119502 L35.3059131,49.2435103 C35.2421792,50.1133261 34.8640507,50.9298234 34.2426127,51.5395067 L32.7329121,53.0203933 L35.107513,55.3475008 Z" id="形状结合" fill="url(#linearGradient-1)" fill-rule="nonzero"></path>
                    <rect id="矩形-3" fill="url(#linearGradient-2)" x="47" y="0" width="15" height="15" rx="2"></rect>
                    <polygon id="路径" fill="url(#linearGradient-3)" points="58 9.14256291 55.1417094 9.14256291 55.1417094 12 52.8569628 12 52.8569628 9.14256291 50 9.14256291 50 6.85743709 52.8569628 6.85743709 52.8569628 4 55.1417094 4 55.1417094 6.85743709 58 6.85743709"></polygon>
                </g>
                <path d="M23.1570085,40.6910792 C24.5861091,39.2910814 24.5861091,36.995085 23.1570085,35.5981983 C21.7048429,34.201226 19.4135723,34.201226 17.9614066,35.5981983 L11.6777043,41.7519664 C10.2517037,43.1519642 10.2517037,45.4479607 11.6777043,46.8448474 C13.1037048,48.2448452 15.4504057,48.2448452 16.8764062,46.8448474 L23.1601086,40.6910792 L23.1570085,40.6910792 Z" id="路径" fill="url(#linearGradient-4)" fill-rule="nonzero"></path>
                <path d="M28.6688106,46.0795153 C30.0948111,44.6795175 30.0948111,42.383521 28.6688106,40.9866343 C27.2162415,39.5876728 24.9226778,39.5876728 23.4701087,40.9866343 L17.1895063,47.1404025 C15.7635058,48.5404003 15.7635058,50.8363967 17.1895063,52.2332834 C18.6155069,53.6332812 20.9622077,53.6332812 22.3882083,52.2332834 L28.6688106,46.0795153 Z" id="路径" fill="url(#linearGradient-5)" fill-rule="nonzero"></path>
            </g>
        </g>
    </g>
</svg>