<?xml version="1.0" encoding="UTF-8"?>
<svg width="32px" height="24px" viewBox="0 0 32 24" version="1.1" xmlns="http://www.w3.org/2000/svg" xmlns:xlink="http://www.w3.org/1999/xlink">
    <!-- Generator: Sketch 54 (76480) - https://sketchapp.com -->
    <title>形状</title>
    <desc>Created with Sketch.</desc>
    <g id="页面-1" stroke="none" stroke-width="1" fill="none" fill-rule="evenodd" opacity="0.8">
        <g id="小程序入口2.28" transform="translate(-243.000000, -1479.000000)" fill="#333333" fill-rule="nonzero" stroke="#333333" stroke-width="0.5">
            <g id="编组-43" transform="translate(244.000000, 1464.000000)">
                <path d="M26.4573807,17.4965529 L2.99688917,17.4965529 C2.87178005,17.4966176 2.74718173,17.5125103 2.62606206,17.5438523 L13.9892646,28.9051629 C14.2818479,29.1977163 14.7561874,29.1977163 15.0487707,28.9051629 L26.4573807,17.4965529 L26.4573807,17.4965529 Z M28.0769113,17.9941424 L18.9254277,27.145626 L28.1544823,36.3765726 C28.3455718,36.1249399 28.4590903,35.8089801 28.4590903,35.4703165 L28.4590903,18.9949972 C28.4597468,18.6256156 28.3236007,18.2690744 28.0769113,17.9941424 Z M26.6295504,36.9687608 L17.8659216,28.2051321 L16.1063848,29.9646689 C15.6851186,30.3866027 15.1133582,30.6236988 14.5171257,30.6236988 C13.9208931,30.6236988 13.3491327,30.3866027 12.9278666,29.9646689 L11.1683297,28.2051321 L2.49551577,36.88173 C2.65444167,36.9384892 2.82282747,36.9687608 2.99878114,36.9687608 L26.6314424,36.9687608 L26.6295504,36.9687608 Z M1.52304055,35.7351931 L10.1126076,27.145626 L1.55331216,18.5901145 C1.51662254,18.7219372 1.49816187,18.8581642 1.49844487,18.9949972 L1.49844487,35.4703165 C1.49844487,35.5611314 1.50601278,35.6500542 1.52114858,35.7351931 L1.52304055,35.7351931 Z M2.9949972,16.0000006 L26.9587541,16.0000006 C27.7534043,15.9994986 28.5156795,16.3148204 29.0777596,16.8765456 C29.6398397,17.4382708 29.9556428,18.2003468 29.9556426,18.9949972 L29.9556426,35.4703165 C29.956145,36.2652947 29.6405636,37.027857 29.078429,37.5899915 C28.5162945,38.1521261 27.7537322,38.4677075 26.9587541,38.4672051 L2.99688917,38.4672051 C2.20191101,38.4677075 1.43934876,38.1521261 0.877214197,37.5899915 C0.315079633,37.027857 -0.000501755718,36.2652947 5.98832126e-07,35.4703165 L5.98832126e-07,18.9949972 C4.40276454e-07,18.2003468 0.315803519,17.4382708 0.877883601,16.8765456 C1.43996368,16.3148204 2.20223893,15.9994986 2.99688917,16.0000006 L2.9949972,16.0000006 Z" id="形状"></path>
            </g>
        </g>
    </g>
</svg>