<?xml version="1.0" encoding="UTF-8"?>
<svg width="72px" height="68px" viewBox="0 0 72 68" version="1.1" xmlns="http://www.w3.org/2000/svg" xmlns:xlink="http://www.w3.org/1999/xlink">
    <!-- Generator: Sketch 54 (76480) - https://sketchapp.com -->
    <title>编组 32</title>
    <desc>Created with Sketch.</desc>
    <defs>
        <linearGradient x1="49.9362245%" y1="93.1273945%" x2="49.8083494%" y2="-3.25164265%" id="linearGradient-1">
            <stop stop-color="#FF8A8A" offset="0%"></stop>
            <stop stop-color="#F74F42" offset="100%"></stop>
        </linearGradient>
        <linearGradient x1="0%" y1="50.0555556%" x2="100%" y2="49.9390818%" id="linearGradient-2">
            <stop stop-color="#FF8989" offset="0%"></stop>
            <stop stop-color="#F14646" offset="100%"></stop>
        </linearGradient>
        <linearGradient x1="50%" y1="0%" x2="50%" y2="100%" id="linearGradient-3">
            <stop stop-color="#FE8A8A" offset="0%"></stop>
            <stop stop-color="#F14747" offset="100%"></stop>
        </linearGradient>
        <linearGradient x1="50%" y1="0%" x2="50%" y2="100%" id="linearGradient-4">
            <stop stop-color="#FF8C8C" offset="0%"></stop>
            <stop stop-color="#F14545" offset="100%"></stop>
        </linearGradient>
        <linearGradient x1="29.2528033%" y1="29.2982682%" x2="66.8351747%" y2="76.4517462%" id="linearGradient-5">
            <stop stop-color="#FF8B8B" offset="0%"></stop>
            <stop stop-color="#F14747" offset="100%"></stop>
        </linearGradient>
        <linearGradient x1="67.2450922%" y1="-10.0957725%" x2="0%" y2="76.042336%" id="linearGradient-6">
            <stop stop-color="#FCCAAA" offset="0%"></stop>
            <stop stop-color="#FE8989" offset="100%"></stop>
        </linearGradient>
        <linearGradient x1="186.840427%" y1="100%" x2="255.62087%" y2="-211.541341%" id="linearGradient-7">
            <stop stop-color="#FFFFFF" offset="0%"></stop>
            <stop stop-color="#FF8989" offset="100%"></stop>
        </linearGradient>
        <linearGradient x1="186.840427%" y1="100%" x2="255.62087%" y2="-211.541341%" id="linearGradient-8">
            <stop stop-color="#FFFFFF" offset="0%"></stop>
            <stop stop-color="#FF8989" offset="100%"></stop>
        </linearGradient>
        <linearGradient x1="186.840427%" y1="100%" x2="255.62087%" y2="-211.541341%" id="linearGradient-9">
            <stop stop-color="#FFFFFF" offset="0%"></stop>
            <stop stop-color="#FF8989" offset="100%"></stop>
        </linearGradient>
        <linearGradient x1="191.018521%" y1="100%" x2="261.89901%" y2="-211.541341%" id="linearGradient-10">
            <stop stop-color="#FFFFFF" offset="0%"></stop>
            <stop stop-color="#FF8989" offset="100%"></stop>
        </linearGradient>
        <linearGradient x1="-31.0540765%" y1="30.2497035%" x2="100%" y2="89.6121371%" id="linearGradient-11">
            <stop stop-color="#FCCAAA" offset="0%"></stop>
            <stop stop-color="#FF8A8A" offset="100%"></stop>
        </linearGradient>
    </defs>
    <g id="页面-1" stroke="none" stroke-width="1" fill="none" fill-rule="evenodd">
        <g id="小程序入口2.25" transform="translate(-76.000000, -1222.000000)">
            <g id="编组-32" transform="translate(76.000000, 1222.000000)">
                <g id="编组-26">
                    <g id="编组-30">
                        <path d="M5,7.7556058 L5,62.019568" id="直线" stroke="url(#linearGradient-1)" stroke-width="3" stroke-linecap="square"></path>
                        <path d="M64.9443276,62.5 L5,62.5" id="直线" stroke="url(#linearGradient-2)" stroke-width="3" stroke-linecap="square"></path>
                        <polygon id="三角形" fill="url(#linearGradient-3)" points="5 0 10 10 0 10"></polygon>
                        <path d="M68.763932,65 L70.2111456,67.8944272 L72,65 L68.763932,65 Z M65.236068,65 L62,65 L63.7888544,67.8944272 L65.236068,65 Z M67,61.472136 L68.7888544,57.8944272 L65.2111456,57.8944272 L67,61.472136 Z" id="三角形" stroke="url(#linearGradient-4)" stroke-width="4" transform="translate(67.000000, 62.000000) rotate(-270.000000) translate(-67.000000, -62.000000) "></path>
                        <path d="M59.2685559,48.5260945 L53.7119203,42.9977022 C53.9785166,41.9043697 54.1692805,40.7933871 54.2828075,39.6729349 L61.5901639,36.9280688 L54.2828075,33.8352618 C54.1442627,32.7129486 53.9280591,31.601943 53.635802,30.5104945 L59.1924376,24.9821022 L51.5806079,24.9821022 C51.0255054,23.9977304 50.4023062,23.054631 49.7157097,22.1599159 L52.7985007,14.8918198 L45.6433809,18.0232867 C44.7676754,17.352896 43.8383338,16.7580369 42.865063,16.2449228 L42.865063,8.5129056 L37.460664,14.0026378 C36.3861811,13.7057661 35.2924451,13.4861487 34.1875772,13.3454163 L31.4473186,6 L28.4025867,13.3454163 C27.2977188,13.4861487 26.2039829,13.7057661 25.1295,14.0026378 L19.6870418,8.31960516 L19.6870418,16.2449228 C18.7096629,16.7950906 17.7801969,17.4288297 16.9087239,18.139267 L9.86778154,15.0078 L12.9505725,22.2758961 C12.2639761,23.1706113 11.6407768,24.1137107 11.0856743,25.0980824 L3.47384465,25.0980824 L8.87824365,30.5104945 C8.58305362,31.6012422 8.36680809,32.7124631 8.23123814,33.8352618 L1,36.9280688 L8.23123814,39.8275752 C8.36680809,40.9503739 8.58305362,42.0615949 8.87824365,43.1523426 L3.32160803,48.5260945 L10.9334377,48.5260945 C11.4885402,49.5104663 12.1117395,50.4535657 12.7983359,51.3482808 L9.71554491,58.6163769 L16.8706648,55.48491 C17.7421378,56.1953473 18.6716038,56.8290863 19.6489826,57.3792542 L19.6489826,65.1112714 L25.0914408,59.4668988 C26.178393,59.7655584 27.2849086,59.9851881 28.4025867,60.1241203 L31.4473186,67.5081967 L34.1875772,60.1241203 C35.2924451,59.9833879 36.3861811,59.7637705 37.460664,59.4668988 L42.865063,65.1499315 L42.865063,57.4179143 C43.8424419,56.8677464 44.7719079,56.2340074 45.6433809,55.5235701 L52.7985007,58.6550371 L49.7157097,51.3869409 C50.4023062,50.4922258 51.0255054,49.5491264 51.5806079,48.5647546 L59.2685559,48.5260945 Z" id="路径" fill="url(#linearGradient-5)"></path>
                        <circle id="椭圆形" fill="url(#linearGradient-6)" opacity="0.733840216" cx="61.5" cy="14.5" r="7.5"></circle>
                    </g>
                    <path d="M17.704918,45.1639344 C16.2075527,45.1639344 15,43.9380855 15,42.4180328 C15,40.8979801 16.2075527,39.6721311 17.704918,39.6721311 C19.2022834,39.6721311 20.4098361,40.8979801 20.4098361,42.4180328 C20.4098361,43.9380855 19.2022834,45.1639344 17.704918,45.1639344 Z" id="路径" fill="url(#linearGradient-7)"></path>
                    <path d="M21.4918033,50.6557377 C20.8907104,50.6557377 20.4098361,50.1675774 20.4098361,49.557377 C20.4098361,48.9471767 20.8907104,48.4590164 21.4918033,48.4590164 C22.0928962,48.4590164 22.5737705,48.9471767 22.5737705,49.557377 C22.5737705,50.1675774 22.0928962,50.6557377 21.4918033,50.6557377 Z" id="路径" fill="url(#linearGradient-8)"></path>
                    <path d="M20.4098361,27.5901639 C20.4098361,23.9482312 23.3140638,21 26.9016393,21 C30.4892148,21 33.3934426,23.9482312 33.3934426,27.5901639 C33.3934426,31.2320966 30.4892148,34.1803279 26.9016393,34.1803279 C23.3140638,34.1803279 20.4098361,31.2320966 20.4098361,27.5901639 Z" id="路径" fill="url(#linearGradient-9)"></path>
                    <path d="M33.5655738,52.852459 C31.0777689,52.852459 29.0655738,50.8402639 29.0655738,48.352459 C29.0655738,45.8646541 31.0777689,43.852459 33.5655738,43.852459 C36.0533786,43.852459 38.0655738,45.8646541 38.0655738,48.352459 C38.0655738,50.8402639 36.0533786,52.852459 33.5655738,52.852459 Z" id="路径" fill="url(#linearGradient-10)"></path>
                    <path d="M38.8032787,22.0983862 C38.8032697,21.7059736 39.0094895,21.3433656 39.344255,21.1471567 C39.6790206,20.9509478 40.0914713,20.9509478 40.4262368,21.1471567 C40.7610023,21.3433656 40.9672221,21.7059736 40.9672131,22.0983862 C40.9671992,22.704984 40.4827901,23.1967213 39.8852459,23.1967213 C39.2877017,23.1967213 38.8032926,22.704984 38.8032787,22.0983862 Z" id="路径" fill="url(#linearGradient-8)"></path>
                    <path d="M44.2131148,50.6557377 C43.6120219,50.6557377 43.1311475,50.1675774 43.1311475,49.557377 C43.1311475,48.9471767 43.6120219,48.4590164 44.2131148,48.4590164 C44.8142077,48.4590164 45.295082,48.9471767 45.295082,49.557377 C45.295082,50.1675774 44.8142077,50.6557377 44.2131148,50.6557377 Z" id="路径" fill="url(#linearGradient-8)"></path>
                    <path d="M44.7540984,39.6721311 C43.2724235,39.6721311 42.0491803,38.4478438 42.0491803,36.9262295 C42.0491803,35.4046152 43.2551947,34.1803279 44.7540984,34.1803279 C46.2357732,34.1803279 47.4590164,35.4046152 47.4590164,36.9262295 C47.4590164,38.4478438 46.2357732,39.6721311 44.7540984,39.6721311 Z" id="路径" fill="url(#linearGradient-7)"></path>
                    <circle id="椭圆形" fill="url(#linearGradient-11)" opacity="0.2523484" cx="62.5" cy="30.5" r="3.5"></circle>
                    <circle id="椭圆形" fill="url(#linearGradient-11)" opacity="0.2523484" cx="70.5" cy="25.5" r="1.5"></circle>
                    <circle id="椭圆形" fill="url(#linearGradient-11)" opacity="0.2523484" cx="49.5" cy="10.5" r="2.5"></circle>
                    <circle id="椭圆形" fill="#FFFFFF" cx="58" cy="14" r="1"></circle>
                    <circle id="椭圆形" fill="#FFFFFF" cx="60.5" cy="18.5" r="1"></circle>
                    <circle id="椭圆形" fill="#FFFFFF" transform="translate(62.034290, 11.034290) rotate(-92.000000) translate(-62.034290, -11.034290) " cx="62.0342903" cy="11.0342903" r="1"></circle>
                </g>
            </g>
        </g>
    </g>
</svg>