<?xml version="1.0" encoding="utf-8"?>
<!-- Generator: Adobe Illustrator 24.0.0, SVG Export Plug-In . SVG Version: 6.00 Build 0)  -->
<svg version="1.1" xmlns="http://www.w3.org/2000/svg" xmlns:xlink="http://www.w3.org/1999/xlink" x="0px" y="0px"
	 viewBox="0 0 160 200" enable-background="new 0 0 160 200" xml:space="preserve">
<g id="Layer_4">
	<g opacity="0.1875">
		<g>
			<path fill="none" stroke="#000000" stroke-width="1.6" stroke-miterlimit="10" d="M22.68,59.1c3.03,3.03,5.45,8.48,6.05,11.81"/>
			<path fill="none" stroke="#000000" stroke-width="1.6" stroke-miterlimit="10" d="M31.31,102.39c0,5.9-0.3,8.63-1.51,12.71"/>
			<path fill="none" stroke="#000000" stroke-width="1.6" stroke-miterlimit="10" d="M7.09,156.28c-0.76,4.09-1.06,8.17-0.45,12.41"
				/>
			<path fill="none" stroke="#000000" stroke-width="1.6" stroke-miterlimit="10" d="M45.99,199.72c4.84,0,10.22-1.29,12.71-3.78"/>
			<path fill="none" stroke="#000000" stroke-width="1.6" stroke-miterlimit="10" d="M85.2,161.58c3.63-2.42,8.02-6.51,9.69-9.99"/>
			<path fill="none" stroke="#000000" stroke-width="1.6" stroke-miterlimit="10" d="M123.79,107.84
				c-0.91,6.36-3.78,11.05-3.78,11.05"/>
			<path fill="none" stroke="#000000" stroke-width="1.6" stroke-miterlimit="10" d="M125.16,62.28c-0.76,6.96,0,13.93,0,13.93"/>
			<path fill="none" stroke="#000000" stroke-width="1.6" stroke-miterlimit="10" d="M129.04,43.56c1.72-5.35,4.54-9.08,6.56-11.3"
				/>
			<path fill="none" stroke="#000000" stroke-width="1.6" stroke-miterlimit="10" d="M148.42,11.57c3.13-4.04,7.97-11,7.97-11"/>
		</g>
	</g>
</g>
<g id="Layer_1">
	<g>
		<path fill="#E2E2E2" d="M12.25,195.21l0-0.22c0-0.35-0.13-1.34-0.68-1.77c-0.21-0.16-0.41-0.29-0.59-0.41
			c-0.54-0.34-1.04-0.67-1.11-1.5c-0.06-0.65,0.45-0.91,0.9-1.13c0.53-0.26,1.25-0.63,1.87-1.71l0.28-0.48l0.37,0.42
			c0.1,0.11,2.51,2.83,2.99,4.1c0.54,1.43-1.74,3.44-2.01,3.66l-0.23,0.19L12.25,195.21z"/>
		<path fill="#FFFFFF" d="M12.99,188.67c0,0,2.46,2.76,2.91,3.97c0.45,1.21-1.89,3.22-1.89,3.22l-1.36-0.87c0,0,0-1.44-0.83-2.08
			c-0.83-0.64-1.48-0.76-1.55-1.63C10.19,190.41,11.78,190.79,12.99,188.67 M12.85,187.31l-0.55,0.97c-0.56,0.98-1.2,1.3-1.71,1.55
			c-0.48,0.24-1.2,0.6-1.12,1.52c0.09,1.03,0.73,1.44,1.3,1.8c0.17,0.11,0.36,0.23,0.56,0.39c0.43,0.33,0.52,1.23,0.52,1.45v0.44
			l0.37,0.24l1.36,0.87l0.5,0.32l0.45-0.39c0.65-0.56,2.73-2.49,2.12-4.11c-0.49-1.31-2.8-3.93-3.07-4.22L12.85,187.31L12.85,187.31
			z"/>
	</g>
	<g>
		<path fill="#E2E2E2" d="M27.29,153.5c-0.77,0-1.23-0.76-1.5-1.21l-0.21-0.33l0.04-0.17c0.03-0.13,0.33-1.24,1.18-1.5
			c0.08-0.02,0.17-0.04,0.26-0.04c0.61,0,1.34,0.58,1.6,1.28c0.22,0.58,0.06,1.16-0.42,1.57C27.93,153.37,27.61,153.5,27.29,153.5
			L27.29,153.5z"/>
		<path fill="#FFFFFF" d="M27.06,150.66c0.7,0,1.91,1.29,0.92,2.14c-0.25,0.22-0.48,0.31-0.69,0.31c-0.65,0-1.05-0.87-1.28-1.21
			c0,0,0.25-1.01,0.91-1.21C26.96,150.67,27.01,150.66,27.06,150.66 M27.06,149.86c-0.13,0-0.25,0.02-0.37,0.05
			c-1.03,0.32-1.39,1.54-1.45,1.78l-0.09,0.34l0.2,0.29c0.03,0.05,0.06,0.1,0.1,0.16c0.3,0.49,0.85,1.41,1.84,1.41
			c0.42,0,0.82-0.17,1.21-0.5c0.61-0.52,0.81-1.27,0.53-2.01C28.72,150.55,27.83,149.86,27.06,149.86L27.06,149.86z"/>
	</g>
	<g>
		<path fill="#E2E2E2" d="M29.88,151.52c-0.48,0-1.51-0.67-1.88-1.22c-0.1-0.15-0.26-0.31-0.41-0.45c-0.36-0.35-0.96-0.92-0.43-1.62
			l0.08-0.11l0.14-0.04c0.01,0,0.35-0.09,0.78-0.09c0.72,0,1.29,0.23,1.65,0.68c0.5,0.61,0.48,1.18,0.46,1.59
			c-0.01,0.21-0.01,0.38,0.05,0.51c0.11,0.25,0.06,0.43-0.01,0.53l-0.12,0.18L29.88,151.52z"/>
		<path fill="#FFFFFF" d="M28.15,148.38c0.44,0,0.99,0.1,1.34,0.53c0.66,0.81,0.2,1.46,0.45,2.02c0.06,0.13,0.02,0.19-0.07,0.19
			c-0.31,0-1.24-0.58-1.54-1.04c-0.4-0.61-1.31-1.01-0.86-1.61C27.47,148.46,27.77,148.38,28.15,148.38 M28.15,147.58
			c-0.47,0-0.84,0.09-0.88,0.1L27,147.76l-0.17,0.22c-0.74,0.98,0.11,1.8,0.47,2.15c0.14,0.13,0.28,0.27,0.36,0.39
			c0.41,0.61,1.55,1.4,2.21,1.4c0.32,0,0.6-0.15,0.76-0.4c0.1-0.15,0.24-0.48,0.04-0.91c-0.02-0.04-0.01-0.22-0.01-0.33
			c0.02-0.45,0.04-1.13-0.55-1.86C29.67,147.87,29,147.58,28.15,147.58L28.15,147.58z"/>
	</g>
	<g>
		<path fill="#E2E2E2" d="M44.77,158.75c-0.49,0-1.13-0.26-2.02-0.82l-0.43-0.27l0.37-0.35c0.05-0.05,1.22-1.16,2.37-1.16
			c0.28,0,0.54,0.06,0.77,0.19c0.17,0.09,0.69,0.38,0.73,0.88c0.03,0.48-0.4,0.8-0.69,1.01c-0.06,0.04-0.12,0.09-0.17,0.13
			C45.5,158.52,45.23,158.75,44.77,158.75L44.77,158.75z"/>
		<path fill="#FFFFFF" d="M45.06,156.54c0.2,0,0.4,0.04,0.58,0.14c1.11,0.61,0.15,1.06-0.2,1.36c-0.17,0.15-0.34,0.3-0.67,0.3
			c-0.35,0-0.89-0.18-1.8-0.76C42.96,157.59,44.05,156.54,45.06,156.54 M45.06,155.74c-1.29,0-2.51,1.15-2.65,1.28l-0.73,0.71
			l0.86,0.54c0.97,0.61,1.66,0.88,2.23,0.88c0.61,0,0.98-0.31,1.17-0.48c0.06-0.05,0.11-0.09,0.16-0.12
			c0.34-0.25,0.9-0.66,0.86-1.36c-0.03-0.48-0.35-0.88-0.93-1.2C45.73,155.82,45.4,155.74,45.06,155.74L45.06,155.74z"/>
	</g>
	<g>
		<path fill="#E2E2E2" d="M53.24,176.78c-0.27,0-1.08,0-2.66-3.22l-0.19-0.38l0.38-0.17c0.08-0.03,0.77-0.32,1.37-0.32
			c0.63,0,0.88,0.33,0.97,0.52c0.05,0.1,0.11,0.22,0.17,0.36c0.43,0.86,1.02,2.04,0.62,2.78C53.71,176.73,53.4,176.78,53.24,176.78
			L53.24,176.78z"/>
		<path fill="#FFFFFF" d="M52.15,173.09c0.27,0,0.5,0.07,0.61,0.29c0.3,0.66,1.16,2.12,0.81,2.78c-0.08,0.15-0.19,0.22-0.32,0.22
			c-0.47,0-1.28-0.92-2.3-3C50.94,173.39,51.61,173.09,52.15,173.09 M52.15,172.29c-0.68,0-1.44,0.32-1.53,0.36l-0.77,0.33
			l0.37,0.75c1.5,3.05,2.4,3.45,3.02,3.45c0.43,0,0.81-0.23,1.03-0.64c0.49-0.92-0.15-2.2-0.62-3.14c-0.06-0.13-0.12-0.25-0.17-0.35
			C53.37,172.82,53.03,172.29,52.15,172.29L52.15,172.29z"/>
	</g>
	<g>
		<path fill="#E2E2E2" d="M55.24,175.52c-0.16,0-0.65,0-1.56-1.47c-0.43-0.69-0.64-1.16-0.45-1.53c0.17-0.34,0.55-0.36,0.85-0.38
			c0.14-0.01,0.29-0.02,0.44-0.06l0.21-0.05l0.16,0.14c0.06,0.05,0.56,0.53,0.88,1.92c0.13,0.58,0.11,0.96-0.08,1.2
			C55.58,175.44,55.42,175.52,55.24,175.52C55.24,175.52,55.24,175.52,55.24,175.52z"/>
		<path fill="#FFFFFF" d="M54.62,172.48c0,0,0.45,0.4,0.76,1.72c0.14,0.61,0.07,0.93-0.14,0.93c-0.25,0-0.68-0.42-1.22-1.28
			C53.01,172.23,53.86,172.68,54.62,172.48 M54.83,171.59l-0.42,0.11c-0.1,0.03-0.23,0.04-0.36,0.04c-0.34,0.02-0.91,0.06-1.18,0.6
			c-0.31,0.59,0.05,1.25,0.47,1.92c0.92,1.47,1.5,1.66,1.9,1.66c0.3,0,0.58-0.13,0.76-0.37c0.35-0.45,0.26-1.09,0.16-1.54
			c-0.34-1.49-0.9-2.04-1-2.13L54.83,171.59L54.83,171.59z"/>
	</g>
	<g>
		<path fill="#E2E2E2" d="M60.79,169.41c-0.56,0-1.11-0.16-1.63-0.47c-0.17-0.1-0.69-0.42-0.61-0.9c0.1-0.58,0.94-0.74,1.83-0.91
			c0.15-0.03,0.29-0.06,0.41-0.08c0.03-0.01,0.26-0.04,0.57-0.04c0.62,0,1.09,0.12,1.42,0.36c0.2,0.15,0.31,0.36,0.29,0.59
			c-0.04,0.57-0.89,1.06-1.25,1.25C61.77,169.22,61.38,169.41,60.79,169.41L60.79,169.41z"/>
		<path fill="#FFFFFF" d="M61.36,167.4c0.37,0,0.87,0.05,1.18,0.28c0.56,0.4-0.91,1.16-0.91,1.16s-0.33,0.16-0.85,0.16
			c-0.39,0-0.88-0.09-1.42-0.42c-1.26-0.76,0.61-0.96,1.51-1.16C60.88,167.43,61.08,167.4,61.36,167.4 M61.36,166.6
			c-0.32,0-0.56,0.03-0.59,0.04l-0.03,0l-0.03,0.01c-0.12,0.03-0.26,0.05-0.4,0.08c-0.98,0.19-2,0.39-2.15,1.23
			c-0.09,0.5,0.18,0.94,0.8,1.31c0.59,0.35,1.2,0.53,1.83,0.53c0.67,0,1.12-0.21,1.21-0.25c0.65-0.33,1.42-0.88,1.47-1.58
			c0.03-0.37-0.14-0.71-0.45-0.94C62.62,166.75,62.06,166.6,61.36,166.6L61.36,166.6z"/>
	</g>
	<g>
		<path fill="#E2E2E2" d="M65.99,164.28c-0.28,0-0.59-0.1-0.92-0.29c-0.73-0.43-0.82-1-0.77-1.41c0.06-0.45,0.31-0.87,0.51-1.21
			c0.08-0.13,0.15-0.25,0.2-0.36l0.3-0.65l1.85,2.81l-0.04,0.17C67.04,163.66,66.71,164.28,65.99,164.28L65.99,164.28z"/>
		<path fill="#FFFFFF" d="M65.37,161.18l1.36,2.07c0,0-0.15,0.64-0.74,0.64c-0.19,0-0.43-0.06-0.72-0.24
			C64.06,162.94,65.06,161.83,65.37,161.18 M65.24,159.53l-0.6,1.31c-0.05,0.1-0.11,0.21-0.18,0.33c-0.22,0.37-0.49,0.84-0.56,1.36
			c-0.1,0.75,0.25,1.39,0.96,1.8c0.39,0.23,0.77,0.34,1.12,0.34c0.85,0,1.39-0.65,1.52-1.26l0.08-0.33l-0.19-0.28l-1.36-2.07
			L65.24,159.53L65.24,159.53z"/>
	</g>
	<g>
		<path fill="#E2E2E2" d="M49.92,197.24c-0.51,0-0.9-0.49-1.36-1.06c-0.32-0.39-0.71-0.88-1.01-0.97c-1.34-0.37-0.9-2.25-0.74-2.95
			c0.08-0.32,0.32-0.52,0.64-0.52c0.16,0,0.35,0.06,0.55,0.16c-0.29-0.8-0.21-1.83-0.14-2.37l0.06-0.49l0.46,0.16
			c0.57,0.2,2.44,0.93,2.44,1.99c0,0.48,0.09,0.98,0.16,1.31c0.04,0,0.07,0,0.11,0c0.43,0,0.66,0.17,0.78,0.32
			c0.18,0.22,0.23,0.51,0.16,0.88l-0.05,0.25c-0.1,0.47-0.1,0.47,0.03,0.72l0.14,0.29c0.47,1-0.82,1.65-1.58,2.03
			c-0.11,0.06-0.21,0.11-0.3,0.16C50.16,197.21,50.04,197.24,49.92,197.24z"/>
		<path fill="#FFFFFF" d="M48.26,189.58c0,0,2.17,0.76,2.17,1.61c0,0.86,0.25,1.77,0.25,1.77s0.2-0.06,0.41-0.06
			c0.31,0,0.66,0.12,0.54,0.72c-0.2,1.01-0.2,0.76,0.15,1.51c0.35,0.76-1.06,1.31-1.72,1.67c-0.05,0.03-0.1,0.04-0.16,0.04
			c-0.63,0-1.43-1.78-2.26-2.01c-0.91-0.25-0.66-1.61-0.45-2.47c0.04-0.15,0.13-0.22,0.25-0.22c0.57,0,1.87,1.33,1.87,1.33
			s0.56-0.5-0.35-0.96C48.06,192.05,48.16,190.34,48.26,189.58 M47.6,188.5l-0.13,0.97c-0.07,0.51-0.12,1.2-0.02,1.86
			c-0.51,0-0.91,0.33-1.03,0.83c-0.17,0.73-0.69,2.95,1.02,3.43c0.18,0.06,0.59,0.56,0.81,0.83c0.5,0.62,0.97,1.21,1.67,1.21
			c0.19,0,0.37-0.05,0.54-0.14c0.09-0.05,0.19-0.1,0.29-0.15c0.78-0.39,2.4-1.2,1.77-2.56c-0.06-0.12-0.1-0.22-0.14-0.3
			c-0.03-0.05-0.05-0.09-0.06-0.13c0.01-0.07,0.04-0.21,0.07-0.34l0.05-0.25c0.12-0.61-0.06-0.99-0.24-1.21
			c-0.15-0.18-0.42-0.4-0.87-0.45c-0.05-0.27-0.09-0.6-0.09-0.92c0-1.29-1.89-2.09-2.71-2.37L47.6,188.5L47.6,188.5z"/>
	</g>
	<g>
		<path fill="#E2E2E2" d="M72.59,157.82c-0.44,0-0.74-0.38-1-0.71c-0.11-0.13-0.21-0.27-0.33-0.38c-0.65-0.59-1.29-2.09-1.34-3.15
			l-0.02-0.34l0.33-0.07c0.03-0.01,0.72-0.16,1.55-0.16c0.95,0,1.71,0.19,2.25,0.57c1.28,0.91,0.55,1.96-0.03,2.8
			c-0.15,0.22-0.32,0.46-0.46,0.7C73.35,157.4,73.05,157.82,72.59,157.82L72.59,157.82z"/>
		<path fill="#FFFFFF" d="M71.78,153.41c0.68,0,1.46,0.11,2.02,0.5c1.21,0.86,0.1,1.77-0.61,2.98c-0.23,0.39-0.42,0.53-0.6,0.53
			c-0.38,0-0.69-0.64-1.06-0.99c-0.56-0.5-1.16-1.92-1.21-2.88C70.31,153.56,70.97,153.41,71.78,153.41 M71.78,152.61
			c-0.88,0-1.61,0.16-1.64,0.17l-0.66,0.15l0.04,0.68c0.06,1.17,0.75,2.77,1.47,3.43c0.08,0.07,0.18,0.2,0.28,0.33
			c0.29,0.37,0.68,0.87,1.32,0.87c0.75,0,1.16-0.7,1.29-0.93c0.14-0.24,0.3-0.46,0.44-0.68c0.57-0.83,1.53-2.22-0.07-3.35
			C73.65,152.83,72.81,152.61,71.78,152.61L71.78,152.61z"/>
	</g>
	<g>
		<path fill="#E2E2E2" d="M75.56,152.39c-0.52,0-1.26-0.06-1.74-0.61c-0.39-0.44-0.53-1.09-0.42-1.96c0.07-0.57,0.46-1.52,2.33-1.52
			c0.63,0,1.16,0.11,1.18,0.12c0.06,0.01,0.62,0.15,0.91,0.69c0.22,0.41,0.21,0.92-0.02,1.51c-0.23,0.57-0.52,1.16-1,1.16
			c0,0-0.01,0-0.02,0C76.56,152.09,76.16,152.39,75.56,152.39z"/>
		<path fill="#FFFFFF" d="M75.72,148.71c0.6,0,1.1,0.11,1.1,0.11s1.16,0.25,0.61,1.67c-0.29,0.73-0.49,0.91-0.63,0.91
			c-0.12,0-0.18-0.15-0.18-0.15s-0.2,0.76-1.06,0.76s-2-0.19-1.77-2.12C73.91,148.91,74.91,148.71,75.72,148.71 M75.72,147.91
			c-2.26,0-2.66,1.31-2.73,1.87c-0.12,0.98,0.06,1.75,0.52,2.27c0.59,0.67,1.45,0.74,2.04,0.74c0.66,0,1.13-0.29,1.42-0.62
			c0.69-0.13,1.02-0.98,1.19-1.4c0.35-0.88,0.19-1.49,0-1.85c-0.37-0.7-1.1-0.87-1.18-0.89C76.96,148.03,76.4,147.91,75.72,147.91
			L75.72,147.91z"/>
	</g>
	<g>
		<path fill="#E2E2E2" d="M85.3,147.95c-0.56,0-0.93-0.12-1.16-0.37c-0.3-0.33-0.26-0.78-0.22-1.17l0.02-0.25
			c0.04-0.6,0.42-0.75,0.62-0.82c0.16-0.06,0.24-0.09,0.29-0.46l0.03-0.25l0.24-0.08c0.02,0,0.4-0.13,0.85-0.13
			c0.79,0,1.33,0.39,1.48,1.08c0.11,0.5,0.05,0.9-0.18,1.18c-0.1,0.13-0.24,0.23-0.4,0.29c0,0.13-0.04,0.27-0.12,0.41
			c-0.21,0.35-0.64,0.55-1.3,0.57L85.3,147.95z"/>
		<path fill="#FFFFFF" d="M85.97,144.82c0.45,0,0.96,0.14,1.09,0.77c0.21,0.99-0.41,1.06-0.6,1.06c-0.03,0-0.05,0-0.05,0
			s0.45,0.86-0.96,0.91c-0.05,0-0.1,0-0.15,0c-1.25,0-1.01-0.64-0.96-1.37c0.05-0.76,0.76-0.15,0.91-1.26
			C85.25,144.93,85.58,144.82,85.97,144.82 M85.97,144.02c-0.5,0-0.92,0.13-0.97,0.15l-0.48,0.15l-0.07,0.5
			c-0.01,0.07-0.02,0.11-0.03,0.14c0,0-0.01,0-0.01,0.01c-0.22,0.09-0.81,0.32-0.87,1.17c-0.01,0.08-0.01,0.16-0.02,0.23
			c-0.04,0.43-0.1,1.01,0.32,1.48c0.41,0.45,1.03,0.51,1.46,0.51c0.06,0,0.11,0,0.18,0c0.8-0.03,1.35-0.29,1.63-0.77
			c0.07-0.11,0.11-0.23,0.14-0.35c0.13-0.08,0.25-0.18,0.35-0.3c0.31-0.38,0.39-0.89,0.26-1.52
			C87.65,144.54,86.95,144.02,85.97,144.02L85.97,144.02z"/>
	</g>
	<g>
		<path fill="#E2E2E2" d="M89.89,148.71c-0.09-0.02-1.82-0.32-2.01-1.65c-0.17-1.22,0.04-1.6,1.08-1.95
			c0.04-0.01,0.15-0.05,0.48-0.05c0.92,0,2.51,0.28,2.62,1.35c0.05,0.49-0.12,0.8-0.28,0.97c-0.19,0.21-0.44,0.32-0.64,0.38
			c-0.04,0.25-0.14,0.46-0.29,0.63c-0.28,0.29-0.64,0.34-0.83,0.34L89.89,148.71z"/>
		<path fill="#FFFFFF" d="M89.43,145.45c0.71,0,2.14,0.21,2.22,0.99c0.1,0.96-0.91,0.96-0.91,0.96c0.04,0.84-0.55,0.91-0.74,0.91
			c-0.04,0-0.06,0-0.06,0s-1.51-0.25-1.67-1.31s-0.03-1.24,0.81-1.51C89.14,145.46,89.26,145.45,89.43,145.45 M89.43,144.65
			c-0.35,0-0.51,0.04-0.6,0.07c-1.23,0.41-1.55,0.97-1.35,2.39c0.18,1.29,1.55,1.86,2.33,1.99c0.04,0.01,0.1,0.01,0.19,0.01
			c0.26,0,0.74-0.06,1.12-0.46c0.12-0.13,0.26-0.32,0.34-0.6c0.2-0.08,0.42-0.21,0.6-0.42c0.21-0.23,0.45-0.64,0.38-1.28
			C92.32,145.1,90.74,144.65,89.43,144.65L89.43,144.65z"/>
	</g>
	<g>
		<path fill="#E2E2E2" d="M85.83,152.44c-0.64-0.04-1.58-0.43-2.06-1.06c-0.27-0.36-0.37-0.78-0.27-1.19
			c0.13-0.6,0.58-0.95,1.24-0.95c0.84,0,1.83,0.56,1.87,0.58l0.18,0.1l0.02,0.2c0.03,0.25,0.13,1.52-0.34,2.05
			c-0.15,0.17-0.35,0.26-0.58,0.26L85.83,152.44z"/>
		<path fill="#FFFFFF" d="M84.73,149.64c0.74,0,1.68,0.53,1.68,0.53s0.2,1.87-0.53,1.87c-0.01,0-0.02,0-0.03,0
			c-0.76-0.05-2.2-0.73-1.97-1.77C83.99,149.8,84.33,149.64,84.73,149.64 M84.73,148.84c-0.84,0-1.45,0.47-1.63,1.26
			c-0.12,0.53,0,1.06,0.35,1.52c0.55,0.74,1.6,1.17,2.35,1.22l0.03,0l0.06,0c0.34,0,0.65-0.14,0.88-0.39
			c0.56-0.62,0.5-1.86,0.44-2.36l-0.04-0.41l-0.36-0.2C86.69,149.42,85.66,148.84,84.73,148.84L84.73,148.84z"/>
	</g>
	<g>
		<path fill="#E2E2E2" d="M89.6,137.89c-0.35,0-0.71-0.21-1.2-0.49c-0.3-0.17-0.67-0.38-1.1-0.59l-1.02-0.48l1.43-0.36
			c0.24-0.15,1.06-0.63,1.77-0.63c0.16,0,0.31,0.02,0.44,0.07c0.36,0.13,0.59,0.32,0.7,0.59c0.17,0.42-0.02,0.88-0.28,1.38
			C90.14,137.8,89.83,137.89,89.6,137.89C89.61,137.89,89.61,137.89,89.6,137.89z"/>
		<path fill="#FFFFFF" d="M89.48,135.75c0.11,0,0.21,0.01,0.31,0.05c0.71,0.25,0.56,0.71,0.2,1.41c-0.1,0.2-0.22,0.28-0.38,0.28
			c-0.41,0-1.05-0.53-2.14-1.04l0.4-0.1C87.87,136.35,88.78,135.75,89.48,135.75 M89.48,134.95c-0.77,0-1.59,0.45-1.93,0.66
			l-0.28,0.07l-2.19,0.55l2.04,0.95c0.42,0.19,0.77,0.39,1.07,0.57c0.55,0.32,0.95,0.54,1.4,0.54c0.28,0,0.78-0.09,1.1-0.72
			c0.23-0.46,0.54-1.08,0.29-1.71c-0.15-0.37-0.47-0.65-0.94-0.82C89.88,134.98,89.68,134.95,89.48,134.95L89.48,134.95z"/>
	</g>
	<g>
		<path fill="#E2E2E2" d="M106.27,130.83c-0.29,0-0.63-0.19-1.07-0.59c-0.36-0.34-0.72-0.52-1.04-0.68
			c-0.57-0.29-1.27-0.64-0.71-1.83c0.6-1.27,1.73-1.37,2.06-1.37c0.04,0,0.08,0,0.11,0c0.12-0.01,0.23-0.02,0.34-0.02
			c1.08,0,2.08,0.62,2.18,1.35c0.07,0.49-0.28,1.19-0.55,1.5c-0.18,0.21-0.38,0.32-0.58,0.32c-0.24,0-0.45-0.16-0.54-0.42
			c-0.02-0.02-0.03-0.03-0.04-0.03c-0.01,0,0,0.04,0.05,0.1c0.3,0.39,0.52,0.95,0.33,1.33
			C106.71,130.71,106.51,130.83,106.27,130.83z"/>
		<path fill="#FFFFFF" d="M105.96,126.74c0.92,0,1.72,0.53,1.79,1.01c0.06,0.43-0.43,1.37-0.74,1.37c-0.07,0-0.13-0.05-0.17-0.16
			c-0.08-0.21-0.25-0.3-0.42-0.3c-0.31,0-0.61,0.31-0.26,0.76c0.35,0.46,0.44,1.01,0.11,1.01c-0.16,0-0.42-0.14-0.79-0.48
			c-1.14-1.06-2.27-0.76-1.67-2.04c0.49-1.04,1.38-1.14,1.7-1.14c0.08,0,0.12,0.01,0.12,0.01
			C105.74,126.75,105.86,126.74,105.96,126.74 M105.96,125.94c-0.12,0-0.24,0.01-0.36,0.02c-0.03,0-0.06,0-0.1,0
			c-0.39,0-1.72,0.12-2.42,1.6c-0.72,1.53,0.33,2.07,0.9,2.35c0.29,0.15,0.63,0.32,0.95,0.62c0.51,0.48,0.94,0.7,1.34,0.7
			c0.38,0,0.73-0.21,0.89-0.55c0.12-0.25,0.13-0.52,0.08-0.79c0.23-0.06,0.45-0.2,0.65-0.43c0.32-0.37,0.74-1.18,0.64-1.82
			C108.41,126.7,107.25,125.94,105.96,125.94L105.96,125.94z"/>
	</g>
	<g>
		<path fill="#E2E2E2" d="M110.86,123.52c-0.45,0-0.92-0.29-1.26-0.78c-0.43-0.61-0.56-1.37-0.33-2.01l0.08-0.23l0.25-0.03
			c0,0,0.11-0.01,0.28-0.01c0.9,0,1.49,0.37,1.6,1.02c0.04,0.23,0.14,0.38,0.24,0.52c0.24,0.35,0.42,0.73-0.21,1.29
			C111.32,123.44,111.1,123.52,110.86,123.52L110.86,123.52z"/>
		<path fill="#FFFFFF" d="M109.87,120.85c0.38,0,1.1,0.08,1.21,0.69c0.15,0.83,0.83,0.83,0.15,1.44c-0.11,0.1-0.24,0.14-0.37,0.14
			c-0.7,0-1.59-1.18-1.21-2.26C109.64,120.86,109.73,120.85,109.87,120.85 M109.87,120.05c-0.19,0-0.32,0.02-0.32,0.02l-0.49,0.06
			l-0.17,0.47c-0.27,0.77-0.13,1.66,0.38,2.38c0.42,0.6,1.02,0.95,1.59,0.95c0.34,0,0.65-0.12,0.91-0.34
			c0.85-0.76,0.57-1.4,0.28-1.82c-0.09-0.13-0.15-0.21-0.17-0.36C111.71,120.55,110.97,120.05,109.87,120.05L109.87,120.05z"/>
	</g>
	<g>
		<path fill="#E2E2E2" d="M101.32,114.6c-0.65,0-1.9-0.51-2.5-2.4l-0.2-0.64l3.36,0.63l0.04,0.29c0.06,0.43,0.15,1.47-0.22,1.9
			C101.67,114.52,101.5,114.6,101.32,114.6z"/>
		<path fill="#FFFFFF" d="M99.2,112.08l2.42,0.45c0,0,0.23,1.67-0.3,1.67C100.79,114.2,99.73,113.75,99.2,112.08 M98.03,111.05
			l0.41,1.28c0.67,2.11,2.13,2.68,2.88,2.68c0.3,0,0.58-0.13,0.78-0.36c0.44-0.51,0.42-1.48,0.32-2.22l-0.08-0.57l-0.57-0.11
			l-2.42-0.45L98.03,111.05L98.03,111.05z"/>
	</g>
	<g>
		<path fill="#E2E2E2" d="M74.04,116.1c-0.35,0-0.5-0.19-0.56-0.3c-0.02-0.04-0.04-0.09-0.05-0.13c-0.18,0.02-0.4,0.03-0.65,0.03
			c-0.57,0-1.15-0.07-1.74-0.2c-0.77-0.17-1.24-0.61-1.3-1.19c-0.11-1.02,1.08-2.19,3.27-3.19c0.16-0.07,0.33-0.11,0.5-0.11
			c0.83,0,1.48,0.87,1.77,1.33c0.14-0.02,0.33-0.03,0.51-0.03c0.54,0,0.89,0.14,1.06,0.41c0.13,0.21,0.12,0.52-0.02,0.92
			c-0.25,0.71-1,1.91-2.08,2.31C74.45,116.05,74.22,116.1,74.04,116.1z"/>
		<path fill="#FFFFFF" d="M73.5,111.4c0.85,0,1.56,1.36,1.56,1.36s0.36-0.07,0.72-0.07c0.3,0,0.61,0.05,0.71,0.22
			c0.23,0.38-0.68,2.19-1.89,2.65c-0.26,0.1-0.44,0.14-0.56,0.14c-0.45,0-0.12-0.51-0.12-0.51s-0.43,0.11-1.15,0.11
			c-0.45,0-1.01-0.04-1.65-0.19c-1.67-0.38-1.41-2.04,2.04-3.63C73.28,111.42,73.39,111.4,73.5,111.4 M73.5,110.6
			c-0.23,0-0.46,0.05-0.67,0.15c-2.38,1.1-3.62,2.38-3.5,3.6c0.04,0.36,0.27,1.24,1.61,1.54c0.61,0.14,1.23,0.21,1.83,0.21
			c0.15,0,0.29,0,0.41-0.01c0.19,0.26,0.49,0.41,0.86,0.41c0.24,0,0.5-0.06,0.84-0.19c1.2-0.45,2.04-1.77,2.31-2.55
			c0.18-0.52,0.18-0.93-0.02-1.26c-0.36-0.61-1.14-0.61-1.4-0.61c-0.11,0-0.21,0-0.31,0.01C75.09,111.36,74.4,110.6,73.5,110.6
			L73.5,110.6z"/>
	</g>
	<g>
		<path fill="#E2E2E2" d="M78.15,124.39c-0.52,0-0.81-0.43-0.92-0.93c-0.69,0.34-1.96,0.87-3.15,0.87c-0.21,0-0.41-0.02-0.6-0.05
			c-0.24-0.04-0.98-0.17-1.14-0.73c-0.04-0.14-0.05-0.32,0.04-0.53c-0.4-0.3-0.55-0.94-0.58-1.09l-0.01-0.05l0-0.05
			c0-0.08-0.01-0.34-0.15-0.49c-0.09-0.1-0.23-0.14-0.43-0.14c-0.54,0-0.96-0.25-1.15-0.69c-0.27-0.62-0.02-1.47,0.63-2.18
			c0.24-0.26,0.41-0.43,0.54-0.57c0.37-0.38,0.46-0.47,1-1.34l0.13-0.21l2.06,0.18l0.07,0.03c0.05,0.03,1.25,0.64,1.43,2.05
			c0.03,0.27-0.01,0.55-0.11,0.83c0.03,0,0.07,0,0.1,0c0.13,0,0.27,0.02,0.46,0.06c0.24,0.04,0.56,0.11,1.05,0.13
			c0.39,0.02,0.69,0.1,0.91,0.24c0.18-0.4,0.3-0.71,0.35-0.91c0.14-0.63,0.47-0.77,0.72-0.77c0.4,0,0.89,0.33,1.97,1.91
			c0.42,0.62,0.53,1.28,0.31,1.9c-0.59,1.66-3.22,2.49-3.25,2.49C78.33,124.38,78.24,124.39,78.15,124.39z"/>
		<path fill="#FFFFFF" d="M72.56,116.62l1.74,0.15c0,0,1.06,0.53,1.21,1.74c0.15,1.21-1.82,2.95-1.82,2.95s0.83-0.45,1.51-1.29
			c0.31-0.38,0.47-0.49,0.7-0.49c0.27,0,0.64,0.15,1.5,0.19c0.94,0.04,1.01,0.46,0.9,0.79c-0.13,0.25-0.22,0.42-0.22,0.42
			s0.15-0.19,0.22-0.42c0.26-0.5,0.66-1.32,0.76-1.77c0.06-0.27,0.15-0.45,0.33-0.45c0.28,0,0.76,0.45,1.64,1.74
			c1.44,2.12-1.97,3.56-2.72,3.78c-0.06,0.02-0.11,0.03-0.16,0.03c-0.6,0-0.6-1.16-0.6-1.16s-1.84,1.1-3.48,1.1
			c-0.18,0-0.36-0.01-0.54-0.04c-1.31-0.23-0.78-0.89-0.43-1.2c0.06-0.04,0.13-0.09,0.2-0.17c0,0-0.09,0.06-0.2,0.17
			c-0.1,0.06-0.18,0.08-0.26,0.08c-0.48,0-0.67-0.93-0.67-0.93s0.08-1.06-0.98-1.06s-1.14-1.21-0.23-2.19
			C71.88,117.61,71.8,117.83,72.56,116.62 M72.14,115.78l-0.26,0.42c-0.52,0.83-0.58,0.9-0.95,1.27c-0.14,0.14-0.31,0.32-0.55,0.58
			c-0.76,0.82-1.03,1.85-0.7,2.61c0.25,0.58,0.82,0.92,1.51,0.92c0.11,0,0.14,0.02,0.14,0.02c0.02,0.02,0.04,0.12,0.04,0.2l0,0.09
			l0.02,0.11c0.08,0.41,0.25,0.83,0.53,1.14c-0.03,0.2-0.01,0.38,0.03,0.52c0.15,0.53,0.64,0.88,1.46,1.02
			c0.21,0.04,0.44,0.06,0.67,0.06c1.06,0,2.16-0.39,2.92-0.72c0.24,0.49,0.65,0.78,1.15,0.78c0.13,0,0.26-0.02,0.39-0.06
			c0.03-0.01,2.84-0.87,3.51-2.74c0.18-0.52,0.27-1.33-0.35-2.26c-1.05-1.54-1.65-2.09-2.3-2.09c-0.26,0-0.9,0.1-1.11,1.08
			c-0.02,0.11-0.08,0.27-0.16,0.47c-0.2-0.06-0.43-0.1-0.68-0.11c-0.46-0.02-0.76-0.08-1-0.12c-0.05-0.01-0.1-0.02-0.14-0.03
			c0.02-0.17,0.03-0.34,0.01-0.51c-0.16-1.29-1.11-2.09-1.65-2.36l-0.14-0.07l-0.15-0.01l-1.74-0.15L72.14,115.78L72.14,115.78z"/>
	</g>
	<g>
		<path fill="#E2E2E2" d="M88.41,122.5c-0.15,0-0.33-0.01-0.53-0.03c-0.77-0.09-1.34-0.47-1.56-1.04c-0.22-0.58-0.04-1.26,0.47-1.82
			c0.36-0.39,0.82-0.58,1.41-0.58c0.32,0,0.62,0.06,0.89,0.1c0.19,0.04,0.37,0.07,0.52,0.07c0.24-0.04,0.38-0.11,0.52-0.18
			c0.32-0.15,0.71-0.34,1.24-0.34c0.27,0,0.54,0.05,0.83,0.14c0.37,0.12,0.6,0.32,0.68,0.59c0.15,0.45-0.16,0.88-0.49,1.33
			c-0.19,0.26-0.39,0.54-0.47,0.78c-0.14,0.41-0.43,0.63-0.83,0.63c-0.28,0-0.55-0.11-0.8-0.21c-0.14-0.05-0.32-0.13-0.39-0.13
			c0.02,0.01-0.03,0.07-0.08,0.12C89.6,122.17,89.28,122.5,88.41,122.5z"/>
		<path fill="#FFFFFF" d="M91.38,119.07c0.21,0,0.44,0.03,0.7,0.12c1.14,0.38-0.23,1.29-0.53,2.19c-0.09,0.27-0.25,0.36-0.45,0.36
			c-0.38,0-0.88-0.34-1.19-0.34c-0.07,0-0.13,0.02-0.17,0.05c-0.33,0.26-0.43,0.64-1.33,0.64c-0.14,0-0.3-0.01-0.49-0.03
			c-1.36-0.15-1.66-1.29-0.83-2.19c0.33-0.35,0.72-0.46,1.12-0.46c0.52,0,1.04,0.17,1.42,0.17c0.07,0,0.13-0.01,0.19-0.02
			C90.28,119.46,90.7,119.07,91.38,119.07 M91.38,118.27c-0.62,0-1.08,0.22-1.41,0.38c-0.13,0.06-0.26,0.12-0.35,0.15
			c-0.1,0-0.28-0.04-0.45-0.07c-0.29-0.05-0.61-0.11-0.96-0.11c-0.7,0-1.27,0.24-1.71,0.71c-0.62,0.67-0.82,1.51-0.55,2.23
			c0.27,0.72,0.96,1.2,1.89,1.3c0.22,0.02,0.41,0.03,0.58,0.03c0.9,0,1.31-0.3,1.64-0.63c0.03,0.01,0.07,0.03,0.1,0.04
			c0.27,0.11,0.6,0.24,0.95,0.24c0.57,0,1.02-0.34,1.21-0.91c0.06-0.19,0.25-0.45,0.41-0.67c0.35-0.49,0.75-1.04,0.55-1.69
			c-0.13-0.4-0.44-0.68-0.94-0.84C92.01,118.33,91.69,118.27,91.38,118.27L91.38,118.27z"/>
	</g>
	<g>
		<path fill="#E2E2E2" d="M75.51,135.34c-0.27,0-0.5-0.1-0.74-0.2c-0.16-0.07-0.34-0.15-0.56-0.2c-0.31-0.07-0.68-0.2-0.8-0.54
			c-0.14-0.41,0.14-0.77,0.62-1.38c0.12-0.16,0.26-0.33,0.41-0.53c0.11-0.15,0.21-0.27,0.28-0.37c-0.09,0-0.16,0.02-0.24,0.03
			c-0.15,0.02-0.3,0.05-0.44,0.05c-0.29,0-0.51-0.1-0.66-0.28c-0.18-0.23-0.22-0.39-0.25-0.53c-0.04-0.16-0.09-0.37-0.45-0.94
			c-0.13-0.21-0.21-0.33-0.27-0.41c-0.02,0-0.04,0-0.07,0c-0.15,0-0.32-0.04-0.53-0.11c-0.45-0.16-0.64-0.3-0.8-0.41
			c-0.15-0.11-0.28-0.2-0.7-0.34c-0.15-0.05-0.27-0.07-0.39-0.07c-0.19,0-0.3,0.07-0.43,0.15c-0.13,0.08-0.29,0.17-0.5,0.17
			c-0.57,0-1.58-1.29-1.68-1.76c-0.01,0-0.02,0-0.03,0c-0.11,0-0.45-0.01-0.78-0.03c-0.2-0.01-0.44-0.02-0.71-0.03
			c-0.49-0.03-1.17-0.13-1.44-0.66c-0.27-0.53-0.07-1.26,0.67-2.45l0.07-0.11l0.12-0.05c0.04-0.02,0.97-0.4,1.62-0.48
			c0.09-0.01,0.18-0.03,0.26-0.05c0.13-0.03,0.27-0.07,0.41-0.07c0.84,0,0.84,1.07,0.84,1.58c0,0.19,0.01,0.31,0.03,0.39
			c0.06-0.04,0.14-0.09,0.19-0.13c0.17-0.12,0.33-0.23,0.51-0.27c0.09-0.02,0.18-0.03,0.25-0.03c0.55,0,0.76,0.47,1.33,1.94
			c0.03,0.08,0.08,0.2,0.13,0.32c0.16-0.14,0.37-0.25,0.68-0.27c0.08-0.01,0.14-0.01,0.18-0.02c0-0.01,0-0.03,0-0.05
			c-0.01-0.24-0.02-0.64,0.26-1.16c0.24-0.45,0.43-0.8,0.81-0.8c0.32,0,0.51,0.24,0.84,0.68c0.12,0.16,0.27,0.36,0.45,0.58
			c0.51,0.63,0.58,0.83,0.62,1.13c0.02,0.16,0.05,0.38,0.54,1.18c0.3,0.5,0.45,0.81,0.54,1c0.03,0.07,0.05,0.12,0.08,0.16
			c-0.01-0.02,0-0.03,0.03-0.03c0.02,0,0.06,0,0.1,0.01c0.21,0.03,0.53,0.07,1.05,0.19c0.06,0.01,0.11,0.03,0.17,0.04l-0.13-0.1
			l0.37-0.5c-0.02-0.2-0.09-0.62-0.33-1.15c-0.15-0.33-0.17-0.33-0.3-0.36c-0.16-0.03-0.4-0.08-0.75-0.29
			c-0.87-0.52-0.53-1.15-0.4-1.39c0.02-0.04,0.05-0.1,0.06-0.12c0-0.37,0.24-0.59,0.73-1.02c0.16-0.14,0.36-0.31,0.6-0.54
			c0.3-0.28,0.58-0.41,0.85-0.41c0.9,0,1.2,1.32,1.48,2.91c0.01,0.06,0.02,0.11,0.03,0.17c0.01,0,0.03,0,0.04,0
			c0.16,0,0.32,0.07,0.48,0.21c0.34,0.3,0.43,0.44,0.53,0.62c0.07,0.14,0.17,0.3,0.7,0.83c0.16,0.16,0.66,0.66,0.49,1.2
			c-0.2,0.64-1.14,0.81-2.14,0.99l-0.25,0.04c-0.24,0.04-0.47,0.08-0.52,0.11c0,0.01-0.04,0.09-0.07,0.17
			c-0.07,0.15-0.16,0.34-0.31,0.62c-0.51,0.89-0.55,0.95-1.06,1.66l-0.4,0.56C76.36,135.07,75.97,135.34,75.51,135.34z"/>
		<path fill="#FFFFFF" d="M67.5,124.15c0.27,0,0.44,0.21,0.44,1.18c0,0.65,0.14,0.84,0.33,0.84c0.28,0,0.66-0.42,0.88-0.46
			c0.07-0.01,0.12-0.02,0.17-0.02c0.25,0,0.4,0.25,0.96,1.69c0.26,0.67,0.36,0.88,0.43,0.88c0.12,0,0.18-0.53,0.78-0.58
			c0.98-0.08,0.23-0.45,0.76-1.44c0.22-0.4,0.33-0.59,0.46-0.59c0.19,0,0.4,0.4,0.98,1.12c0.98,1.21,0.08,0.53,1.14,2.27
			s0.08,1.06,2.04,1.51c0.37,0.09,0.62,0.12,0.79,0.12c0.74,0-0.11-0.65-0.11-0.65l0.23-0.3c0,0,0-0.61-0.38-1.44
			c-0.38-0.83-0.45-0.38-1.21-0.83c-0.76-0.45-0.15-0.83-0.15-1.14s0.3-0.45,1.21-1.29c0.22-0.21,0.42-0.31,0.58-0.31
			c0.51,0,0.8,0.92,1.08,2.58c0.13,0.77,0.17,1,0.2,1c0.04,0,0.04-0.5,0.27-0.5c0.06,0,0.13,0.03,0.22,0.11
			c0.68,0.61,0.15,0.38,1.21,1.44c1.06,1.06-0.15,1.29-1.44,1.51s-0.83,0.08-1.44,1.14s-0.53,0.91-1.44,2.19
			c-0.41,0.58-0.7,0.76-0.98,0.76c-0.34,0-0.68-0.26-1.21-0.38c-0.98-0.23-0.45-0.61,0.45-1.82c0.45-0.61,0.57-0.7,0.55-0.7
			c-0.01,0-0.04,0.02-0.09,0.02c-0.05,0-0.12-0.03-0.16-0.15c-0.05-0.14-0.16-0.18-0.31-0.18c-0.21,0-0.48,0.08-0.71,0.08
			c-0.14,0-0.26-0.03-0.34-0.13c-0.3-0.38,0-0.38-0.68-1.44c-0.34-0.53-0.4-0.62-0.47-0.62c-0.04,0-0.09,0.03-0.2,0.03
			c-0.08,0-0.21-0.02-0.39-0.09c-0.83-0.3-0.61-0.45-1.51-0.76c-0.2-0.07-0.37-0.09-0.51-0.09c-0.5,0-0.69,0.32-0.93,0.32
			c-0.3,0-1.21-1.06-1.29-1.44c-0.08-0.38-0.53-0.3-1.89-0.38c-1.36-0.08-1.59-0.68-0.45-2.5c0,0,0.91-0.38,1.51-0.45
			C67.12,124.24,67.33,124.15,67.5,124.15 M67.5,123.35c-0.19,0-0.36,0.04-0.51,0.08c-0.07,0.02-0.14,0.04-0.21,0.05
			c-0.69,0.09-1.62,0.47-1.72,0.51l-0.24,0.1l-0.14,0.22c-0.61,0.98-1.12,2.01-0.69,2.84c0.42,0.8,1.44,0.86,1.78,0.88
			c0.28,0.02,0.52,0.02,0.72,0.03c0.19,0.01,0.4,0.02,0.55,0.03c0.33,0.68,1.23,1.76,1.95,1.76c0.32,0,0.55-0.14,0.7-0.23
			c0.13-0.08,0.16-0.09,0.22-0.09c0.05,0,0.13,0.01,0.26,0.05c0.36,0.12,0.46,0.19,0.6,0.29c0.22,0.15,0.43,0.29,0.9,0.46
			c0.18,0.07,0.35,0.11,0.51,0.13c0.03,0.05,0.06,0.1,0.1,0.16l0.05,0.08c0.33,0.51,0.37,0.68,0.4,0.81
			c0.05,0.21,0.11,0.42,0.33,0.69c0.14,0.17,0.38,0.37,0.78,0.42c-0.05,0.06-0.1,0.12-0.14,0.18c-0.5,0.64-0.9,1.14-0.68,1.76
			c0.21,0.59,0.85,0.74,1.09,0.8c0.18,0.04,0.34,0.11,0.5,0.18c0.26,0.11,0.55,0.23,0.89,0.23c0.76,0,1.27-0.59,1.64-1.1l0.4-0.56
			c0.52-0.74,0.58-0.81,1.08-1.7c0.17-0.29,0.26-0.5,0.33-0.65c0.08-0.02,0.19-0.04,0.3-0.05l0.25-0.04
			c1.07-0.19,2.17-0.38,2.45-1.26c0.16-0.52-0.03-1.06-0.59-1.61c-0.49-0.49-0.57-0.64-0.63-0.75c-0.12-0.21-0.23-0.38-0.61-0.72
			c-0.14-0.13-0.29-0.21-0.45-0.26c-0.25-1.42-0.57-3.12-1.85-3.12c-0.38,0-0.75,0.17-1.12,0.52c-0.24,0.22-0.44,0.39-0.59,0.53
			c-0.47,0.41-0.82,0.71-0.87,1.22c0,0.01-0.01,0.02-0.01,0.03c-0.56,1.05,0.1,1.65,0.55,1.92c0.37,0.22,0.65,0.29,0.82,0.33
			c0.02,0.03,0.04,0.08,0.07,0.15c0.17,0.37,0.24,0.68,0.28,0.88l-0.04,0.05l-0.13,0.17c-0.34-0.07-0.58-0.11-0.75-0.13
			c-0.09-0.2-0.24-0.51-0.52-0.96c-0.44-0.73-0.47-0.92-0.49-1.03c-0.06-0.41-0.17-0.67-0.71-1.33c-0.18-0.22-0.33-0.42-0.44-0.57
			c-0.35-0.47-0.63-0.84-1.16-0.84c-0.62,0-0.91,0.54-1.16,1.01c-0.22,0.42-0.29,0.78-0.3,1.04c-0.09,0.02-0.18,0.04-0.26,0.07
			c-0.54-1.39-0.84-2.09-1.66-2.09c-0.1,0-0.21,0.01-0.33,0.04c-0.09,0.02-0.18,0.05-0.26,0.09
			C68.71,124.38,68.53,123.35,67.5,123.35L67.5,123.35z"/>
	</g>
	<g>
		<path fill="#E2E2E2" d="M59.4,134.45c-0.25,0-0.57-0.07-1.01-0.16c-0.25-0.05-0.55-0.11-0.89-0.17c-0.29-0.05-1.17-0.21-1.37-0.87
			c-0.22-0.73,0.53-1.46,1.14-2.06l0.18-0.17c0.02-0.04,0.27-0.31,1.08-0.55c0.15-0.04,0.28-0.07,0.41-0.07
			c0.92,0,1.06,1.04,1.24,2.36c0.1,0.75,0.11,1.16-0.13,1.44C59.81,134.45,59.5,134.45,59.4,134.45
			C59.4,134.45,59.4,134.45,59.4,134.45z"/>
		<path fill="#FFFFFF" d="M58.92,130.8c0.51,0,0.65,0.59,0.84,2.02c0.13,0.95,0.09,1.23-0.37,1.23c-0.34,0-0.92-0.16-1.83-0.33
			c-2.12-0.38-0.61-1.67,0.15-2.42c0,0,0.15-0.23,0.91-0.45C58.74,130.82,58.84,130.8,58.92,130.8 M58.92,130
			c-0.16,0-0.33,0.03-0.52,0.08c-0.73,0.22-1.09,0.48-1.27,0.68l-0.15,0.15c-0.65,0.63-1.53,1.5-1.24,2.46
			c0.27,0.89,1.34,1.08,1.68,1.14c0.34,0.06,0.63,0.12,0.88,0.17c0.46,0.1,0.8,0.17,1.09,0.17c0.39,0,0.71-0.13,0.93-0.38
			c0.38-0.43,0.33-1.03,0.23-1.76C60.37,131.32,60.19,130,58.92,130L58.92,130z"/>
	</g>
	<g>
		<path fill="#E2E2E2" d="M56.49,142.83c-1.4-0.09-1.34-1.17-1.3-1.81c0.01-0.13,0.02-0.27,0.02-0.4v-0.34l2.56-0.43l0.06,0.41
			c0.02,0.15,0.19,1.52-0.4,2.2c-0.22,0.25-0.51,0.38-0.85,0.38L56.49,142.83z"/>
		<path fill="#FFFFFF" d="M57.42,140.31c0,0,0.29,2.12-0.85,2.12c-0.02,0-0.04,0-0.06,0c-1.21-0.08-0.91-0.98-0.91-1.82
			L57.42,140.31 M58.1,139.39l-0.81,0.14l-1.82,0.3l-0.67,0.11v0.68c0,0.12-0.01,0.25-0.02,0.38c-0.04,0.64-0.13,2.13,1.67,2.24
			c0.04,0,0.07,0,0.11,0c0.46,0,0.85-0.18,1.15-0.52c0.69-0.79,0.53-2.23,0.49-2.51L58.1,139.39L58.1,139.39z"/>
	</g>
	<g>
		<path fill="#E2E2E2" d="M67.55,142.67c-0.56,0-0.85-0.61-1.08-1.1c-0.08-0.16-0.19-0.41-0.25-0.46l-0.73-0.37l0.76-0.33l2.06-0.99
			l0.17,0.08c0.17,0.08,0.41,0.29,0.51,0.64c0.14,0.49-0.02,1.11-0.5,1.84C68.31,142.27,68,142.67,67.55,142.67
			C67.55,142.67,67.55,142.67,67.55,142.67z"/>
		<path fill="#FFFFFF" d="M68.32,139.86c0,0,0.83,0.38-0.15,1.89c-0.24,0.37-0.44,0.52-0.62,0.52c-0.53,0-0.78-1.33-1.12-1.5
			L68.32,139.86 M68.31,138.97l-0.34,0.16l-1.89,0.91l-1.47,0.71l1.34,0.67c0.05,0.08,0.11,0.22,0.16,0.31
			c0.25,0.53,0.63,1.33,1.44,1.33c0.72,0,1.15-0.66,1.29-0.88c0.54-0.83,0.72-1.56,0.54-2.17c-0.14-0.47-0.47-0.77-0.73-0.89
			L68.31,138.97L68.31,138.97z"/>
	</g>
	<g>
		<path fill="#E2E2E2" d="M51.61,143.3c-0.53,0-0.91-0.13-1.16-0.38c-0.41-0.41-0.4-1.04-0.39-1.77l0-0.66l3.53-0.48l0.06,0.38
			c0.01,0.06,0.23,1.4-0.42,2.24c-0.29,0.38-0.7,0.6-1.22,0.64C51.86,143.3,51.73,143.3,51.61,143.3L51.61,143.3z"/>
		<path fill="#FFFFFF" d="M53.26,140.46c0,0,0.38,2.27-1.29,2.42c-0.13,0.01-0.25,0.02-0.36,0.02c-1.28,0-1.15-0.81-1.15-2.06
			L53.26,140.46 M53.92,139.57l-0.77,0.1l-2.8,0.38l-0.69,0.09v0.7l0,0.31c-0.01,0.78-0.01,1.52,0.51,2.05
			c0.33,0.34,0.81,0.5,1.45,0.5c0.13,0,0.27-0.01,0.43-0.02c0.62-0.06,1.14-0.33,1.5-0.8c0.74-0.96,0.53-2.39,0.5-2.55L53.92,139.57
			L53.92,139.57z"/>
	</g>
	<g>
		<path fill="#E2E2E2" d="M47.93,144.72c-0.98-0.07-1.29-0.94-1.59-1.78c-0.13-0.38-0.27-0.77-0.48-1.15l-0.2-0.37l2.15-1.02
			l1.44,2.51l0.01,0.08c0.01,0.09,0.08,0.88-0.36,1.37c-0.21,0.24-0.51,0.37-0.87,0.37L47.93,144.72z"/>
		<path fill="#FFFFFF" d="M47.66,140.92l1.21,2.12c0,0,0.14,1.29-0.82,1.29c-0.03,0-0.05,0-0.08,0c-1.06-0.08-1.06-1.44-1.74-2.72
			L47.66,140.92 M47.98,139.88l-0.67,0.32l-1.44,0.68l-0.76,0.36l0.39,0.74c0.19,0.36,0.32,0.74,0.45,1.1
			c0.31,0.87,0.69,1.96,1.94,2.05c0.05,0,0.1,0.01,0.14,0.01c0.47,0,0.87-0.17,1.16-0.5c0.54-0.61,0.47-1.5,0.46-1.68l-0.02-0.16
			l-0.08-0.14l-1.21-2.12L47.98,139.88L47.98,139.88z"/>
	</g>
	<g>
		<path fill="#E2E2E2" d="M46.67,145.86l-0.09-0.02c-0.5-0.12-2.02-0.5-2.19-3.01l-0.03-0.49l1.27,0.16l0.1,0.15
			c1.69,2.44,1.52,2.76,1.42,2.96l-0.11,0.21l-0.31,0.03H46.67z"/>
		<path fill="#FFFFFF" d="M44.78,142.81l0.61,0.08c0,0,1.79,2.58,1.33,2.58c-0.01,0-0.03,0-0.04-0.01
			C46.07,145.31,44.93,144.93,44.78,142.81 M43.91,141.89l0.07,0.97c0.13,1.85,0.97,2.99,2.5,3.37l0.1,0.02l0.14,0.01
			c0.33,0,0.62-0.18,0.77-0.46c0.19-0.36,0.38-0.74-1.45-3.37l-0.2-0.29l-0.35-0.04l-0.61-0.08L43.91,141.89L43.91,141.89z"/>
	</g>
	<g>
		<path fill="#E2E2E2" d="M49.23,149.17c-0.45,0-0.99-0.22-1.51-0.44c-0.44-0.18-0.91-0.37-1.19-0.37h-1.55l3.65-2.01h0.1
			c0.08,0,0.78,0.02,1.22,0.54c0.29,0.34,0.4,0.8,0.31,1.36C50.15,148.83,49.78,149.17,49.23,149.17L49.23,149.17z"/>
		<path fill="#FFFFFF" d="M48.72,146.74c0,0,1.36,0,1.14,1.44c-0.07,0.43-0.3,0.59-0.62,0.59c-0.75,0-1.97-0.81-2.71-0.81
			L48.72,146.74 M48.72,145.94h-0.21l-0.18,0.1l-2.19,1.21l-2.72,1.5h3.11c0.21,0,0.69,0.2,1.04,0.34c0.56,0.23,1.13,0.47,1.66,0.47
			c0.75,0,1.29-0.48,1.41-1.26c0.13-0.85-0.14-1.39-0.4-1.68C49.68,145.96,48.81,145.94,48.72,145.94L48.72,145.94z"/>
	</g>
	<g>
		<path fill="#E2E2E2" d="M51.51,53.16c-0.15,0-0.31,0-0.47-0.01c-0.55-0.03-1.19-0.13-1.33-0.64c-0.19-0.68,0.68-1.32,2.37-2.49
			c0.5-0.35,1.02-0.71,1.47-1.06l0.22-0.17l0.23,0.14c0.28,0.17,1.67,1.04,1.85,1.93c0.04,0.2,0.02,0.52-0.28,0.9
			C54.99,52.45,53.51,53.16,51.51,53.16C51.51,53.16,51.51,53.16,51.51,53.16z"/>
		<path fill="#FFFFFF" d="M53.79,49.26c0,0,1.51,0.91,1.67,1.67c0.14,0.71-1.53,1.83-3.94,1.83c-0.15,0-0.3,0-0.45-0.01
			C48.41,52.59,51.74,50.85,53.79,49.26 M53.73,48.3l-0.43,0.34c-0.44,0.34-0.96,0.7-1.45,1.05c-1.75,1.22-2.8,1.95-2.52,2.93
			c0.24,0.85,1.3,0.91,1.7,0.93c0.17,0.01,0.33,0.01,0.5,0.01c2.13,0,3.72-0.78,4.36-1.56c0.41-0.5,0.42-0.94,0.37-1.23
			c-0.2-1.02-1.61-1.94-2.04-2.19L53.73,48.3L53.73,48.3z"/>
	</g>
	<g>
		<path fill="#E2E2E2" d="M48.95,61.99c-0.28,0-0.6-0.02-0.96-0.07c-1.41-0.18-1.36-1.08-1.33-1.62c0.02-0.42,0.01-0.59-0.19-0.71
			c-0.37-0.23-0.72-0.34-1.05-0.44c-0.49-0.15-0.99-0.31-1.28-0.84c-0.13-0.24-0.11-0.44-0.06-0.57c0.13-0.4,0.6-0.6,1.19-0.86
			c0.54-0.24,1.16-0.51,1.59-0.94c0.29-0.29,0.21-0.43,0.04-0.72c-0.12-0.21-0.28-0.5-0.15-0.82c0.13-0.3,0.46-0.46,0.8-0.56
			l0.35-0.6l0.25,0.02c0.06,0,1.41,0.11,1.94,1.79c0.15,0.48,0.13,0.87-0.07,1.15c-0.3,0.44-0.87,0.47-1.29,0.49
			c-0.12,0.01-0.29,0.02-0.34,0.04c0,0-0.01,0.05,0.01,0.11c0.05,0.12,0.23,0.2,0.48,0.2c0.5,0,0.86,0.15,1.08,0.45
			c0.37,0.49,0.23,1.22,0.06,1.81c-0.1,0.33-0.1,0.43-0.09,0.45c0.13,0.06,0.34,0.23,0.53,0.64c0.24,0.52,0.13,0.87,0,1.07
			C50.21,61.81,49.72,61.99,48.95,61.99L48.95,61.99z"/>
		<path fill="#FFFFFF" d="M48.11,53.65c0,0,1.14,0.08,1.59,1.51c0.45,1.44-1.14,0.98-1.51,1.21c-0.38,0.23-0.3,1.06,0.68,1.06
			s1.06,0.68,0.76,1.74c-0.3,1.06,0.08,0.53,0.45,1.36c0.31,0.67-0.03,1.05-1.13,1.05c-0.26,0-0.57-0.02-0.91-0.06
			c-1.82-0.23-0.38-1.67-1.36-2.27s-1.82-0.45-2.19-1.14c-0.38-0.68,1.59-0.83,2.65-1.89s-1.06-1.59,0.68-2.04L48.11,53.65
			 M47.66,52.82l-0.25,0.43l-0.14,0.25c-0.38,0.13-0.73,0.34-0.9,0.73c-0.21,0.5,0.03,0.94,0.17,1.17c0.03,0.05,0.07,0.12,0.09,0.17
			c-0.01,0.02-0.03,0.04-0.07,0.08c-0.38,0.38-0.95,0.63-1.46,0.85c-0.65,0.29-1.22,0.53-1.41,1.1c-0.1,0.29-0.07,0.61,0.09,0.89
			c0.37,0.67,0.98,0.86,1.52,1.03c0.31,0.1,0.63,0.2,0.96,0.4c0.01,0.04,0,0.22,0,0.35c-0.03,0.5-0.09,1.81,1.68,2.03
			c0.38,0.05,0.72,0.07,1.01,0.07c0.34,0,1.37,0,1.83-0.72c0.18-0.28,0.34-0.77,0.02-1.45c-0.15-0.33-0.32-0.53-0.45-0.67
			c0.01-0.04,0.02-0.09,0.04-0.14c0.19-0.67,0.35-1.53-0.12-2.16c-0.1-0.13-0.24-0.27-0.43-0.38c0.19-0.1,0.37-0.24,0.51-0.44
			c0.27-0.39,0.31-0.9,0.12-1.5c-0.49-1.55-1.67-2.03-2.3-2.07L47.66,52.82L47.66,52.82z"/>
	</g>
	<g>
		<path fill="#E2E2E2" d="M53.68,56.82c-0.24,0-0.45-0.1-0.6-0.29c-0.5-0.62-0.25-2.21-0.06-3.11l0.08-0.36l0.36,0.04
			c1.37,0.16,2.17,0.4,2.39,0.69c0.14,0.19,0.19,0.45,0.14,0.75c-0.06,0.32-0.32,1.17-1.6,2.02C54.13,56.73,53.89,56.82,53.68,56.82
			L53.68,56.82z"/>
		<path fill="#FFFFFF" d="M53.41,53.5c0,0,1.89,0.23,2.12,0.53c0.23,0.3,0,1.29-1.36,2.19c-0.2,0.13-0.36,0.19-0.49,0.19
			C52.91,56.42,53.22,54.41,53.41,53.5 M52.78,52.62l-0.15,0.71c-0.37,1.72-0.32,2.88,0.14,3.45c0.23,0.28,0.55,0.44,0.91,0.44
			c0.3,0,0.61-0.11,0.93-0.33c0.99-0.66,1.63-1.49,1.77-2.28c0.07-0.41-0.01-0.78-0.21-1.06c-0.14-0.19-0.43-0.58-2.66-0.84
			L52.78,52.62L52.78,52.62z"/>
	</g>
	<g>
		<path fill="#E2E2E2" d="M57.31,58.4c-0.34,0-0.54-0.16-0.64-0.29c-0.38-0.49-0.15-1.38,0.17-2.61c0.09-0.35,0.19-0.72,0.27-1.1
			l0.11-0.47l0.44,0.19c0.24,0.1,2.36,1.04,3.08,1.75c0.28,0.28,0.29,0.55,0.25,0.73c-0.14,0.61-1.04,0.94-2.3,1.39
			c-0.25,0.09-0.5,0.18-0.75,0.27C57.7,58.36,57.49,58.4,57.31,58.4L57.31,58.4z"/>
		<path fill="#FFFFFF" d="M57.5,54.49c0,0,2.27,0.98,2.95,1.67c0.68,0.68-1.06,1.14-2.65,1.74C57.6,57.97,57.44,58,57.31,58
			C56.41,58,57.1,56.27,57.5,54.49 M56.93,53.37l-0.21,0.95c-0.08,0.37-0.18,0.73-0.27,1.08c-0.35,1.34-0.6,2.32-0.1,2.96
			c0.22,0.29,0.57,0.45,0.96,0.45c0.23,0,0.48-0.05,0.77-0.16c0.25-0.09,0.5-0.18,0.74-0.27c1.37-0.5,2.37-0.85,2.55-1.68
			c0.05-0.23,0.07-0.67-0.36-1.1c-0.75-0.75-2.8-1.66-3.2-1.83L56.93,53.37L56.93,53.37z"/>
	</g>
	<g>
		<path fill="#E2E2E2" d="M55.95,63.91c-0.86,0-0.89-0.98-0.92-2.22c-0.01-0.38-0.02-0.81-0.05-1.27l-0.04-0.5l3.75,0.61l-0.13,0.43
			c-0.02,0.08-0.59,1.98-1.93,2.73C56.37,63.84,56.15,63.91,55.95,63.91z"/>
		<path fill="#FFFFFF" d="M55.38,60.39l2.8,0.45c0,0-0.53,1.82-1.74,2.5c-0.2,0.11-0.36,0.17-0.48,0.17
			C55.31,63.51,55.5,62.16,55.38,60.39 M54.51,59.44l0.07,1.01c0.03,0.45,0.04,0.87,0.05,1.25c0.03,1.22,0.07,2.61,1.32,2.61
			c0.27,0,0.56-0.09,0.88-0.27c1.45-0.82,2.05-2.75,2.12-2.97l0.25-0.87l-0.89-0.14l-2.8-0.45L54.51,59.44L54.51,59.44z"/>
	</g>
	<g>
		<path fill="#E2E2E2" d="M80.98,66.6c-0.3,0-0.46-0.14-0.54-0.25c-0.23-0.32-0.09-0.73,0.05-1.16c0.07-0.2,0.14-0.43,0.14-0.56
			c0-0.21,0-0.22-0.44-0.5c-0.24-0.15-0.54-0.33-0.92-0.63c-0.31-0.25-0.55-0.51-0.74-0.75c-0.04,0.07-0.09,0.14-0.14,0.2
			c-0.31,0.34-0.82,0.51-1.61,0.51l0,0c-0.16,0-0.35-0.01-0.55-0.02c-1-0.08-1.32-0.25-1.67-0.44c-0.33-0.18-0.71-0.39-2.13-0.54
			l-3.31-0.36l3.3-0.44c0.97-0.13,1.95-0.44,2.07-0.65c-0.18-0.22-0.21-0.46-0.1-0.66c0.18-0.32,0.58-0.32,0.78-0.32
			c0.17,0,0.37,0.01,0.61,0.03c0.3,0.02,0.66,0.04,1.05,0.04c0.48,0,0.91-0.04,1.32-0.11c0.71-0.13,1.25-0.63,1.74-1.07
			c0.43-0.39,0.8-0.74,1.24-0.74c0.69,0,1.03,0.83,1.26,1.63c0.48,1.65,0.41,2.24-0.3,2.48c-0.07,0.02-0.11,0.11-0.06,0.45
			c0.07,0.56,0.31,1.01,0.52,1.4c0.24,0.46,0.47,0.89,0.31,1.34c-0.12,0.34-0.43,0.61-0.99,0.86C81.49,66.53,81.2,66.6,80.98,66.6z"
			/>
		<path fill="#FFFFFF" d="M81.14,58.59c0.31,0,0.59,0.35,0.88,1.35c0.91,3.1-0.61,1.14-0.38,2.88c0.23,1.74,1.82,2.42,0.08,3.18
			c-0.35,0.15-0.58,0.21-0.74,0.21c-0.62,0,0.06-1.03,0.06-1.58c0-0.68-0.45-0.61-1.51-1.44c-0.84-0.66-1.11-1.47-1.19-1.47
			c-0.02,0-0.03,0.05-0.03,0.18c0,0.55-0.06,1.16-1.53,1.16c-0.16,0-0.33-0.01-0.52-0.02c-1.97-0.15-0.98-0.68-3.78-0.98
			c0,0,2.88-0.38,2.35-1.21c-0.21-0.33-0.05-0.41,0.35-0.41c0.38,0,0.97,0.07,1.66,0.07c0.43,0,0.9-0.03,1.39-0.11
			C79.67,60.13,80.48,58.59,81.14,58.59 M81.14,57.79c-0.59,0-1.04,0.41-1.51,0.84c-0.44,0.41-0.94,0.87-1.53,0.97
			c-0.38,0.07-0.79,0.1-1.25,0.1c-0.38,0-0.72-0.02-1.03-0.04c-0.25-0.02-0.46-0.03-0.64-0.03c-0.23,0-0.84,0-1.13,0.53
			c-0.09,0.17-0.16,0.41-0.08,0.71c-0.35,0.15-1,0.31-1.59,0.39l-6.59,0.87l6.61,0.71c1.34,0.14,1.68,0.33,1.98,0.49
			c0.44,0.24,0.82,0.41,1.83,0.49c0.21,0.02,0.4,0.02,0.58,0.02c0.79,0,1.37-0.16,1.75-0.49c0.14,0.15,0.3,0.3,0.49,0.45
			c0.4,0.31,0.72,0.51,0.96,0.66c0.09,0.05,0.19,0.12,0.25,0.16c-0.01,0.08-0.08,0.3-0.12,0.43c-0.15,0.46-0.35,1.04,0,1.52
			c0.11,0.16,0.38,0.42,0.87,0.42c0.28,0,0.61-0.09,1.06-0.28c0.42-0.18,1-0.49,1.21-1.09c0.22-0.62-0.08-1.17-0.34-1.66
			c-0.2-0.38-0.41-0.77-0.48-1.26c-0.01-0.04-0.01-0.08-0.01-0.11c0.97-0.5,0.73-1.65,0.36-2.89C82.6,59.09,82.22,57.79,81.14,57.79
			L81.14,57.79C81.14,57.79,81.14,57.79,81.14,57.79L81.14,57.79z"/>
	</g>
	<g>
		<path fill="#E2E2E2" d="M72.29,72.61c-0.1,0-0.2-0.01-0.31-0.02c-1.02-0.13-1.12-0.59-1.14-1.18c-0.01-0.25-0.02-0.53-0.16-0.89
			c-0.11-0.27-0.2-0.32-0.54-0.32c-0.17,0-0.36,0.02-0.59,0.04c-0.34,0.03-0.75,0.06-1.24,0.06c-0.56,0-1.12-0.04-1.71-0.13
			c-0.9-0.14-1.47-0.32-1.53-0.8c-0.06-0.6,0.74-0.91,2.08-1.43c0.48-0.18,0.97-0.38,1.38-0.57c1.17-0.56,1.15-0.65,0.88-2.22
			l-0.06-0.34c-0.04-0.24-0.09-0.51-0.13-0.81l-0.04-0.27l0.24-0.13c0.05-0.03,0.49-0.27,1.13-0.27c0.63,0,1.23,0.24,1.75,0.69
			c0.37,0.32,0.6,0.58,0.61,0.9c0.02,0.31-0.17,0.51-0.34,0.7c-0.23,0.25-0.55,0.59-0.67,1.41c0,0-0.16,1.01-0.17,1.08
			c0.11,0.11,0.23,0.28,0.37,0.59c0.44,1.02,1.35,2.12,1.52,2.25c0.21,0.14,0.29,0.42,0.2,0.71C73.67,72.14,73.15,72.61,72.29,72.61
			L72.29,72.61z"/>
		<path fill="#FFFFFF" d="M70.54,63.73c0.43,0,0.96,0.13,1.49,0.59c1.21,1.06-0.23,0.61-0.53,2.65c-0.3,2.04-0.23,0.83,0.23,1.89
			c0.45,1.06,1.44,2.27,1.67,2.42c0.21,0.14-0.1,0.93-1.1,0.93c-0.08,0-0.17-0.01-0.26-0.02c-1.21-0.15-0.53-0.68-0.98-1.82
			c-0.18-0.46-0.46-0.57-0.91-0.57c-0.42,0-1.01,0.1-1.83,0.1c-0.47,0-1.01-0.03-1.65-0.13c-2.95-0.45,0.3-1.21,2.04-2.04
			c1.54-0.74,1.36-1.12,1.04-2.98c-0.04-0.24-0.09-0.51-0.13-0.8C69.61,63.95,69.99,63.73,70.54,63.73 M70.54,62.93
			c-0.72,0-1.23,0.27-1.33,0.32l-0.48,0.27l0.08,0.54c0.04,0.3,0.09,0.57,0.13,0.82l0.06,0.34c0.24,1.36,0.24,1.36-0.65,1.79
			c-0.39,0.19-0.88,0.38-1.35,0.56c-1.46,0.57-2.43,0.94-2.33,1.84c0.1,0.88,1.2,1.05,1.86,1.16c0.6,0.09,1.18,0.14,1.77,0.14
			c0.51,0,0.93-0.03,1.27-0.06c0.21-0.02,0.4-0.03,0.56-0.03c0.07,0,0.12,0,0.14,0.01c0.01,0.01,0.02,0.03,0.03,0.06
			c0.12,0.29,0.12,0.52,0.13,0.75c0.03,0.72,0.23,1.4,1.49,1.56c0.13,0.02,0.25,0.02,0.36,0.02c1.06,0,1.72-0.62,1.91-1.23
			c0.14-0.47,0-0.92-0.36-1.16c-0.16-0.14-0.99-1.18-1.37-2.07c-0.11-0.25-0.21-0.43-0.31-0.56c0.01-0.04,0.01-0.09,0.02-0.15
			c0.03-0.18,0.07-0.43,0.12-0.75c0.1-0.7,0.35-0.96,0.57-1.2c0.19-0.21,0.47-0.52,0.45-0.99c-0.03-0.51-0.4-0.87-0.75-1.18
			C71.96,63.21,71.27,62.93,70.54,62.93L70.54,62.93z"/>
	</g>
	<g>
		<path fill="#E2E2E2" d="M74.5,73.79l-0.16-0.15c-0.2-0.21-0.18-0.52-0.09-1.54c0.04-0.53,0.1-1.18,0.1-1.81
			c0-0.69-0.06-1.1-0.16-1.23c-0.22-0.26-0.18-0.49-0.05-0.93c0.09-0.29,0.1-0.54,0.11-0.75c0.02-0.43,0.05-0.91,0.78-1.15
			c0.11-0.12,0.27-0.22,0.47-0.22c0.52,0,0.87,0.57,1.22,1.98c0.48,1.91,0.28,2.35-0.4,3.46c-0.19,0.31-0.43,0.69-0.7,1.21
			c-0.42,0.82-0.63,1.11-0.96,1.11H74.5z"/>
		<path fill="#FFFFFF" d="M75.51,66.43c0.19,0,0.49,0.3,0.83,1.68c0.61,2.42,0.08,2.19-1.06,4.39c-0.33,0.63-0.51,0.9-0.6,0.9
			c-0.23,0,0.07-1.58,0.07-3.09c0-2.12-0.53-1.06-0.23-2.04c0.3-0.98-0.15-1.44,0.76-1.67C75.28,66.6,75.36,66.43,75.51,66.43
			 M75.51,65.63c-0.28,0-0.51,0.12-0.68,0.27c-0.91,0.34-0.95,1.07-0.97,1.47c-0.01,0.2-0.02,0.4-0.1,0.65
			c-0.12,0.4-0.26,0.85,0.12,1.31c0,0,0.07,0.22,0.07,0.97c0,0.61-0.05,1.25-0.1,1.77c-0.09,1.05-0.13,1.49,0.2,1.84l0.24,0.26
			l0.39,0.02c0.63,0,0.95-0.62,1.32-1.33c0.26-0.51,0.48-0.87,0.68-1.19c0.74-1.21,0.94-1.77,0.44-3.76
			C76.82,66.73,76.42,65.63,75.51,65.63L75.51,65.63z"/>
	</g>
	<g>
		<path fill="#E2E2E2" d="M80.72,68.74c-0.49,0-1.22-0.39-2.39-1.12c-0.63-0.39-0.9-0.69-0.92-1.04c-0.02-0.38,0.27-0.61,0.5-0.8
			c0.17-0.14,0.35-0.28,0.41-0.45l0.19-0.54l1.35,1.12c0.24,0.16,1.58,1.13,1.58,2.05c0,0.23-0.06,0.41-0.18,0.55
			C81.17,68.61,81,68.74,80.72,68.74L80.72,68.74z"/>
		<path fill="#FFFFFF" d="M78.69,65.46l0.91,0.76c0,0,1.44,0.98,1.44,1.74c0,0.26-0.11,0.38-0.32,0.38c-0.39,0-1.14-0.42-2.18-1.06
			C76.95,66.29,78.38,66.29,78.69,65.46 M78.32,64.12l-0.39,1.07c-0.03,0.07-0.18,0.19-0.28,0.28c-0.26,0.21-0.68,0.55-0.65,1.14
			c0.04,0.61,0.56,1.01,1.11,1.36c1.26,0.78,2.01,1.18,2.6,1.18c0.66,0,1.12-0.48,1.12-1.18c0-1.04-1.2-2-1.75-2.38l-0.88-0.73
			L78.32,64.12L78.32,64.12z"/>
	</g>
	<g>
		<path fill="#E2E2E2" d="M110.32,74.61c-0.73,0-0.95-0.41-1.01-0.59c-0.23-0.67,0.36-1.62,1.62-2.62l0.2-0.16l2.11,1.05l-0.05,0.29
			c-0.01,0.06-0.27,1.48-2.22,1.94C110.73,74.58,110.51,74.61,110.32,74.61L110.32,74.61z"/>
		<path fill="#FFFFFF" d="M111.18,71.72l1.61,0.81c0,0-0.2,1.21-1.92,1.61c-0.21,0.05-0.4,0.07-0.56,0.07
			C109.22,74.21,109.5,73.04,111.18,71.72 M111.08,70.77l-0.4,0.31c-1.42,1.12-2.05,2.21-1.75,3.06c0.19,0.54,0.71,0.86,1.39,0.86
			c0.22,0,0.47-0.03,0.74-0.1c1.76-0.41,2.42-1.62,2.52-2.26l0.1-0.58l-0.53-0.26L111.54,71L111.08,70.77L111.08,70.77z"/>
	</g>
	<g>
		<path fill="#E2E2E2" d="M94.83,13.93c-0.44,0-0.86-0.46-1.7-1.4c-0.29-0.33-0.6-0.67-0.9-0.97c-0.19-0.19-0.54-0.54-0.39-0.92
			c0.09-0.22,0.31-0.34,0.65-0.34c0.16,0,0.36,0.02,0.59,0.05c0.23,0.03,0.48,0.05,0.71,0.05c0.34,0,0.42-0.07,0.42-0.07
			c0.29-0.4,0.29-0.46,0.29-0.54c0-0.08,0.01-0.18,0.05-0.34c0.1-0.41,0.02-0.56-0.16-0.69c-0.06-0.04-0.23-0.12-0.39-0.19
			c-0.71-0.33-1.9-0.87-1.99-2.11L92,6.24l0.18-0.13c0.05-0.04,0.5-0.36,1.84-0.77c0.15-0.05,0.29-0.07,0.43-0.07
			c0.91,0,0.99,0.98,1.04,1.62c0.03,0.35,0.06,0.75,0.18,0.92c0.12,0.16,0.22,0.27,0.3,0.37c0.35,0.39,0.56,0.67,0.87,1.99
			c0.12,0.49,0.07,0.87-0.14,1.14c-0.13,0.16-0.38,0.35-0.84,0.35c-0.19,0-0.38-0.03-0.56-0.07c0.07,0.38,0.13,0.89,0.13,1.5
			C95.44,13.85,95.01,13.93,94.83,13.93z"/>
		<path fill="#FFFFFF" d="M94.44,5.67c0.9,0,0.44,1.73,0.9,2.37c0.5,0.71,0.71,0.5,1.11,2.22c0.19,0.79-0.16,1-0.59,1
			c-0.51,0-1.12-0.29-1.12-0.29s0.3,0.81,0.3,2.12c0,0.31-0.07,0.44-0.2,0.44c-0.41,0-1.4-1.33-2.32-2.26
			c-0.46-0.46-0.35-0.57-0.02-0.57c0.32,0,0.85,0.1,1.29,0.1c0.33,0,0.61-0.05,0.74-0.24c0.5-0.71,0.3-0.61,0.4-1.01
			c0.1-0.4,0.1-0.81-0.3-1.11c-0.4-0.3-2.12-0.71-2.22-2.02c0,0,0.4-0.3,1.72-0.71C94.24,5.68,94.35,5.67,94.44,5.67 M94.44,4.87
			c-0.17,0-0.35,0.03-0.54,0.09c-1.38,0.42-1.87,0.77-1.96,0.83l-0.35,0.26l0.03,0.44c0.11,1.47,1.49,2.11,2.22,2.45
			c0.12,0.05,0.27,0.13,0.32,0.16c0.02,0.01,0.03,0.03,0.03,0.03c0,0,0,0,0,0c0,0,0.02,0.06-0.03,0.24
			c-0.05,0.19-0.05,0.32-0.06,0.4c-0.02,0.03-0.06,0.1-0.15,0.23C93.92,10,93.86,10,93.79,10c-0.2,0-0.44-0.03-0.66-0.05
			C92.9,9.93,92.68,9.9,92.49,9.9c-0.68,0-0.93,0.36-1.02,0.58c-0.26,0.62,0.25,1.13,0.47,1.35c0.29,0.29,0.59,0.63,0.88,0.96
			c0.85,0.96,1.37,1.54,2,1.54c0.1,0,1-0.03,1-1.24c0-0.38-0.02-0.73-0.06-1.03c0.03,0,0.05,0,0.08,0c0.62,0,0.97-0.27,1.15-0.5
			c0.29-0.37,0.36-0.87,0.22-1.48c-0.31-1.34-0.54-1.7-0.96-2.16c-0.08-0.09-0.17-0.19-0.28-0.34c-0.06-0.1-0.09-0.49-0.11-0.72
			C95.82,6.21,95.71,4.87,94.44,4.87L94.44,4.87z"/>
	</g>
	<g>
		<path fill="#E2E2E2" d="M104.49,15.29c-0.36,0-0.68-0.28-1.47-1.12c-0.34-0.36-0.5-0.45-0.55-0.48c0.01,0.01-0.02,0.04-0.05,0.07
			c-0.15,0.15-0.4,0.41-0.87,0.41c-0.3,0-0.64-0.1-1.05-0.32c-1.1-0.58-1.33-0.7-1.37-1.19c-0.01-0.12-0.03-0.33-0.39-0.86
			c-0.33-0.5-0.48-0.81-0.33-1.08l0.11-0.21l0.33-0.04c0.17,0,0.37,0.07,0.63,0.17c0.28,0.1,0.63,0.23,0.92,0.25
			c0.15-0.33,0.46-0.83,1.08-1.01c0.22-0.06,0.41-0.08,0.57-0.09c0.35-0.03,0.5-0.04,0.79-0.78c0.19-0.49,0.46-0.73,0.81-0.73
			c0.46,0,0.82,0.45,1.27,1.01c0.25,0.31,0.5,0.63,0.78,0.88c0.92,0.83,0.84,2.15-0.23,3.93c-0.11,0.19-0.19,0.37-0.26,0.51
			C105.07,14.93,104.9,15.29,104.49,15.29z"/>
		<path fill="#FFFFFF" d="M103.64,8.68c0.46,0,1.04,1.12,1.79,1.79c1.01,0.91,0.3,2.42-0.3,3.43c-0.34,0.56-0.39,1-0.64,1
			c-0.19,0-0.51-0.28-1.18-1c-0.43-0.46-0.68-0.61-0.85-0.61c-0.31,0-0.38,0.48-0.91,0.48c-0.21,0-0.48-0.07-0.86-0.27
			c-1.92-1.01-0.61-0.4-1.61-1.92c-0.36-0.54-0.39-0.71-0.22-0.71c0.26,0,1,0.43,1.62,0.43c0.07,0,0.15-0.01,0.22-0.02
			c0,0,0.2-0.81,0.91-1.01c0.71-0.2,1.11,0.2,1.61-1.11C103.34,8.81,103.48,8.68,103.64,8.68 M103.64,7.88
			c-0.37,0-0.87,0.17-1.18,0.99c-0.16,0.43-0.27,0.51-0.27,0.51c0,0,0,0-0.01,0c-0.02,0-0.1,0.01-0.17,0.01
			c-0.16,0.01-0.39,0.03-0.65,0.1c-0.61,0.17-0.98,0.59-1.2,0.95c-0.19-0.05-0.39-0.12-0.55-0.18c-0.29-0.11-0.53-0.2-0.78-0.2
			c-0.34,0-0.64,0.17-0.79,0.46c-0.29,0.54,0.08,1.09,0.35,1.49c0.3,0.45,0.31,0.6,0.32,0.68c0.07,0.7,0.45,0.9,1.59,1.5
			c0.47,0.25,0.87,0.37,1.24,0.37c0.45,0,0.76-0.18,0.96-0.34c0.06,0.05,0.13,0.13,0.22,0.22c0.81,0.87,1.23,1.25,1.76,1.25
			c0.67,0,0.93-0.57,1.08-0.91c0.06-0.14,0.14-0.3,0.24-0.47c1.18-1.97,1.23-3.46,0.15-4.44c-0.25-0.23-0.5-0.54-0.74-0.83
			C104.73,8.41,104.3,7.88,103.64,7.88L103.64,7.88z"/>
	</g>
</g>
</svg>
