<?xml version="1.0" encoding="UTF-8"?>
<svg width="27px" height="27px" viewBox="0 0 27 27" version="1.1" xmlns="http://www.w3.org/2000/svg" xmlns:xlink="http://www.w3.org/1999/xlink">
    <!-- Generator: Sketch 54 (76480) - https://sketchapp.com -->
    <title>编组 8</title>
    <desc>Created with Sketch.</desc>
    <g id="页面1" stroke="none" stroke-width="1" fill="none" fill-rule="evenodd">
        <g id="历史重大传染病感染/病亡情况" transform="translate(-560.000000, -122.000000)" fill="#888888" fill-rule="nonzero">
            <g id="编组-44" transform="translate(25.000000, 56.000000)">
                <g id="编组-8" transform="translate(535.000000, 66.000000)">
                    <path d="M13.7079134,16.3613541 C13.2959223,16.3613541 12.9631971,16.0075163 12.9631971,15.5769046 C12.9631971,12.4857267 15.5650202,11.1871705 15.5777237,11.1804799 C16.2178253,10.6430325 16.5854414,10.0622031 16.4999398,9.21429983 C16.4396711,8.60340863 15.7963791,7.84562981 14.9185669,7.64866968 C14.0026444,7.4283688 12.8554501,7.74881478 12.2723108,8.28626215 C11.5212428,8.98391723 11.4895712,10.0421619 11.4895712,10.0555126 C11.4800291,10.4828248 11.1504363,10.8233425 10.7447969,10.826642 L10.7352548,10.826642 C10.3264831,10.8199819 9.99686118,10.4694741 10.0000226,10.0388319 C10.0000226,9.96874864 10.0253714,8.29631329 11.2708577,7.12460347 C12.1993966,6.24999889 13.6825646,5.7325622 15.3780073,6.14316322 C18.3221557,7.17803661 18.109823,9.41129057 17.8784641,10.2357921 C17.6598086,11.0269322 17.2731373,11.9616605 16.1671566,12.609243 L16.170318,12.6192942 C16.1037265,12.6526555 14.4621428,13.5005589 14.4621428,15.5702445 C14.4558201,16.0108463 14.1199625,16.3613541 13.7079134,16.3613541 Z M12.801591,18.8817233 C12.801591,19.4992745 13.2769542,20 13.8632258,20 C14.4494684,20 14.9248896,19.499244 14.9248896,18.8817233 C14.9248896,18.2641415 14.4494394,17.763416 13.8632258,17.763416 C13.2769542,17.7633855 12.801591,18.2641415 12.801591,18.8817233 Z" id="形状"></path>
                    <path d="M13.4999537,0 C6.04458431,0 -3.01839914e-08,6.0446083 0,13.5 C3.01839914e-08,20.9553917 6.04461522,27 13.4999537,27 C20.955323,27 27,20.9553917 27,13.5 C27,6.04460827 20.955323,0 13.4999537,0 Z M13.4999537,25.5149632 C6.8647392,25.5149632 1.48497665,20.1352069 1.48497668,13.5 C1.48497668,6.86476222 6.8647392,1.48500586 13.4999537,1.48500586 C20.135199,1.48500586 25.5149307,6.86473134 25.5149307,13.5 C25.5149307,20.1352068 20.135199,25.5149632 13.4999537,25.5149632 Z" id="形状"></path>
                </g>
            </g>
        </g>
    </g>
</svg>