<?xml version="1.0" encoding="UTF-8"?>
<svg width="270px" height="270px" viewBox="0 0 270 270" version="1.1" xmlns="http://www.w3.org/2000/svg" xmlns:xlink="http://www.w3.org/1999/xlink">
    <!-- Generator: Sketch 54 (76480) - https://sketchapp.com -->
    <title>编组 19</title>
    <desc>Created with Sketch.</desc>
    <defs>
        <linearGradient x1="14.1940078%" y1="0%" x2="76.5030617%" y2="36.5456761%" id="linearGradient-1">
            <stop stop-color="#98F4EE" offset="0%"></stop>
            <stop stop-color="#00C1E0" offset="100%"></stop>
        </linearGradient>
        <rect id="path-2" x="0.227873017" y="0" width="269.330025" height="270" rx="20"></rect>
        <linearGradient x1="14.0591373%" y1="32.4561951%" x2="55.910323%" y2="62.3898761%" id="linearGradient-4">
            <stop stop-color="#98F4EE" offset="0%"></stop>
            <stop stop-color="#00C1E0" offset="100%"></stop>
        </linearGradient>
        <filter x="-51.1%" y="-51.1%" width="202.3%" height="202.3%" filterUnits="objectBoundingBox" id="filter-5">
            <feGaussianBlur stdDeviation="15" in="SourceGraphic"></feGaussianBlur>
        </filter>
        <linearGradient x1="111.098815%" y1="31.6823755%" x2="111.098815%" y2="147.285131%" id="linearGradient-6">
            <stop stop-color="#1CEDE5" offset="0%"></stop>
            <stop stop-color="#00B7D4" offset="100%"></stop>
        </linearGradient>
        <linearGradient x1="111.098815%" y1="31.6823755%" x2="111.098815%" y2="147.285131%" id="linearGradient-7">
            <stop stop-color="#1CEDE5" offset="0%"></stop>
            <stop stop-color="#00B7D4" offset="100%"></stop>
        </linearGradient>
    </defs>
    <g id="页面-1" stroke="none" stroke-width="1" fill="none" fill-rule="evenodd">
        <g id="导航页" transform="translate(-385.000000, -821.000000)">
            <rect fill="#FFFFFF" x="0" y="0" width="750" height="1592"></rect>
            <g id="编组-19" transform="translate(385.000000, 821.000000)">
                <g id="编组-22">
                    <g id="编组-21">
                        <g id="路径-14">
                            <mask id="mask-3" fill="white">
                                <use xlink:href="#path-2"></use>
                            </mask>
                            <use id="蒙版" fill="url(#linearGradient-1)" xlink:href="#path-2"></use>
                            <path d="M-0.160726046,152.805056 C30.233098,146.970092 69.5925662,155.21595 117.917679,177.542628 C166.242791,199.869307 216.562923,197.865197 268.878075,171.530298 L268.727377,284.917127 L0.880542571,279.030331 L-0.160726046,152.805056 Z" fill="url(#linearGradient-4)" mask="url(#mask-3)"></path>
                        </g>
                    </g>
                </g>
                <g id="编组" transform="translate(26.000000, 133.000000)">
                    <g id="编组-9"></g>
                </g>
                <g id="编组-11" transform="translate(91.000000, 40.000000)">
                    <circle id="椭圆形" fill="#00B0CC" filter="url(#filter-5)" cx="44" cy="44" r="44"></circle>
                    <circle id="椭圆形" fill="#FFFFFF" cx="44.5" cy="44.5" r="41.5"></circle>
                    <g id="编组-3" transform="translate(17.000000, 19.000000)" fill-rule="nonzero">
                        <path d="M19.5153846,9.16611983 C18.7636781,9.16611983 18.1538462,8.56514347 18.1538462,7.82472307 L18.1538462,1.34139672 C18.1538462,0.600429523 18.7636781,0 19.5153846,0 C20.2670912,0 20.8769231,0.600429523 20.8769231,1.34084988 L20.8769231,7.82526991 C20.8769231,8.56569026 20.2670911,9.16666662 19.5153846,9.16666667 L19.5153846,9.16611983 Z M10.6267916,12.8333317 C10.3271441,12.8333317 10.0270038,12.7008876 9.79783271,12.437103 L5.78955533,7.80983577 C5.33168668,7.27490461 5.33168668,6.43094905 5.78955533,5.89601789 C6.00613353,5.64303724 6.30554422,5.5 6.61851421,5.5 C6.93148421,5.5 7.2308949,5.64303724 7.4474731,5.89601789 L11.4562433,10.5227333 C11.9145856,11.0514062 11.9145856,11.9078783 11.4562433,12.437103 C11.236929,12.6909543 10.93876,12.8338835 10.6272844,12.8333317 L10.6267916,12.8333317 Z M28.4038528,12.8333317 C28.1032331,12.8333317 27.8031061,12.7008928 27.574438,12.4371185 C27.116213,11.9019506 27.116213,11.0574401 27.574438,10.5222722 L31.5825371,5.89629026 C31.7991211,5.64314434 32.0986258,5.5 32.4117055,5.5 C32.7247853,5.5 33.0242899,5.64314434 33.2408739,5.89629026 C33.6991959,6.42494236 33.6991959,7.28138084 33.2408739,7.810033 L29.232282,12.4371185 C29.0129774,12.6909599 28.7148217,12.8338835 28.40336,12.8333317 L28.4038528,12.8333317 Z M6.97313322,22 L1.1955952,22 C0.535003717,22 0,21.3844037 0,20.6247197 C0,19.8650357 0.535003717,19.25 1.1955952,19.25 L6.97363557,19.25 C7.6337247,19.25 8.16923077,19.8650357 8.16923077,20.6247197 C8.16923077,21.3844037 7.63372466,21.9994393 6.97363557,21.9994393 L6.97313322,22 Z M21.5590804,24.857928 C17.5128793,24.4649384 15.7364238,28.4166667 15.2966415,28.4166667 C15.1101289,28.4166667 14.9210684,28.3714417 14.7437286,28.2752736 C11.9006863,26.7402231 10.3423383,24.2154213 10.0299553,20.8750101 C9.52545414,15.4807607 13.2893384,10.6609207 18.4194526,10.1306966 C20.2275032,9.94459841 22.0324962,10.3089975 23.6387463,11.186986 C25.2016806,12.0415823 26.1745015,12.9481614 27.0673157,14.5403929 C27.4072169,15.1470315 27.1972629,15.4178616 26.620399,15.7755029 C26.620399,15.7755029 21.1233749,18.769709 21.5590804,24.857928 Z M6.61855203,34.833327 C6.31841394,34.833327 6.01827584,34.7008782 5.7895992,34.4370843 C5.33167206,33.9019484 5.33167206,33.0577828 5.7895992,32.5226469 L9.79784732,27.8963198 C10.0144394,27.643155 10.3139552,27.5 10.6270466,27.5 C10.9401379,27.5 11.2396537,27.643155 11.4562458,27.8963198 C11.9145847,28.4244595 11.9145847,29.2815137 11.4562458,29.8102053 L7.44750487,34.4370843 C7.22819215,34.6909445 6.9300254,34.8344307 6.61855203,34.833327 L6.61855203,34.833327 Z" id="形状" fill="url(#linearGradient-6)"></path>
                        <path d="M48.5843909,44 L23.8534704,44 C19.209503,44 15.4307692,40.1201429 15.4307692,35.3508572 C15.4307692,30.6648572 19.0782827,26.8379048 23.6110205,26.705381 C23.7263508,20.0472381 29.0366711,14.6666667 35.5484771,14.6666667 C38.26976,14.6666667 40.8331685,15.5828095 42.9603721,17.3155714 C44.7025352,18.7385986 46.0252938,20.6266104 46.7821625,22.7705238 C47.3771879,22.6635367 47.9802256,22.609904 48.5843909,22.6102381 C54.3273281,22.6102381 59,27.4078096 59,33.3048571 C59,39.2019048 54.3273282,44 48.5843909,44 Z" id="路径" fill="url(#linearGradient-7)"></path>
                    </g>
                </g>
                <circle id="椭圆形" fill="#65E3E9" cx="59.5" cy="138.5" r="6.5"></circle>
                <circle id="椭圆形" fill-opacity="0.3" fill="#65E3E9" cx="182.5" cy="157.5" r="4.5"></circle>
                <text id="每日全国确认人数较前日变化地图" font-family="PingFangSC-Semibold, PingFang SC" font-size="16" font-weight="500" fill="#FFFFFF">
                    <tspan x="44" y="203">每日全国确诊人数较前日</tspan>
                    <tspan x="44" y="225">变化地图</tspan>
                </text>
                <text id="疫情晴雨地图" font-family="PingFangSC-Medium, PingFang SC" font-size="36" font-weight="400" fill="#FFFFFF">
                    <tspan x="26" y="171">疫情晴雨地图</tspan>
                </text>
            </g>
        </g>
    </g>
</svg>
