<?xml version="1.0" encoding="UTF-8"?>
<svg width="270px" height="270px" viewBox="0 0 270 270" version="1.1" xmlns="http://www.w3.org/2000/svg" xmlns:xlink="http://www.w3.org/1999/xlink">
    <!-- Generator: Sketch 54 (76480) - https://sketchapp.com -->
    <title>编组 23</title>
    <desc>Created with Sketch.</desc>
    <defs>
        <linearGradient x1="100%" y1="100%" x2="6.08845117%" y2="17.1203136%" id="linearGradient-1">
            <stop stop-color="#F37867" offset="0%"></stop>
            <stop stop-color="#FDC79F" offset="100%"></stop>
        </linearGradient>
        <linearGradient x1="5.64583576%" y1="17.7138342%" x2="80.4595421%" y2="72.0098447%" id="linearGradient-2">
            <stop stop-color="#E197E9" offset="0%"></stop>
            <stop stop-color="#DF95E8" offset="0%"></stop>
            <stop stop-color="#773CC1" offset="100%"></stop>
        </linearGradient>
        <rect id="path-3" x="0.227873017" y="0" width="269.330025" height="270" rx="20"></rect>
        <linearGradient x1="0%" y1="35.5664355%" x2="55.9136313%" y2="67.0017629%" id="linearGradient-5">
            <stop stop-color="#E197E9" offset="0%"></stop>
            <stop stop-color="#773CC1" offset="100%"></stop>
        </linearGradient>
        <filter x="-51.7%" y="-51.7%" width="203.4%" height="203.4%" filterUnits="objectBoundingBox" id="filter-6">
            <feGaussianBlur stdDeviation="15" in="SourceGraphic"></feGaussianBlur>
        </filter>
        <linearGradient x1="50%" y1="-52.3093584%" x2="50%" y2="120.667361%" id="linearGradient-7">
            <stop stop-color="#F2C8F6" offset="0%"></stop>
            <stop stop-color="#8A4CC8" offset="100%"></stop>
        </linearGradient>
        <linearGradient x1="50%" y1="-52.3093584%" x2="50%" y2="120.667361%" id="linearGradient-8">
            <stop stop-color="#F2C8F6" offset="0%"></stop>
            <stop stop-color="#8A4CC8" offset="100%"></stop>
        </linearGradient>
    </defs>
    <g id="页面-1" stroke="none" stroke-width="1" fill="none" fill-rule="evenodd">
        <g id="导航页" transform="translate(-95.000000, -821.000000)">
            <rect fill="#FFFFFF" x="0" y="0" width="750" height="1592"></rect>
            <g id="编组-23" transform="translate(95.000000, 821.000000)">
                <g id="编组-21">
                    <g id="路径-14">
                        <mask id="mask-4" fill="white">
                            <use xlink:href="#path-3"></use>
                        </mask>
                        <use id="蒙版" fill="url(#linearGradient-2)" xlink:href="#path-3"></use>
                        <path d="M2.84217094e-14,156.813467 C30.3938241,150.978503 69.7532923,159.22436 118.078405,181.551039 C166.403517,203.877718 216.723649,201.873608 269.038801,175.538709 L268.888103,288.925538 L1.04126862,283.038741 L2.84217094e-14,156.813467 Z" fill="url(#linearGradient-5)" mask="url(#mask-4)"></path>
                    </g>
                </g>
                <g id="编组-20" transform="translate(43.000000, 40.000000)">
                    <g id="编组" transform="translate(2.000000, 94.000000)">
                        <g id="编组-9"></g>
                    </g>
                    <g id="编组-10" transform="translate(48.000000, 0.000000)">
                        <circle id="椭圆形" fill="#8D3DD3" filter="url(#filter-6)" cx="46.5" cy="43.5" r="43.5"></circle>
                        <g id="编组-17" transform="translate(0.000000, 2.000000)">
                            <circle id="椭圆形" fill="#FFFFFF" cx="41.5" cy="41.5" r="41.5"></circle>
                            <g id="编组" transform="translate(20.000000, 20.000000)" fill-rule="nonzero">
                                <path d="M15.7945593,4.21188248 C15.7945593,3.40961915 16.4463983,2.7577802 17.2486616,2.7577802 L27.3270947,2.7577802 C28.129358,2.7577802 28.781197,3.40961915 28.781197,4.21188248 L28.781197,8.67447225 L32.1908161,8.67447225 L32.1908161,1.90537541 C32.1908161,0.852404788 31.3384113,-8.79296636e-14 30.2854407,-8.79296636e-14 L14.2903156,-8.79296636e-14 C13.2373449,-8.79296636e-14 12.3849402,0.852404788 12.3849402,1.90537541 L12.3849402,8.67447225 L15.7945593,8.67447225 L15.7945593,4.21188248 Z" id="路径" fill="url(#linearGradient-7)"></path>
                                <path d="M40.1633079,8.47390642 L4.76343852,8.47390642 C2.10594124,8.47390642 1.0658141e-14,10.6299891 1.0658141e-14,13.2373449 L1.0658141e-14,34.3970403 C1.0658141e-14,37.0545375 2.1560827,39.1604788 4.76343852,39.1604788 L40.2134494,39.1604788 C42.8709467,39.1604788 44.9768879,37.0043961 44.9768879,34.3970403 L44.9768879,13.2874864 C44.9768879,10.6299891 42.8208052,8.47390642 40.1633079,8.47390642 Z M30.6865724,26.6251143 L25.171012,26.6251143 L25.171012,32.0905332 L19.7557345,32.0905332 L19.7557345,26.6251143 L14.2401741,26.6251143 L14.2401741,21.1596953 L19.705593,21.1596953 L19.705593,15.6942764 L25.171012,15.6942764 L25.171012,21.1596953 L30.6364309,21.1596953 L30.6364309,26.6251143 L30.6865724,26.6251143 Z" id="形状" fill="url(#linearGradient-8)"></path>
                            </g>
                        </g>
                    </g>
                    <circle id="椭圆形" fill="#C67EDF" cx="17.5" cy="103.5" r="6.5"></circle>
                    <circle id="椭圆形" fill-opacity="0.3" fill="#C67EDF" cx="140.5" cy="122.5" r="4.5"></circle>
                    <text id="其他省份与湖北各城市的支援关系" font-family="PingFangSC-Semibold, PingFang SC" font-size="16" font-weight="500" fill="#FFFFFF">
                        <tspan x="0" y="162">其他省份与湖北各城市的</tspan>
                        <tspan x="0" y="184">支援关系</tspan>
                    </text>
                    <text id="对口支援图" font-family="PingFangSC-Medium, PingFang SC" font-size="36" font-weight="400" fill="#FFFFFF">
                        <tspan x="1" y="130">对口支援图</tspan>
                    </text>
                </g>
                <circle id="椭圆形" fill-opacity="0.3" fill="#C67EDF" cx="235" cy="151" r="6"></circle>
            </g>
        </g>
    </g>
</svg>