<?xml version="1.0" encoding="UTF-8"?>
<svg width="270px" height="270px" viewBox="0 0 270 270" version="1.1" xmlns="http://www.w3.org/2000/svg" xmlns:xlink="http://www.w3.org/1999/xlink">
    <!-- Generator: Sketch 54 (76480) - https://sketchapp.com -->
    <title>编组 26</title>
    <desc>Created with Sketch.</desc>
    <defs>
        <linearGradient x1="100%" y1="100%" x2="6.08845117%" y2="17.1203136%" id="linearGradient-1">
            <stop stop-color="#F37867" offset="0%"></stop>
            <stop stop-color="#FDC79F" offset="100%"></stop>
        </linearGradient>
        <linearGradient x1="68.773743%" y1="63.2021022%" x2="0.247831093%" y2="-7.35531063%" id="linearGradient-2">
            <stop stop-color="#F37867" offset="0%"></stop>
            <stop stop-color="#FDC79F" offset="100%"></stop>
        </linearGradient>
        <rect id="path-3" x="0.227873017" y="0" width="269.330025" height="270" rx="20"></rect>
        <linearGradient x1="80.9713454%" y1="57.490972%" x2="-4.33120614%" y2="25.6586767%" id="linearGradient-5">
            <stop stop-color="#F37867" offset="0%"></stop>
            <stop stop-color="#FDC79F" offset="100%"></stop>
        </linearGradient>
        <filter x="-101.5%" y="-101.5%" width="302.9%" height="302.9%" filterUnits="objectBoundingBox" id="filter-6">
            <feGaussianBlur stdDeviation="23" in="SourceGraphic"></feGaussianBlur>
        </filter>
        <linearGradient x1="50%" y1="0%" x2="50%" y2="100%" id="linearGradient-7">
            <stop stop-color="#FFB881" offset="0%"></stop>
            <stop stop-color="#F64C3F" offset="100%"></stop>
        </linearGradient>
    </defs>
    <g id="页面-1" stroke="none" stroke-width="1" fill="none" fill-rule="evenodd">
        <g id="导航页" transform="translate(-95.000000, -531.000000)">
            <rect fill="#FFFFFF" x="0" y="0" width="750" height="1592"></rect>
            <g id="编组-26" transform="translate(95.000000, 531.000000)">
                <g id="编组-4">
                    <g id="编组-22">
                        <g id="编组-21">
                            <g id="路径-14">
                                <mask id="mask-4" fill="white">
                                    <use xlink:href="#path-3"></use>
                                </mask>
                                <use id="蒙版" fill="url(#linearGradient-2)" xlink:href="#path-3"></use>
                                <path d="M-11,149.813467 C19.3938241,143.978503 58.7532923,152.22436 107.078405,174.551039 C155.403517,196.877718 205.723649,194.873608 258.038801,168.538709 L257.888103,281.925538 L-9.95873138,276.038741 L-11,149.813467 Z" fill="url(#linearGradient-5)" mask="url(#mask-4)"></path>
                            </g>
                        </g>
                    </g>
                    <circle id="椭圆形" fill="#FAA889" cx="57.5" cy="134.5" r="6.5"></circle>
                </g>
                <g id="编组" transform="translate(42.000000, 138.000000)">
                    <g id="编组-9"></g>
                </g>
                <circle id="椭圆形" fill-opacity="0.3" fill="#FAA889" cx="180.5" cy="153.5" r="4.5"></circle>
                <g id="编组-2" transform="translate(93.000000, 40.000000)">
                    <circle id="椭圆形" fill="#F83F25" filter="url(#filter-6)" cx="43" cy="49" r="34"></circle>
                    <circle id="椭圆形" fill="#FFFFFF" cx="41.5" cy="41.5" r="41.5"></circle>
                    <path d="M30.3112862,43.9475089 L18.0550081,43.9475089 C16.4058294,41.1739584 15.7194813,37.9252773 16.1043396,34.7144394 C16.8795403,27.9934394 22.2755454,22.6421946 28.8596848,22.056982 C33.514399,21.6352449 38.0706005,23.5852747 41.0044962,27.2548961 C43.6261373,23.9772 47.5609978,22.0506429 51.7357062,22.0007608 C59.2419798,21.9215398 65.6031858,28.0394386 65.9806528,35.7238671 C66.1361407,38.7462606 65.3513841,41.7421118 63.7361173,44.2925032 L46.4030345,44.2925032 C45.9708491,44.2942786 45.5873443,44.5723678 45.447967,44.9850473 L44.0394323,49.0892017 L33.1207555,35.6625348 C32.5127549,34.9137694 31.3246205,35.3558732 31.3246205,36.3269683 L31.3246205,42.9048595 C31.3273199,43.1784415 31.2219925,43.4418631 31.0318808,43.6369952 C30.8417692,43.8321272 30.5824999,43.9429303 30.3112862,43.9449534 L30.3112862,43.9475089 Z M43.998899,53.9318993 L34.3874233,42.1177614 L34.3874233,46.0481408 C34.3874233,46.6205758 33.9314229,47.0856792 33.374089,47.0856792 L20.5680771,47.0856792 C20.6491438,47.1623446 20.7302106,47.244121 20.8138107,47.3182309 L41.0019628,68 L61.0811815,47.428118 L48.5741032,47.428118 C48.1403183,47.4291763 47.7553126,47.7086428 47.6165023,48.1232176 L45.7342339,53.6124602 C45.6170459,53.9628884 45.3205286,54.2215331 44.9598636,54.287924 C44.5991986,54.354315 44.2312316,54.2179881 43.998899,53.9318993 Z" id="形状" fill="url(#linearGradient-7)" fill-rule="nonzero"></path>
                </g>
                <text id="各地区病亡率与治愈率" font-family="PingFangSC-Semibold, PingFang SC" font-size="16" font-weight="500" fill="#FFFFFF">
                    <tspan x="42" y="198">各地区病亡率与治愈率</tspan>
                </text>
                <text id="疫情生命线" font-family="PingFangSC-Medium, PingFang SC" font-size="36" font-weight="400" fill="#FFFFFF">
                    <tspan x="42" y="166">疫情生命线</tspan>
                </text>
            </g>
            <circle id="椭圆形" fill-opacity="0.3" fill="#FAA889" cx="327" cy="673" r="6"></circle>
        </g>
    </g>
</svg>