<?xml version="1.0" encoding="UTF-8"?>
<svg width="270px" height="270px" viewBox="0 0 270 270" version="1.1" xmlns="http://www.w3.org/2000/svg" xmlns:xlink="http://www.w3.org/1999/xlink">
    <!-- Generator: Sketch 54 (76480) - https://sketchapp.com -->
    <title>编组 27</title>
    <desc>Created with Sketch.</desc>
    <defs>
        <linearGradient x1="52.5233192%" y1="57.6523712%" x2="10.6286035%" y2="6.56867168%" id="linearGradient-1">
            <stop stop-color="#4286E7" offset="0%"></stop>
            <stop stop-color="#77BEFD" offset="100%"></stop>
        </linearGradient>
        <rect id="path-2" x="0.227873017" y="0" width="269.330025" height="270" rx="20"></rect>
        <linearGradient x1="45.8026624%" y1="62.3898761%" x2="0%" y2="23.9826735%" id="linearGradient-4">
            <stop stop-color="#4286E7" offset="0%"></stop>
            <stop stop-color="#77BEFD" offset="100%"></stop>
        </linearGradient>
        <filter x="-46.4%" y="-46.4%" width="192.8%" height="192.8%" filterUnits="objectBoundingBox" id="filter-5">
            <feGaussianBlur stdDeviation="15" in="SourceGraphic"></feGaussianBlur>
        </filter>
        <linearGradient x1="50%" y1="-10.8118152%" x2="50%" y2="64.9643428%" id="linearGradient-6">
            <stop stop-color="#A0D3FD" offset="0%"></stop>
            <stop stop-color="#2478F1" offset="100%"></stop>
        </linearGradient>
    </defs>
    <g id="页面-1" stroke="none" stroke-width="1" fill="none" fill-rule="evenodd">
        <g id="导航页" transform="translate(-385.000000, -531.000000)">
            <rect fill="#FFFFFF" x="0" y="0" width="750" height="1592"></rect>
            <g id="编组-27" transform="translate(385.000000, 531.000000)">
                <g id="编组-16">
                    <g id="编组-6">
                        <g id="编组-21">
                            <g id="路径-14">
                                <mask id="mask-3" fill="white">
                                    <use xlink:href="#path-2"></use>
                                </mask>
                                <use id="蒙版" fill="url(#linearGradient-1)" xlink:href="#path-2"></use>
                                <path d="M-0.160726046,152.805056 C30.233098,146.970092 69.5925662,155.21595 117.917679,177.542628 C166.242791,199.869307 216.562923,197.865197 268.878075,171.530298 L268.727377,284.917127 L0.880542571,279.030331 L-0.160726046,152.805056 Z" fill="url(#linearGradient-4)" mask="url(#mask-3)"></path>
                            </g>
                        </g>
                        <g id="编组-9" transform="translate(48.000000, 135.000000)"></g>
                        <g id="编组-14" transform="translate(93.000000, 40.000000)">
                            <circle id="椭圆形" fill="#2474E7" filter="url(#filter-5)" cx="48.5" cy="48.5" r="48.5"></circle>
                            <circle id="椭圆形" fill="#FFFFFF" cx="44.5" cy="43.5" r="41.5"></circle>
                            <path d="M67.9258605,41.0292524 L65.7780805,41.0192512 C65.5696351,38.8634876 65.0228618,36.7540227 64.1578692,34.7684362 L66.7557079,33.2657403 L66.7557079,33.255739 C66.7732102,33.2457377 66.7832115,33.2357364 66.8057144,33.2357364 C67.7705503,32.6752662 68.1012853,31.4405968 67.5458109,30.4728761 C66.9861943,29.5071328 65.7513243,29.1752266 64.7829507,29.7302793 C64.7629481,29.7402806 64.7529468,29.7502819 64.7429455,29.7602833 L62.2026143,31.2254743 C60.8143585,29.2246429 59.0933803,27.4766027 57.1144509,26.0573005 L58.472128,23.7044937 L58.4621266,23.7044937 C58.7297372,23.2407966 58.8018386,22.6896715 58.6625197,22.1727375 C58.5232008,21.6558035 58.1839136,21.2155518 57.7195298,20.9491345 C56.7513477,20.3926089 55.5153821,20.7248096 54.9566696,21.6917313 C54.9466683,21.7017326 54.9466683,21.7217352 54.936667,21.7317365 L53.5989926,24.0570397 C51.459398,23.0879122 49.170709,22.489319 46.8306101,22.2868089 L46.8306101,20.0215135 C46.8306101,18.9050624 45.9255477,18 44.8090966,18 C43.6926455,18 42.787583,18.9050624 42.787583,20.0215135 L42.787583,22.3168128 C40.5987022,22.5469532 38.4611088,23.1277843 36.4567577,24.0370371 L35.1090819,21.6917313 C34.5494653,20.725988 33.3145953,20.3940818 32.3462217,20.9491345 C31.378984,21.5088244 31.0468766,22.7455611 31.6036249,23.714495 L32.9538009,26.0472992 C31.0154189,27.4225476 29.3245218,29.1168265 27.953149,31.0579524 L25.7253585,29.7677842 C24.7566629,29.2085231 23.5180091,29.5404353 22.9587479,30.5091309 C22.3994866,31.4778266 22.7313988,32.7164804 23.7000945,33.2757416 L25.9503878,34.5759111 C25.0502705,36.5761719 24.4651942,38.7439545 24.2301636,41.0192512 L21.9423653,41.0192512 L21.9423653,41.0492551 C20.8534847,41.0925691 19.9946339,41.9906993 20.0000252,43.0804277 C20.0054166,44.1701561 20.873112,45.0597443 21.9623679,45.0922822 C22.0498793,45.0922822 22.1273894,45.0822809 22.2048995,45.0747799 L24.2376645,45.0747799 C24.429499,47.0943052 24.916407,49.0747908 25.682853,50.9530463 L23.2125309,52.3782321 C22.2452932,52.937922 21.9131858,54.1746587 22.4699341,55.1435926 C23.0295507,56.1093359 24.2644207,56.4412422 25.2327943,55.8861894 L27.5580974,54.5285125 C28.7338302,56.3132529 30.1727967,57.9098566 31.8261539,59.2641299 L30.2334463,62.0194891 C29.707176,62.9849689 30.0474399,64.1939931 31.0000185,64.7432705 C31.9525971,65.2925478 33.1694352,64.9813821 33.7414036,64.0422529 L35.1965933,61.5119229 C37.5471613,62.7711596 40.1203156,63.5609396 42.7725811,63.8372261 L42.7725811,66.0050087 L42.795084,66.0050087 C42.8700938,67.050145 43.7327063,67.8802532 44.7953448,67.8802532 C45.8604837,67.8802532 46.7205958,67.050145 46.7981059,66.0050087 L46.8181085,66.0050087 L46.8181085,63.8647297 C49.5506748,63.630706 52.2097536,62.8573722 54.6416285,61.589433 L56.0468117,64.0322515 C56.6073562,64.9985818 57.8438919,65.3295172 58.8121723,64.772348 C59.7779156,64.2127314 60.1098218,62.9778614 59.5547691,62.0094878 L58.0395715,59.3716439 C59.7185632,58.0312162 61.1816521,56.4407922 62.3776371,54.6560291 L64.7204426,56.0037048 L64.7204426,55.9937035 C64.7404452,56.0037048 64.7404452,56.0137061 64.7604478,56.0212071 C65.7217211,56.5158851 66.9020485,56.1683432 67.4418686,55.2316751 C67.9816887,54.2950071 67.6906556,53.0994914 66.7807112,52.51575 C66.7632089,52.5057487 66.7532076,52.5057487 66.7307047,52.4957474 L66.7307047,52.4857461 L64.2703839,51.0705616 C65.0629873,49.1853159 65.5705534,47.1725534 65.7755801,45.0547773 L67.9258605,45.0547773 C69.0485068,45.0547773 69.9461239,44.1446587 69.9461239,43.0320136 C69.9461239,41.9393711 69.0385056,41.0317528 67.9233602,41.0317528 L67.9258605,41.0292524 Z" id="路径" fill="url(#linearGradient-6)" fill-rule="nonzero"></path>
                            <path d="M47.12614,31.5265213 C46.0662057,30.0505274 44.4631192,29.0562946 42.6698432,28.76273 C40.8765673,28.4691655 39.0401375,28.9003394 37.5648935,29.9613172 C36.0892941,31.0216312 35.095561,32.6248982 34.8024691,34.4181512 C34.5093773,36.2114042 34.9409555,38.0476261 36.0021897,39.5225638 C37.4314384,41.5101128 39.8124634,42.5841886 42.2483557,42.3401974 C44.684248,42.0962063 46.8049375,40.571216 47.811581,38.3396759 C48.8182246,36.1081357 48.5578891,33.5090696 47.1286404,31.5215206 L47.12614,31.5265213 Z M46.5610664,48.0411744 C45.7862554,48.5956539 45.264197,49.4359013 45.1103016,50.376165 C44.9564061,51.3164287 45.1833486,52.2792671 45.7409595,53.0518276 C46.9011107,54.6645379 49.1489038,55.0270851 50.7491124,53.8719346 C52.3618227,52.7217846 52.7318709,50.4714913 51.5717196,48.8612813 C51.0185161,48.0847989 50.1781105,47.5614133 49.2372361,47.4074179 C48.2963618,47.2534225 47.3329503,47.4815726 46.5610664,48.0411744 L46.5610664,48.0411744 Z M52.8118813,40.4626863 C52.4332677,40.7340888 52.1782712,41.1450483 52.1032094,41.6048019 C52.0281476,42.0645554 52.1391961,42.5352773 52.4118292,42.9130058 C52.6832317,43.2916194 53.0941912,43.5466159 53.5539447,43.6216777 C54.0136983,43.6967395 54.4844202,43.585691 54.8621487,43.313058 C55.2407623,43.0416555 55.4957588,42.630696 55.5708206,42.1709424 C55.6458824,41.7111889 55.5348339,41.240467 55.2622008,40.8627385 C54.6945795,40.0779838 53.5996212,39.8992151 52.8118813,40.4626863 L52.8118813,40.4626863 Z" id="形状" fill="#FFFFFF" fill-rule="nonzero"></path>
                            <path d="M32.3092083,46.4984733 C31.3574834,47.1816295 30.7166522,48.215359 30.5280865,49.371614 C30.3395207,50.5278691 30.618715,51.7116393 31.3040772,52.6617768 C32.7292631,54.6445354 35.4846223,55.094594 37.4673808,53.6669079 C39.4501393,52.241722 39.9001979,49.4763615 38.4725118,47.5036043 C37.7889345,46.5524332 36.7552574,45.9120406 35.5992039,45.7235077 C34.4431503,45.5349749 33.2595692,45.8137699 32.3092083,46.4984733 L32.3092083,46.4984733 Z M42.0854829,56.9298332 C42.0854829,57.6043989 42.6323264,58.1512425 43.3068921,58.1512425 C43.9814578,58.1512425 44.5283013,57.6043989 44.5283013,56.9298332 C44.5281631,56.2560558 43.9819197,55.7099246 43.3081423,55.7099246 C42.6343648,55.7099246 42.0881215,56.2560558 42.0879832,56.9298332 L42.0854829,56.9298332 Z M27.4360729,40.9027437 C26.830281,41.3839746 26.7089337,42.2560129 27.1603247,42.8843545 C27.6117158,43.5126962 28.4768704,43.6760466 29.1262933,43.2555505 C29.7735165,42.7879579 29.9220383,41.88566 29.4588366,41.2352871 C29.2354304,40.921996 28.8963096,40.7107333 28.5166186,40.6483119 C28.1369277,40.5858905 27.7480203,40.677465 27.4360729,40.9027437 L27.4360729,40.9027437 Z M53.3669537,31.4490112 C53.8104848,31.1268398 53.9109744,30.5071539 53.591983,30.0613302 C53.2699637,29.6193636 52.6521685,29.5189998 52.2068025,29.8363009 C51.9915092,29.9893859 51.8465183,30.2223408 51.8042322,30.4831053 C51.761946,30.7438698 51.8258897,31.010706 51.9817731,31.2239818 C52.3043152,31.6740405 52.9193954,31.7690529 53.3669537,31.4490112 L53.3669537,31.4490112 Z" id="形状" fill="#FFFFFF" fill-rule="nonzero"></path>
                        </g>
                        <circle id="椭圆形" fill="#63A9F6" cx="59.5" cy="131.5" r="6.5"></circle>
                        <circle id="椭圆形" fill-opacity="0.3" fill="#63A9F6" cx="182.5" cy="150.5" r="4.5"></circle>
                        <circle id="椭圆形" fill-opacity="0.3" fill="#63A9F6" cx="234" cy="139" r="6"></circle>
                    </g>
                    <text id="新冠肺炎与历史重大传染病对比" font-family="PingFangSC-Semibold, PingFang SC" font-size="16" font-weight="500" fill="#FFFFFF">
                        <tspan x="49" y="198">新冠肺炎与历史重大传染</tspan>
                        <tspan x="49" y="220">病对比</tspan>
                    </text>
                    <text id="疫情轨迹图" font-family="PingFangSC-Medium, PingFang SC" font-size="36" font-weight="400" fill="#FFFFFF">
                        <tspan x="50" y="166">疫情轨迹图</tspan>
                    </text>
                </g>
            </g>
        </g>
    </g>
</svg>